<svg id="Layer_1" data-name="Layer 1" xmlns="http://www.w3.org/2000/svg" viewBox="0 0 77.12 77.12"><defs><style>.cls-1{fill:#774395;}.cls-2{fill:none;stroke:#fff;stroke-linecap:round;stroke-linejoin:round;stroke-width:1.5px;}</style></defs><title>advisor-icon</title><circle class="cls-1" cx="38.56" cy="38.56" r="38.56"/><path class="cls-2" d="M1222.53,132.43h0c-4.33,4.34-17.38,7.86-17.38,7.86,0,13.85.87,26,17.39,32.14,16.52-6.12,17.39-18.3,17.39-32.14C1239.91,140.29,1226.87,136.77,1222.53,132.43Z" transform="translate(-1183.56 -114.09)"/><path class="cls-2" d="M1222.53,137.65h0c-3.2,3.21-12.85,5.81-12.85,5.81,0,10.24.64,19.23,12.86,23.76,12.21-4.52,12.86-13.52,12.86-23.76C1235.38,143.46,1225.74,140.86,1222.53,137.65Z" transform="translate(-1183.56 -114.09)"/><line class="cls-2" x1="26.35" y1="36.34" x2="39.05" y2="23.64"/><line class="cls-2" x1="27.97" y1="43.42" x2="44.54" y2="26.85"/><line class="cls-2" x1="31.46" y1="48.62" x2="50.94" y2="29.14"/><line class="cls-2" x1="36.83" y1="51.94" x2="51.47" y2="37.3"/></svg>