<svg id="Layer_1" data-name="Layer 1" xmlns="http://www.w3.org/2000/svg" viewBox="0 0 53.84 15.9"><defs><style>.cls-1{fill:#424143;}</style></defs><title>advisor-text</title><path class="cls-1" d="M1198.9,207l-1.21,3.67h-1.56l4-11.66h1.82l4,11.66h-1.61L1203,207h-4.14Zm3.82-1.18-1.14-3.36c-0.26-.76-0.43-1.45-0.61-2.13h0c-0.17.69-.36,1.4-0.59,2.11l-1.14,3.37h3.51Z" transform="translate(-1196.14 -198.36)"/><path class="cls-1" d="M1214.59,198.36v10.12c0,0.74,0,1.59.07,2.16h-1.37l-0.07-1.45h0a3.1,3.1,0,0,1-2.86,1.64c-2,0-3.58-1.71-3.58-4.26,0-2.79,1.71-4.5,3.76-4.5a2.8,2.8,0,0,1,2.53,1.28h0v-5h1.52Zm-1.52,7.32A2.75,2.75,0,0,0,1213,205a2.24,2.24,0,0,0-2.2-1.76c-1.58,0-2.51,1.38-2.51,3.24,0,1.7.83,3.1,2.47,3.1a2.29,2.29,0,0,0,2.23-1.82,2.7,2.7,0,0,0,.07-0.66v-1.45Z" transform="translate(-1196.14 -198.36)"/><path class="cls-1" d="M1217.7,202.27l1.64,4.71a21.61,21.61,0,0,1,.68,2.15h0.05c0.19-.69.43-1.38,0.71-2.15l1.63-4.71H1224l-3.29,8.38h-1.45l-3.18-8.37h1.63Z" transform="translate(-1196.14 -198.36)"/><path class="cls-1" d="M1227.13,199.91a0.94,0.94,0,0,1-1.88,0,0.93,0.93,0,0,1,1-1A0.9,0.9,0,0,1,1227.13,199.91Zm-1.7,10.73v-8.37H1227v8.38h-1.52Z" transform="translate(-1196.14 -198.36)"/><path class="cls-1" d="M1229.28,209.08a4,4,0,0,0,2,.61c1.11,0,1.63-.55,1.63-1.25s-0.43-1.12-1.56-1.54c-1.5-.54-2.21-1.37-2.21-2.37,0-1.35,1.09-2.46,2.89-2.46a4.18,4.18,0,0,1,2.06.52l-0.38,1.11a3.25,3.25,0,0,0-1.71-.48,1.22,1.22,0,0,0-1.4,1.14c0,0.69.5,1,1.59,1.42,1.45,0.55,2.2,1.28,2.2,2.53,0,1.47-1.14,2.51-3.13,2.51a4.78,4.78,0,0,1-2.35-.57Z" transform="translate(-1196.14 -198.36)"/><path class="cls-1" d="M1243.92,206.39a4.09,4.09,0,0,1-4.17,4.45,4,4,0,0,1-4-4.31,4.09,4.09,0,0,1,4.15-4.45A4,4,0,0,1,1243.92,206.39Zm-6.64.09c0,1.83,1.06,3.22,2.54,3.22s2.54-1.37,2.54-3.25c0-1.42-.71-3.22-2.51-3.22S1237.28,204.88,1237.28,206.47Z" transform="translate(-1196.14 -198.36)"/><path class="cls-1" d="M1245.85,204.88c0-1,0-1.83-.07-2.61h1.33l0.05,1.64h0.07a2.51,2.51,0,0,1,2.32-1.83,1.63,1.63,0,0,1,.43.05v1.44a2.27,2.27,0,0,0-.52-0.05,2.14,2.14,0,0,0-2,2,4.23,4.23,0,0,0-.07.71v4.46h-1.51v-5.76Z" transform="translate(-1196.14 -198.36)"/></svg>