<svg id="Layer_1" data-name="Layer 1" xmlns="http://www.w3.org/2000/svg" xmlns:xlink="http://www.w3.org/1999/xlink" viewBox="0 0 205.51 238.82"><defs><style>.cls-1,.cls-2{fill:none;stroke:#7f3f98;stroke-miterlimit:10;stroke-width:3px;}.cls-2{stroke-linecap:round;}.cls-3{fill:#774395;}</style><symbol id="New_Symbol_12" data-name="New Symbol 12" viewBox="0 0 188.93 219.7"><circle class="cls-1" cx="89.25" cy="109.93" r="56.9"/><circle class="cls-2" cx="89.25" cy="109.93" r="87.75"/><path class="cls-3" d="M51,50.79l0.67,3.88-1.4.75L48.26,43l1.63-.87,9.17,8.58-1.45.77-2.88-2.7Zm2.88-2.89-2.64-2.47c-0.6-.56-1.09-1.1-1.56-1.62l0,0c0.18,0.7.35,1.43,0.48,2.18l0.59,3.58Z"/><path class="cls-3" d="M60,37.76a22,22,0,0,1,3-1.19,6.81,6.81,0,0,1,5,0,5.47,5.47,0,0,1,2.85,3.59,6.28,6.28,0,0,1-.29,4.92,7.32,7.32,0,0,1-4.52,3.17,24.59,24.59,0,0,1-2.71.68Zm4.54,9.6A9.53,9.53,0,0,0,66,47c3.13-1,4.3-3.23,3.36-6.3-0.8-2.69-2.84-3.92-5.94-3a8.65,8.65,0,0,0-1.67.68Z"/><path class="cls-3" d="M80.24,45L75.09,33.59l1.65-.18L79.21,39C79.9,40.56,80.49,42,81,43.3h0c0.18-1.4.51-2.95,0.87-4.55l1.36-6.06,1.63-.18L81.92,44.8Z"/><path class="cls-3" d="M92.43,32.61L92.08,44.5l-1.53,0L90.9,32.57Z"/><path class="cls-3" d="M98,43a5.44,5.44,0,0,0,2.59,1.2c1.55,0.25,2.58-.42,2.78-1.61s-0.35-1.82-1.84-2.69c-1.8-1-2.83-2.17-2.56-3.82,0.29-1.83,2-2.94,4.3-2.58a5.4,5.4,0,0,1,2.5,1l-0.62,1.17a4.73,4.73,0,0,0-2.14-.91c-1.6-.26-2.36.6-2.49,1.4-0.18,1.1.45,1.75,2,2.64,1.86,1.08,2.72,2.2,2.44,3.93s-1.88,3.16-4.65,2.72a6.13,6.13,0,0,1-2.87-1.23Z"/><path class="cls-3" d="M121,44.75c-1.36,3.86-4.43,5.07-7.29,4.06s-4.23-4.07-3-7.46c1.25-3.56,4.29-5.1,7.28-4S122.13,41.43,121,44.75Zm-8.76-2.89c-0.85,2.39-.31,5,2,5.8s4.34-.84,5.23-3.39c0.79-2.23.44-5-2-5.82S113.07,39.41,112.2,41.87Z"/><path class="cls-3" d="M129.28,42.61A16,16,0,0,1,132,43.87a4.87,4.87,0,0,1,2.49,2.57,3,3,0,0,1-.33,2.42,3.12,3.12,0,0,1-3.46,1.5l0,0a3,3,0,0,1,.3,3,18.87,18.87,0,0,0-.85,3.28l-1.37-.8a15.27,15.27,0,0,1,.74-2.85c0.52-1.59.28-2.45-.9-3.19l-1.25-.73-2.59,4.45-1.33-.77Zm-1.39,5.45,1.36,0.79c1.42,0.82,2.77.57,3.45-.6,0.77-1.33.15-2.46-1.25-3.29a6.36,6.36,0,0,0-1.38-.64Z"/><path class="cls-3" d="M15.12,116.85a4.09,4.09,0,0,0-.34,2.13,1.61,1.61,0,0,0,1.74,1.68c0.83-.1,1.25-0.63,1.57-1.89,0.34-1.51,1-2.5,2.24-2.65s2.55,0.86,2.76,2.59a4.07,4.07,0,0,1-.2,2l-1-.21a3.57,3.57,0,0,0,.22-1.74,1.45,1.45,0,0,0-1.53-1.52c-0.83.1-1.18,0.69-1.51,2-0.4,1.57-1,2.42-2.34,2.58s-2.68-.71-2.93-2.81a4.63,4.63,0,0,1,.3-2.34Z"/><path class="cls-3" d="M24.06,125.27l-5.13,1.34c-1.94.51-2.54,1.58-2.24,2.74s1.4,1.89,3.32,1.39l5.13-1.34,0.3,1.13-5.05,1.32c-2.66.69-4.12-.42-4.61-2.3s0.2-3.38,2.89-4.08l5.11-1.33Z"/><path class="cls-3" d="M26.51,133.91a13.39,13.39,0,0,1,1,2,3.68,3.68,0,0,1,.28,2.6,2.41,2.41,0,0,1-1.43,1.44,2.63,2.63,0,0,1-2,.1,3.71,3.71,0,0,1-2-2.15A4,4,0,0,1,22.1,137l-3.31,1.38-0.44-1.07ZM23,136.64a3.88,3.88,0,0,0,.28.92c0.54,1.29,1.49,1.81,2.63,1.34s1.3-1.45.81-2.62a4.83,4.83,0,0,0-.5-1Z"/><path class="cls-3" d="M28.34,148.16l-1.73-3-2.81,1.6,1.93,3.37-0.84.48-2.5-4.38,7.78-4.44,2.4,4.2-0.84.48-1.83-3.2-2.46,1.4,1.73,3Z"/><path class="cls-3" d="M34.27,148.78a12,12,0,0,1,1.48,1.67,3.66,3.66,0,0,1,1,2.51,2.23,2.23,0,0,1-.94,1.58,2.35,2.35,0,0,1-2.84,0l0,0a2.23,2.23,0,0,1-.66,2.14,14.23,14.23,0,0,0-1.56,2l-0.72-1A11.63,11.63,0,0,1,31.32,156c0.83-1,.92-1.62.32-2.48L31,152.67,27.88,155l-0.69-.93Zm-2.58,3.37,0.71,0.95a1.76,1.76,0,0,0,2.57.6c0.93-.69.83-1.67,0.11-2.65a4.75,4.75,0,0,0-.77-0.85Z"/><path class="cls-3" d="M39.69,155.62a13.43,13.43,0,0,1,1.67,1.47,3.68,3.68,0,0,1,1.22,2.32,2.41,2.41,0,0,1-.8,1.87,2.64,2.64,0,0,1-1.85.84,3.71,3.71,0,0,1-2.61-1.28,4,4,0,0,1-.59-0.72l-2.57,2.5-0.81-.83Zm-2.29,3.84a3.89,3.89,0,0,0,.6.75c1,1,2.05,1.14,2.94.28s0.67-1.82-.21-2.74A4.84,4.84,0,0,0,39.9,157Z"/><path class="cls-3" d="M49.28,169.73c-1.88,2.45-4.36,2.6-6.18,1.2S41,167,42.68,164.87s4.27-2.65,6.17-1.19S50.9,167.62,49.28,169.73Zm-5.6-4.12c-1.17,1.52-1.39,3.51.05,4.62s3.31,0.41,4.55-1.2c1.09-1.41,1.48-3.46,0-4.63S44.87,164,43.68,165.6Z"/><path class="cls-3" d="M51.55,176.49l2.14-9,1.08,0.57-1.16,4.51c-0.28,1.11-.59,2.21-0.85,3.05h0c0.54-.72,1.28-1.53,2.09-2.42L58,169.78l1.07,0.56L58,174.87c-0.27,1.06-.55,2.11-0.87,3h0c0.62-.78,1.31-1.55,2.07-2.41L62.34,172l1,0.55L57,179.33l-1.07-.56,1.16-4.66a27,27,0,0,1,.84-2.86h0a28,28,0,0,1-2,2.27l-3.29,3.54Z"/><path class="cls-3" d="M68.72,179.37l-3.3-1.12-1,3.06,3.67,1.25-0.31.92L63,181.85l2.89-8.48,4.58,1.56-0.31.92-3.48-1.19-0.91,2.68,3.3,1.12Z"/><path class="cls-3" d="M73.61,175.92a12.05,12.05,0,0,1,2.21.27,3.66,3.66,0,0,1,2.39,1.24,2.23,2.23,0,0,1,.34,1.81,2.35,2.35,0,0,1-2.12,1.9v0a2.23,2.23,0,0,1,.92,2,14.29,14.29,0,0,0,.18,2.55l-1.17-.24a11.61,11.61,0,0,1-.15-2.22c0-1.26-.38-1.82-1.4-2.07L73.74,181l-0.79,3.8-1.13-.23Zm0.3,4.23,1.16,0.24a1.76,1.76,0,0,0,2.32-1.25c0.23-1.13-.48-1.8-1.68-2.06a4.76,4.76,0,0,0-1.14-.13Z"/><path class="cls-3" d="M86.25,185.93a0.79,0.79,0,1,1,1.58.06A0.79,0.79,0,1,1,86.25,185.93Zm0.18-4.69a0.79,0.79,0,1,1,1.58.06A0.79,0.79,0,1,1,86.43,181.24Z"/><path class="cls-3" d="M103.24,185.29A5.74,5.74,0,0,1,101,186a4.19,4.19,0,0,1-5-3.91,4.46,4.46,0,0,1,4-5.28,4.8,4.8,0,0,1,2.16.12l-0.15,1a4.21,4.21,0,0,0-1.84-.13c-2.08.28-3.29,1.79-3,4.12a3.26,3.26,0,0,0,3.89,3.12,4.62,4.62,0,0,0,1.82-.62Z"/><path class="cls-3" d="M113.29,178.29c0.84,3-.51,5.05-2.71,5.68s-4.37-.66-5.12-3.27,0.41-5,2.72-5.66S112.57,175.73,113.29,178.29Zm-6.65,2c0.52,1.84,2,3.21,3.74,2.71s2.3-2.41,1.74-4.36c-0.49-1.71-1.89-3.25-3.74-2.72S106.11,178.44,106.65,180.33Z"/><path class="cls-3" d="M123.85,174.31c-0.6-1.1-1.32-2.42-1.79-3.43l0,0c0.18,1.08.32,2.25,0.45,3.56l0.45,4.6-0.79.38L119,176.21c-0.93-1-1.75-1.84-2.44-2.69h0c0.46,1,1,2.4,1.55,3.65l1.44,3.57-1,.48-3.3-8.35,1.33-.64,3.25,3.25c0.81,0.83,1.51,1.59,2.12,2.33l0,0c-0.19-.91-0.32-1.94-0.45-3.13l-0.43-4.6,1.33-.64,4.37,7.84-1,.49Z"/><path class="cls-3" d="M134.72,167.21c-0.78-1-1.72-2.15-2.37-3.06l0,0c0.36,1,.71,2.15,1.07,3.42l1.25,4.45-0.71.51-3.67-2.62c-1.08-.78-2-1.51-2.87-2.22l0,0c0.63,0.92,1.45,2.18,2.17,3.32l2,3.26-0.9.64L126,167.32l1.2-.86,3.77,2.62c0.95,0.68,1.77,1.3,2.49,1.92l0,0c-0.34-.87-0.66-1.85-1-3l-1.23-4.45,1.2-.86,5.68,6.94-0.92.66Z"/><path class="cls-3" d="M136.17,159.23l6.11,6.56-0.85.79L135.32,160Z"/><path class="cls-3" d="M140.67,156l-1.8,2-0.74-.65,4.39-5,0.74,0.65-1.81,2.05,6,5.28-0.77.88Z"/><path class="cls-3" d="M152.41,146.85c-1.09-.62-2.39-1.36-3.32-2l0,0c0.72,0.82,1.46,1.74,2.25,2.79l2.8,3.68-0.47.74L149.27,151c-1.29-.32-2.46-0.65-3.49-1v0c0.92,0.63,2.15,1.49,3.24,2.29l3.1,2.28-0.6.93-7.2-5.37,0.8-1.24,4.47,1.06c1.13,0.28,2.12.56,3,.87l0,0c-0.64-.68-1.29-1.48-2-2.42l-2.78-3.68,0.8-1.24,7.83,4.37-0.61,1Z"/><path class="cls-3" d="M156.55,137.74l-1.42,3.18,2.95,1.32,1.59-3.54,0.89,0.4-2.06,4.6L150.32,140l2-4.42,0.89,0.4-1.5,3.36,2.58,1.16,1.42-3.18Z"/><path class="cls-3" d="M162.07,135.08l-8.59-2.52,0.35-1.21,5.15-1.48a25.3,25.3,0,0,1,3.24-.72v0c-1.18-.23-2.23-0.52-3.57-0.91l-3.59-1.05,0.31-1,8.59,2.52-0.33,1.12-5.16,1.45a28.45,28.45,0,0,1-3.34.77v0c1.1,0.25,2.14.53,3.57,0.95l3.67,1.08Z"/><path class="cls-3" d="M157.29,121.09l-0.41,2.69-1-.15,1-6.56,1,0.15-0.41,2.71,7.89,1.19-0.17,1.16Z"/><path class="cls-3" d="M17.38,97.14l-0.27,0a1.5,1.5,0,0,1-1.21-1.74A69.35,69.35,0,0,1,19.5,82.6a1.5,1.5,0,0,1,2.8,1.09A66.32,66.32,0,0,0,18.86,95.9,1.5,1.5,0,0,1,17.38,97.14Zm9.35-24.08a1.5,1.5,0,0,1-1.27-2.3,68.87,68.87,0,0,1,6-8.07,1.5,1.5,0,1,1,2.27,2A65.84,65.84,0,0,0,28,72.36,1.5,1.5,0,0,1,26.74,73.05Z"/><path class="cls-3" d="M159.82,98.33a1.5,1.5,0,0,1-1.44-1.27,66.32,66.32,0,0,0-3.11-12.3,1.5,1.5,0,0,1,2.82-1,69.31,69.31,0,0,1,3.25,12.86,1.5,1.5,0,0,1-1.26,1.71ZM151.1,74a1.5,1.5,0,0,1-1.25-.73,65.81,65.81,0,0,0-5.51-7.87,1.5,1.5,0,0,1,2.33-1.9,68.8,68.8,0,0,1,5.76,8.23A1.5,1.5,0,0,1,151.1,74Z"/><g id="Outline_Icons" data-name="Outline Icons"><path class="cls-2" d="M89.27,76.44H89.22C81.64,84,58.8,90.2,58.8,90.2c0,24.24,1.52,45.55,30.45,56.27,28.93-10.72,30.45-32,30.45-56.27C119.7,90.2,96.86,84,89.27,76.44Z"/><path class="cls-2" d="M89.27,85.58h0c-5.61,5.62-22.49,10.17-22.49,10.17,0,17.92,1.13,33.67,22.51,41.59,21.38-7.92,22.51-23.68,22.51-41.59C111.76,95.75,94.88,91.19,89.27,85.58Z"/><line class="cls-2" x1="67.18" y1="107.95" x2="89.41" y2="85.72"/><line class="cls-2" x1="70.01" y1="120.35" x2="99.02" y2="91.33"/><line class="cls-2" x1="76.12" y1="129.46" x2="110.23" y2="95.34"/><line class="cls-2" x1="85.53" y1="135.27" x2="111.16" y2="109.64"/></g></symbol></defs><title>big-logo</title><use id="New_Symbol_12-3" data-name="New Symbol 12" width="188.93" height="219.7" transform="translate(0 0) scale(1.09 1.09)" xlink:href="#New_Symbol_12"/></svg>