<svg id="Layer_1" data-name="Layer 1" xmlns="http://www.w3.org/2000/svg" viewBox="0 0 613 163.46"><defs><style>.cls-1{fill:#2a2d30;}.cls-2{fill:#fff;}</style></defs><title>blackbox</title><rect class="cls-1" width="613" height="163.46"/><circle id="_Path_" data-name="&lt;Path&gt;" class="cls-2" cx="1428.97" cy="27.74" r="4.71" transform="translate(-1205.41 727.71) rotate(-30.4)"/><circle id="_Path_2" data-name="&lt;Path&gt;" class="cls-2" cx="1426.99" cy="36.86" r="2.73" transform="translate(-9.62 1464.3) rotate(-89.52)"/><circle id="_Path_3" data-name="&lt;Path&gt;" class="cls-2" cx="1437.27" cy="34.02" r="3.61" transform="translate(-1207.45 732.78) rotate(-30.4)"/><circle id="_Path_4" data-name="&lt;Path&gt;" class="cls-2" cx="1440.67" cy="25.71" r="2.73" transform="translate(-1202.78 733.36) rotate(-30.4)"/><circle id="_Path_5" data-name="&lt;Path&gt;" class="cls-2" cx="1435.38" cy="22.69" r="1.49" transform="translate(-1201.98 730.27) rotate(-30.4)"/><circle id="_Path_6" data-name="&lt;Path&gt;" class="cls-2" cx="1421.64" cy="32.52" r="1.99" transform="translate(-1208.84 724.66) rotate(-30.4)"/><path class="cls-2" d="M1453.8,42.18l-5.18-13.09a0.68,0.68,0,0,0-1.3.24,23.83,23.83,0,0,1-6.68,10.13c-6.14,5.76-16.14,3.12-16.14,3.12a0.68,0.68,0,0,0-.56.76l2.61,14.54a0.68,0.68,0,0,0,.48.56l13.29,4.71a0.68,0.68,0,0,0,.87-0.65l-2-8a0.68,0.68,0,0,1,.6-0.67l9.8-.84a0.68,0.68,0,0,0,.6-0.69l-0.25-8.47a0.68,0.68,0,0,1,.68-0.7h2.57A0.68,0.68,0,0,0,1453.8,42.18Zm-6-1a2.26,2.26,0,1,1,.81-3.1A2.26,2.26,0,0,1,1447.83,41.2Z" transform="translate(-1387.83 0.81)"/><path class="cls-2" d="M1470.42,51.42v-15h2.12l4.81,7.6a42.58,42.58,0,0,1,2.7,4.88l0,0c-0.18-2-.22-3.83-0.22-6.17V36.4h1.83v15h-2L1475,43.8a47.8,47.8,0,0,1-2.81-5l-0.07,0c0.11,1.89.16,3.7,0.16,6.19v6.42h-1.83Z" transform="translate(-1387.83 0.81)"/><path class="cls-2" d="M1495.22,45.94c0,4-2.76,5.73-5.37,5.73-2.92,0-5.17-2.14-5.17-5.55,0-3.61,2.36-5.73,5.35-5.73S1495.22,42.64,1495.22,45.94Zm-8.55.11c0,2.36,1.36,4.14,3.28,4.14s3.27-1.76,3.27-4.19c0-1.83-.91-4.14-3.23-4.14S1486.66,44,1486.66,46Z" transform="translate(-1387.83 0.81)"/><path class="cls-2" d="M1498,44c0-1.27,0-2.36-.09-3.36h1.72l0.07,2.12h0.09a3.23,3.23,0,0,1,3-2.36,2.13,2.13,0,0,1,.56.07v1.85a3,3,0,0,0-.67-0.07,2.75,2.75,0,0,0-2.63,2.52,5.59,5.59,0,0,0-.09.91v5.75H1498V44Z" transform="translate(-1387.83 0.81)"/><path class="cls-2" d="M1508.66,37.54v3.1h2.81v1.49h-2.81v5.81c0,1.34.38,2.09,1.47,2.09a4.38,4.38,0,0,0,1.14-.13l0.09,1.47a4.8,4.8,0,0,1-1.74.27,2.72,2.72,0,0,1-2.12-.82,4,4,0,0,1-.76-2.81V42.13h-1.67V40.64h1.67V38.05Z" transform="translate(-1387.83 0.81)"/><path class="cls-2" d="M1513.88,35.6h2v6.73h0a3.64,3.64,0,0,1,1.4-1.38,4,4,0,0,1,2-.56c1.45,0,3.77.89,3.77,4.61v6.42h-2V45.22c0-1.74-.65-3.21-2.5-3.21a2.82,2.82,0,0,0-2.63,2,2.38,2.38,0,0,0-.13.94v6.5h-2V35.6Z" transform="translate(-1387.83 0.81)"/><path class="cls-2" d="M1534.58,46.7L1533,51.42h-2l5.1-15h2.34l5.12,15h-2.07l-1.6-4.72h-5.32Zm4.92-1.52L1538,40.86c-0.33-1-.56-1.87-0.78-2.74h0c-0.22.89-.47,1.8-0.76,2.72L1535,45.18h4.52Z" transform="translate(-1387.83 0.81)"/><path class="cls-2" d="M1546,43.55c0-1.11,0-2-.09-2.92h1.71l0.09,1.74h0.07a3.72,3.72,0,0,1,3.39-2,3.19,3.19,0,0,1,3.05,2.16h0a4.45,4.45,0,0,1,1.2-1.4,3.68,3.68,0,0,1,2.38-.76c1.43,0,3.54.94,3.54,4.68v6.35h-1.92v-6.1c0-2.07-.76-3.32-2.34-3.32a2.54,2.54,0,0,0-2.32,1.78,3.23,3.23,0,0,0-.16,1v6.66h-1.92V45c0-1.72-.76-3-2.25-3a2.92,2.92,0,0,0-2.58,2.92v6.5H1546V43.55Z" transform="translate(-1387.83 0.81)"/><path class="cls-2" d="M1566,46.38a3.45,3.45,0,0,0,3.7,3.74,7.09,7.09,0,0,0,3-.56l0.33,1.4a8.74,8.74,0,0,1-3.59.67c-3.32,0-5.3-2.18-5.3-5.44s1.92-5.81,5.06-5.81c3.52,0,4.46,3.1,4.46,5.08a7.58,7.58,0,0,1-.07.91H1566Zm5.75-1.4c0-1.25-.51-3.19-2.72-3.19-2,0-2.85,1.83-3,3.19h5.73Z" transform="translate(-1387.83 0.81)"/><path class="cls-2" d="M1576.45,44c0-1.27,0-2.36-.09-3.36h1.72l0.07,2.12h0.09a3.23,3.23,0,0,1,3-2.36,2.13,2.13,0,0,1,.56.07v1.85a3,3,0,0,0-.67-0.07,2.75,2.75,0,0,0-2.63,2.52,5.59,5.59,0,0,0-.09.91v5.75h-1.94V44Z" transform="translate(-1387.83 0.81)"/><path class="cls-2" d="M1586.26,37.61a1.21,1.21,0,0,1-2.43,0,1.19,1.19,0,0,1,1.22-1.23A1.16,1.16,0,0,1,1586.26,37.61Zm-2.18,13.81V40.64h2V51.42h-2Z" transform="translate(-1387.83 0.81)"/><path class="cls-2" d="M1597.26,51a7.22,7.22,0,0,1-3.1.62,5.12,5.12,0,0,1-5.37-5.5,5.48,5.48,0,0,1,5.79-5.73,6.55,6.55,0,0,1,2.72.56l-0.45,1.51a4.55,4.55,0,0,0-2.27-.51c-2.47,0-3.81,1.83-3.81,4.08a3.7,3.7,0,0,0,3.74,4,5.58,5.58,0,0,0,2.41-.53Z" transform="translate(-1387.83 0.81)"/><path class="cls-2" d="M1605.94,51.42l-0.16-1.36h-0.07a4,4,0,0,1-3.3,1.6,3.07,3.07,0,0,1-3.3-3.1c0-2.61,2.32-4,6.48-4V44.33a2.22,2.22,0,0,0-2.45-2.5,5.37,5.37,0,0,0-2.81.8l-0.45-1.29a6.69,6.69,0,0,1,3.54-1c3.3,0,4.1,2.25,4.1,4.41v4a15.17,15.17,0,0,0,.18,2.58h-1.78Zm-0.29-5.5c-2.14,0-4.57.33-4.57,2.43a1.74,1.74,0,0,0,1.85,1.87,2.68,2.68,0,0,0,2.61-1.8,2.06,2.06,0,0,0,.11-0.62V45.92Z" transform="translate(-1387.83 0.81)"/><path class="cls-2" d="M1611,43.55c0-1.11,0-2-.09-2.92h1.74l0.11,1.78h0a4,4,0,0,1,3.56-2c1.49,0,3.81.89,3.81,4.59v6.44h-2V45.2c0-1.74-.65-3.19-2.5-3.19a2.79,2.79,0,0,0-2.63,2,2.83,2.83,0,0,0-.13.91v6.48h-2V43.55Z" transform="translate(-1387.83 0.81)"/><path class="cls-2" d="M1631.67,51.42l-3.81-15h2l1.78,7.6c0.45,1.87.85,3.74,1.11,5.19h0c0.25-1.49.71-3.27,1.23-5.21l2-7.57h2l1.83,7.62c0.42,1.78.82,3.56,1,5.15h0c0.31-1.65.73-3.32,1.2-5.19l2-7.57h2l-4.25,15h-2L1638,43.6a45.16,45.16,0,0,1-1-4.9h0a46.84,46.84,0,0,1-1.16,4.9l-2.14,7.82h-2Z" transform="translate(-1387.83 0.81)"/><path class="cls-2" d="M1657.52,45.94c0,4-2.76,5.73-5.37,5.73-2.92,0-5.17-2.14-5.17-5.55,0-3.61,2.36-5.73,5.35-5.73S1657.52,42.64,1657.52,45.94ZM1649,46c0,2.36,1.36,4.14,3.27,4.14s3.28-1.76,3.28-4.19c0-1.83-.91-4.14-3.23-4.14S1649,44,1649,46Z" transform="translate(-1387.83 0.81)"/><path class="cls-2" d="M1660.35,44c0-1.27,0-2.36-.09-3.36H1662l0.07,2.12h0.09a3.23,3.23,0,0,1,3-2.36,2.12,2.12,0,0,1,.56.07v1.85a2.94,2.94,0,0,0-.67-0.07,2.75,2.75,0,0,0-2.63,2.52,5.48,5.48,0,0,0-.09.91v5.75h-1.94V44Z" transform="translate(-1387.83 0.81)"/><path class="cls-2" d="M1669.91,45.58h0c0.27-.38.65-0.85,1-1.23l3.16-3.72h2.36l-4.17,4.43,4.75,6.35h-2.38l-3.72-5.17-1,1.11v4.05H1668V35.6h1.94v10Z" transform="translate(-1387.83 0.81)"/><path class="cls-2" d="M1679.12,49.41a5.14,5.14,0,0,0,2.58.78c1.43,0,2.09-.71,2.09-1.6s-0.56-1.45-2-2c-1.94-.69-2.85-1.76-2.85-3.05,0-1.74,1.4-3.16,3.72-3.16a5.38,5.38,0,0,1,2.65.67l-0.49,1.43a4.2,4.2,0,0,0-2.21-.62,1.57,1.57,0,0,0-1.8,1.47c0,0.89.65,1.29,2,1.83,1.87,0.71,2.83,1.65,2.83,3.25,0,1.89-1.47,3.23-4,3.23a6.15,6.15,0,0,1-3-.73Z" transform="translate(-1387.83 0.81)"/><path class="cls-2" d="M1691.05,37.54v3.1h2.81v1.49h-2.81v5.81c0,1.34.38,2.09,1.47,2.09a4.38,4.38,0,0,0,1.14-.13l0.09,1.47a4.8,4.8,0,0,1-1.74.27,2.72,2.72,0,0,1-2.12-.82,4,4,0,0,1-.76-2.81V42.13h-1.67V40.64h1.67V38.05Z" transform="translate(-1387.83 0.81)"/><path class="cls-2" d="M1697.72,40.64l2.36,6.37c0.25,0.71.51,1.56,0.69,2.21h0c0.2-.65.42-1.47,0.69-2.25l2.14-6.33h2.07l-2.94,7.69c-1.4,3.7-2.36,5.59-3.7,6.75a5.31,5.31,0,0,1-2.41,1.27l-0.49-1.65a5.18,5.18,0,0,0,1.72-1,5.94,5.94,0,0,0,1.65-2.18,1.42,1.42,0,0,0,.16-0.47,1.72,1.72,0,0,0-.13-0.51l-4-9.94h2.14Z" transform="translate(-1387.83 0.81)"/><path class="cls-2" d="M1707.94,35.6h2V51.42h-2V35.6Z" transform="translate(-1387.83 0.81)"/><path class="cls-2" d="M1714.65,46.38a3.45,3.45,0,0,0,3.7,3.74,7.09,7.09,0,0,0,3-.56l0.33,1.4a8.74,8.74,0,0,1-3.59.67c-3.32,0-5.3-2.18-5.3-5.44s1.92-5.81,5.06-5.81c3.52,0,4.46,3.1,4.46,5.08a7.34,7.34,0,0,1-.07.91h-7.57Zm5.75-1.4c0-1.25-.51-3.19-2.72-3.19-2,0-2.85,1.83-3,3.19h5.72Z" transform="translate(-1387.83 0.81)"/><path class="cls-2" d="M1730.62,36.6a27.76,27.76,0,0,1,4.12-.31c2.79,0,4.77.65,6.08,1.87a6.91,6.91,0,0,1,2.12,5.39,7.94,7.94,0,0,1-2.16,5.84c-1.4,1.4-3.72,2.16-6.64,2.16a31.29,31.29,0,0,1-3.52-.18V36.6Zm1.94,13.28a12.27,12.27,0,0,0,2,.11c4.14,0,6.39-2.32,6.39-6.37,0-3.54-2-5.79-6.08-5.79a11,11,0,0,0-2.27.2V49.88Z" transform="translate(-1387.83 0.81)"/><path class="cls-2" d="M1747.95,37.61a1.21,1.21,0,0,1-2.43,0,1.19,1.19,0,0,1,1.23-1.23A1.16,1.16,0,0,1,1747.95,37.61Zm-2.18,13.81V40.64h2V51.42h-2Z" transform="translate(-1387.83 0.81)"/><path class="cls-2" d="M1750.89,49.41a5.14,5.14,0,0,0,2.58.78c1.43,0,2.09-.71,2.09-1.6s-0.56-1.45-2-2c-1.94-.69-2.85-1.76-2.85-3.05,0-1.74,1.4-3.16,3.72-3.16a5.38,5.38,0,0,1,2.65.67l-0.49,1.43a4.2,4.2,0,0,0-2.21-.62,1.57,1.57,0,0,0-1.8,1.47c0,0.89.65,1.29,2,1.83,1.87,0.71,2.83,1.65,2.83,3.25,0,1.89-1.47,3.23-4,3.23a6.15,6.15,0,0,1-3-.73Z" transform="translate(-1387.83 0.81)"/><path class="cls-2" d="M1762.83,37.54v3.1h2.81v1.49h-2.81v5.81c0,1.34.38,2.09,1.47,2.09a4.37,4.37,0,0,0,1.14-.13l0.09,1.47a4.81,4.81,0,0,1-1.74.27,2.72,2.72,0,0,1-2.12-.82,4,4,0,0,1-.76-2.81V42.13h-1.67V40.64h1.67V38.05Z" transform="translate(-1387.83 0.81)"/><path class="cls-2" d="M1768.1,44c0-1.27,0-2.36-.09-3.36h1.72l0.07,2.12h0.09a3.23,3.23,0,0,1,3-2.36,2.14,2.14,0,0,1,.56.07v1.85a3,3,0,0,0-.67-0.07,2.75,2.75,0,0,0-2.63,2.52,5.59,5.59,0,0,0-.09.91v5.75h-1.94V44Z" transform="translate(-1387.83 0.81)"/><path class="cls-2" d="M1777.91,37.61a1.21,1.21,0,0,1-2.43,0,1.19,1.19,0,0,1,1.23-1.23A1.16,1.16,0,0,1,1777.91,37.61Zm-2.18,13.81V40.64h2V51.42h-2Z" transform="translate(-1387.83 0.81)"/><path class="cls-2" d="M1781.08,51.42c0-.74.09-1.83,0.09-2.78v-13h1.94v6.77h0a4,4,0,0,1,3.68-2c2.67,0,4.57,2.23,4.54,5.5,0,3.85-2.43,5.77-4.83,5.77a3.84,3.84,0,0,1-3.61-2h-0.07l-0.09,1.78h-1.69Zm2-4.32a3.72,3.72,0,0,0,.09.71,3,3,0,0,0,2.94,2.29c2,0,3.27-1.67,3.27-4.14,0-2.16-1.11-4-3.21-4a3.13,3.13,0,0,0-3,2.41,3.84,3.84,0,0,0-.11.8V47.1Z" transform="translate(-1387.83 0.81)"/><path class="cls-2" d="M1803.22,48.48c0,1.11,0,2.09.09,2.94h-1.74l-0.11-1.76h0a4.06,4.06,0,0,1-3.56,2c-1.69,0-3.72-.94-3.72-4.72v-6.3h2v6c0,2,.62,3.43,2.41,3.43a2.83,2.83,0,0,0,2.58-1.78,2.87,2.87,0,0,0,.18-1V40.64h2v7.84Z" transform="translate(-1387.83 0.81)"/><path class="cls-2" d="M1809.15,37.54v3.1H1812v1.49h-2.81v5.81c0,1.34.38,2.09,1.47,2.09a4.39,4.39,0,0,0,1.14-.13l0.09,1.47a4.81,4.81,0,0,1-1.74.27,2.72,2.72,0,0,1-2.12-.82,4,4,0,0,1-.76-2.81V42.13h-1.67V40.64h1.67V38.05Z" transform="translate(-1387.83 0.81)"/><path class="cls-2" d="M1816.56,37.61a1.21,1.21,0,0,1-2.43,0,1.19,1.19,0,0,1,1.23-1.23A1.16,1.16,0,0,1,1816.56,37.61Zm-2.18,13.81V40.64h2V51.42h-2Z" transform="translate(-1387.83 0.81)"/><path class="cls-2" d="M1829.68,45.94c0,4-2.76,5.73-5.37,5.73-2.92,0-5.17-2.14-5.17-5.55,0-3.61,2.36-5.73,5.35-5.73S1829.68,42.64,1829.68,45.94Zm-8.55.11c0,2.36,1.36,4.14,3.28,4.14s3.27-1.76,3.27-4.19c0-1.83-.91-4.14-3.23-4.14S1821.13,44,1821.13,46Z" transform="translate(-1387.83 0.81)"/><path class="cls-2" d="M1832.51,43.55c0-1.11,0-2-.09-2.92h1.74l0.11,1.78h0a4,4,0,0,1,3.56-2c1.49,0,3.81.89,3.81,4.59v6.44h-2V45.2c0-1.74-.65-3.19-2.5-3.19a2.88,2.88,0,0,0-2.76,2.92v6.48h-2V43.55Z" transform="translate(-1387.83 0.81)"/><path class="cls-2" d="M1427.65,79.17h-3.07V78.06h7.48v1.11H1429v9h-1.32v-9Z" transform="translate(-1387.83 0.81)"/><path class="cls-2" d="M1433.89,77.52h1.32V82h0a2.45,2.45,0,0,1,.94-0.93,2.72,2.72,0,0,1,1.35-.37c1,0,2.53.6,2.53,3.1v4.32h-1.32V84c0-1.17-.44-2.16-1.68-2.16a1.9,1.9,0,0,0-1.77,1.32,1.59,1.59,0,0,0-.09.63v4.38h-1.32V77.52Z" transform="translate(-1387.83 0.81)"/><path class="cls-2" d="M1443.62,84.78a2.33,2.33,0,0,0,2.49,2.52,4.78,4.78,0,0,0,2-.37l0.22,0.95a5.88,5.88,0,0,1-2.42.45,3.37,3.37,0,0,1-3.57-3.66c0-2.19,1.29-3.92,3.4-3.92,2.37,0,3,2.08,3,3.42a5.06,5.06,0,0,1,0,.62h-5.1Zm3.87-.95a1.88,1.88,0,0,0-1.83-2.14,2.19,2.19,0,0,0-2,2.14h3.86Z" transform="translate(-1387.83 0.81)"/><path class="cls-2" d="M1455.21,88.17V81.91h-1v-1h1V80.56a3.42,3.42,0,0,1,.84-2.54,2.52,2.52,0,0,1,1.77-.67,3.06,3.06,0,0,1,1.13.21l-0.18,1a2,2,0,0,0-.84-0.17c-1.12,0-1.41,1-1.41,2.1v0.39h1.75v1h-1.75v6.25h-1.31Z" transform="translate(-1387.83 0.81)"/><path class="cls-2" d="M1466.66,84.48a3.55,3.55,0,0,1-3.62,3.85,3.45,3.45,0,0,1-3.48-3.73,3.54,3.54,0,0,1,3.6-3.85A3.44,3.44,0,0,1,1466.66,84.48Zm-5.76.08c0,1.59.92,2.79,2.2,2.79s2.21-1.18,2.21-2.82c0-1.23-.61-2.79-2.17-2.79S1460.9,83.17,1460.9,84.55Z" transform="translate(-1387.83 0.81)"/><path class="cls-2" d="M1469,77.52h1.32V88.17H1469V77.52Z" transform="translate(-1387.83 0.81)"/><path class="cls-2" d="M1473.09,77.52h1.32V88.17h-1.32V77.52Z" transform="translate(-1387.83 0.81)"/><path class="cls-2" d="M1483.85,84.48a3.55,3.55,0,0,1-3.62,3.85,3.45,3.45,0,0,1-3.48-3.73,3.54,3.54,0,0,1,3.6-3.85A3.44,3.44,0,0,1,1483.85,84.48Zm-5.76.08c0,1.59.92,2.79,2.2,2.79s2.21-1.18,2.21-2.82c0-1.23-.61-2.79-2.17-2.79S1478.09,83.17,1478.09,84.55Z" transform="translate(-1387.83 0.81)"/><path class="cls-2" d="M1486.54,80.91l1,3.69c0.21,0.81.41,1.56,0.54,2.31h0c0.17-.74.41-1.52,0.64-2.29l1.19-3.71H1491l1.13,3.63c0.27,0.87.48,1.63,0.65,2.37h0a21.78,21.78,0,0,1,.55-2.35l1-3.65h1.3l-2.34,7.26h-1.2l-1.11-3.46a24.42,24.42,0,0,1-.65-2.38h0a21.69,21.69,0,0,1-.66,2.4l-1.17,3.45h-1.2l-2.19-7.26h1.35Z" transform="translate(-1387.83 0.81)"/><path class="cls-2" d="M1499.19,78.87a0.82,0.82,0,0,1-1.63,0,0.8,0.8,0,0,1,.83-0.82A0.78,0.78,0,0,1,1499.19,78.87Zm-1.47,9.3V80.91H1499v7.26h-1.32Z" transform="translate(-1387.83 0.81)"/><path class="cls-2" d="M1501.79,82.87c0-.75,0-1.36-0.06-2h1.17l0.08,1.2h0a2.67,2.67,0,0,1,2.4-1.37c1,0,2.56.6,2.56,3.09v4.33h-1.32V84c0-1.17-.44-2.14-1.68-2.14a1.88,1.88,0,0,0-1.77,1.35,1.91,1.91,0,0,0-.09.62v4.36h-1.32V82.87Z" transform="translate(-1387.83 0.81)"/><path class="cls-2" d="M1517,80.91c0,0.52-.06,1.11-0.06,2v4.21c0,1.66-.33,2.68-1,3.31a3.85,3.85,0,0,1-2.64.87,4.68,4.68,0,0,1-2.42-.6l0.33-1a4.09,4.09,0,0,0,2.13.57c1.35,0,2.34-.71,2.34-2.54V86.92h0a2.59,2.59,0,0,1-2.31,1.22,3.25,3.25,0,0,1-3.09-3.54c0-2.46,1.6-3.85,3.27-3.85a2.41,2.41,0,0,1,2.26,1.26h0l0.06-1.1H1517Zm-1.37,2.86a1.93,1.93,0,0,0-1.92-2c-1.26,0-2.16,1.06-2.16,2.74,0,1.43.72,2.61,2.14,2.61a1.93,1.93,0,0,0,1.83-1.35,2.29,2.29,0,0,0,.1-0.71V83.77Z" transform="translate(-1387.83 0.81)"/><path class="cls-2" d="M1525.29,78.87a0.82,0.82,0,0,1-1.63,0,0.8,0.8,0,0,1,.83-0.82A0.78,0.78,0,0,1,1525.29,78.87Zm-1.47,9.3V80.91h1.32v7.26h-1.32Z" transform="translate(-1387.83 0.81)"/><path class="cls-2" d="M1527.69,86.82a3.46,3.46,0,0,0,1.74.52,1.17,1.17,0,0,0,1.41-1.08c0-.63-0.37-1-1.35-1.33-1.3-.47-1.92-1.19-1.92-2.06a2.24,2.24,0,0,1,2.5-2.13,3.62,3.62,0,0,1,1.79.45l-0.33,1a2.82,2.82,0,0,0-1.49-.42,1.06,1.06,0,0,0-1.21,1c0,0.6.44,0.87,1.38,1.23,1.26,0.48,1.91,1.11,1.91,2.19,0,1.27-1,2.17-2.71,2.17a4.14,4.14,0,0,1-2-.5Z" transform="translate(-1387.83 0.81)"/><path class="cls-2" d="M1542.51,88.17l-0.11-.92h0a2.7,2.7,0,0,1-2.22,1.08,2.07,2.07,0,0,1-2.22-2.08c0-1.75,1.56-2.71,4.36-2.7V83.4a1.5,1.5,0,0,0-1.65-1.68,3.62,3.62,0,0,0-1.89.54l-0.3-.87a4.51,4.51,0,0,1,2.38-.65c2.22,0,2.76,1.52,2.76,3v2.71a10.24,10.24,0,0,0,.12,1.74h-1.2Zm-0.2-3.71c-1.44,0-3.08.23-3.08,1.64a1.17,1.17,0,0,0,1.25,1.26,1.81,1.81,0,0,0,1.75-1.21,1.38,1.38,0,0,0,.08-0.42V84.46Z" transform="translate(-1387.83 0.81)"/><path class="cls-2" d="M1556.67,77.52v8.77c0,0.65,0,1.38.06,1.88h-1.19l-0.06-1.26h0a2.69,2.69,0,0,1-2.47,1.42c-1.75,0-3.1-1.48-3.1-3.69,0-2.42,1.48-3.9,3.25-3.9a2.43,2.43,0,0,1,2.19,1.11h0V77.52h1.32Zm-1.32,6.34a2.34,2.34,0,0,0-.06-0.56,1.94,1.94,0,0,0-1.9-1.53c-1.37,0-2.17,1.2-2.17,2.8s0.72,2.69,2.14,2.69a2,2,0,0,0,1.93-1.58,2.29,2.29,0,0,0,.06-0.57V83.86Z" transform="translate(-1387.83 0.81)"/><path class="cls-2" d="M1560.91,78.87a0.82,0.82,0,0,1-1.63,0,0.8,0.8,0,0,1,.83-0.82A0.78,0.78,0,0,1,1560.91,78.87Zm-1.47,9.3V80.91h1.32v7.26h-1.32Z" transform="translate(-1387.83 0.81)"/><path class="cls-2" d="M1563.3,86.82a3.46,3.46,0,0,0,1.74.52,1.17,1.17,0,0,0,1.41-1.08c0-.63-0.37-1-1.35-1.33-1.3-.47-1.92-1.19-1.92-2.06a2.24,2.24,0,0,1,2.5-2.13,3.62,3.62,0,0,1,1.79.45l-0.33,1a2.82,2.82,0,0,0-1.49-.42,1.06,1.06,0,0,0-1.21,1c0,0.6.44,0.87,1.38,1.23,1.26,0.48,1.91,1.11,1.91,2.19,0,1.27-1,2.17-2.71,2.17a4.14,4.14,0,0,1-2-.5Z" transform="translate(-1387.83 0.81)"/><path class="cls-2" d="M1571.75,78.82v2.08h1.89v1h-1.89v3.92c0,0.9.25,1.41,1,1.41a2.94,2.94,0,0,0,.76-0.09l0.06,1a3.23,3.23,0,0,1-1.17.18,1.83,1.83,0,0,1-1.42-.55,2.69,2.69,0,0,1-.51-1.89v-4h-1.12v-1h1.13V79.17Z" transform="translate(-1387.83 0.81)"/><path class="cls-2" d="M1575.71,83.17c0-.85,0-1.59-0.06-2.27h1.15l0,1.42h0.06a2.18,2.18,0,0,1,2-1.59,1.44,1.44,0,0,1,.38,0V82a2,2,0,0,0-.45,0,1.85,1.85,0,0,0-1.77,1.69,3.69,3.69,0,0,0-.06.62v3.87h-1.31v-5Z" transform="translate(-1387.83 0.81)"/><path class="cls-2" d="M1582.72,78.87a0.82,0.82,0,0,1-1.63,0,0.8,0.8,0,0,1,.83-0.82A0.78,0.78,0,0,1,1582.72,78.87Zm-1.47,9.3V80.91h1.32v7.26h-1.32Z" transform="translate(-1387.83 0.81)"/><path class="cls-2" d="M1585.27,88.17c0-.5.06-1.23,0.06-1.87V77.52h1.3v4.56h0a2.7,2.7,0,0,1,2.48-1.33c1.8,0,3.07,1.5,3.06,3.71,0,2.59-1.63,3.88-3.25,3.88a2.59,2.59,0,0,1-2.43-1.37h0l-0.06,1.2h-1.14Zm1.36-2.91a2.46,2.46,0,0,0,.06.48,2,2,0,0,0,2,1.54c1.38,0,2.21-1.12,2.21-2.79,0-1.46-.75-2.7-2.16-2.7a2.1,2.1,0,0,0-2,1.62,2.65,2.65,0,0,0-.08.54v1.31Z" transform="translate(-1387.83 0.81)"/><path class="cls-2" d="M1600.59,86.19c0,0.75,0,1.41.06,2h-1.17L1599.4,87h0a2.73,2.73,0,0,1-2.4,1.35c-1.14,0-2.5-.63-2.5-3.18V80.91h1.32v4c0,1.38.42,2.31,1.62,2.31a1.86,1.86,0,0,0,1.86-1.87V80.91h1.32v5.28Z" transform="translate(-1387.83 0.81)"/><path class="cls-2" d="M1605,78.82v2.08h1.89v1H1605v3.92c0,0.9.25,1.41,1,1.41a2.94,2.94,0,0,0,.76-0.09l0.06,1a3.23,3.23,0,0,1-1.17.18,1.83,1.83,0,0,1-1.42-.55,2.69,2.69,0,0,1-.51-1.89v-4h-1.12v-1h1.13V79.17Z" transform="translate(-1387.83 0.81)"/><path class="cls-2" d="M1610.39,78.87a0.82,0.82,0,0,1-1.63,0,0.8,0.8,0,0,1,.83-0.82A0.78,0.78,0,0,1,1610.39,78.87Zm-1.47,9.3V80.91h1.32v7.26h-1.32Z" transform="translate(-1387.83 0.81)"/><path class="cls-2" d="M1619.64,84.48a3.55,3.55,0,0,1-3.62,3.85,3.45,3.45,0,0,1-3.48-3.73,3.54,3.54,0,0,1,3.6-3.85A3.44,3.44,0,0,1,1619.64,84.48Zm-5.76.08c0,1.59.92,2.79,2.2,2.79s2.21-1.18,2.21-2.82c0-1.23-.61-2.79-2.17-2.79S1613.88,83.17,1613.88,84.55Z" transform="translate(-1387.83 0.81)"/><path class="cls-2" d="M1622,82.87c0-.75,0-1.36-0.06-2h1.17l0.08,1.2h0a2.67,2.67,0,0,1,2.4-1.37c1,0,2.56.6,2.56,3.09v4.33h-1.32V84c0-1.17-.44-2.14-1.68-2.14a1.88,1.88,0,0,0-1.77,1.35,1.91,1.91,0,0,0-.09.62v4.36H1622V82.87Z" transform="translate(-1387.83 0.81)"/><path class="cls-2" d="M1641.53,84.48a3.55,3.55,0,0,1-3.62,3.85,3.45,3.45,0,0,1-3.48-3.73,3.54,3.54,0,0,1,3.6-3.85A3.44,3.44,0,0,1,1641.53,84.48Zm-5.76.08c0,1.59.92,2.79,2.2,2.79s2.21-1.18,2.21-2.82c0-1.23-.61-2.79-2.17-2.79S1635.77,83.17,1635.77,84.55Z" transform="translate(-1387.83 0.81)"/><path class="cls-2" d="M1643.93,88.17V81.91h-1v-1h1V80.56a3.42,3.42,0,0,1,.84-2.54,2.52,2.52,0,0,1,1.77-.67,3.06,3.06,0,0,1,1.13.21l-0.18,1a2,2,0,0,0-.84-0.17c-1.12,0-1.41,1-1.41,2.1v0.39H1647v1h-1.75v6.25h-1.31Z" transform="translate(-1387.83 0.81)"/><path class="cls-2" d="M1653.38,80.91l1,3.69c0.21,0.81.41,1.56,0.54,2.31h0c0.17-.74.41-1.52,0.64-2.29l1.19-3.71h1.11l1.13,3.63c0.27,0.87.48,1.63,0.65,2.37h0a21.78,21.78,0,0,1,.55-2.35l1-3.65h1.3l-2.34,7.26H1659l-1.11-3.46a24.42,24.42,0,0,1-.65-2.38h0a21.69,21.69,0,0,1-.66,2.4l-1.17,3.45h-1.2L1652,80.91h1.35Z" transform="translate(-1387.83 0.81)"/><path class="cls-2" d="M1671,84.48a3.55,3.55,0,0,1-3.62,3.85,3.45,3.45,0,0,1-3.48-3.73,3.54,3.54,0,0,1,3.6-3.85A3.44,3.44,0,0,1,1671,84.48Zm-5.76.08c0,1.59.92,2.79,2.2,2.79s2.21-1.18,2.21-2.82c0-1.23-.61-2.79-2.17-2.79S1665.23,83.17,1665.23,84.55Z" transform="translate(-1387.83 0.81)"/><path class="cls-2" d="M1673.3,83.17c0-.85,0-1.59-0.06-2.27h1.15l0,1.42h0.06a2.18,2.18,0,0,1,2-1.59,1.44,1.44,0,0,1,.38,0V82a2,2,0,0,0-.45,0,1.85,1.85,0,0,0-1.77,1.69,3.69,3.69,0,0,0-.06.62v3.87h-1.31v-5Z" transform="translate(-1387.83 0.81)"/><path class="cls-2" d="M1680.15,84.24h0c0.18-.26.44-0.57,0.65-0.83l2.13-2.5h1.59l-2.8,3,3.19,4.27h-1.6l-2.5-3.48-0.68.75v2.73h-1.3V77.52h1.3v6.72Z" transform="translate(-1387.83 0.81)"/><path class="cls-2" d="M1686.76,86.82a3.46,3.46,0,0,0,1.74.52,1.17,1.17,0,0,0,1.41-1.08c0-.63-0.37-1-1.35-1.33-1.3-.47-1.92-1.19-1.92-2.06a2.24,2.24,0,0,1,2.5-2.13,3.62,3.62,0,0,1,1.79.45l-0.33,1a2.82,2.82,0,0,0-1.49-.42,1.06,1.06,0,0,0-1.21,1c0,0.6.44,0.87,1.38,1.23,1.26,0.48,1.91,1.11,1.91,2.19,0,1.27-1,2.17-2.71,2.17a4.14,4.14,0,0,1-2-.5Z" transform="translate(-1387.83 0.81)"/><path class="cls-2" d="M1695.2,78.82v2.08h1.89v1h-1.89v3.92c0,0.9.25,1.41,1,1.41a2.94,2.94,0,0,0,.76-0.09l0.06,1a3.23,3.23,0,0,1-1.17.18,1.83,1.83,0,0,1-1.42-.55,2.69,2.69,0,0,1-.51-1.89v-4h-1.12v-1h1.13V79.17Z" transform="translate(-1387.83 0.81)"/><path class="cls-2" d="M1700.1,80.91l1.59,4.29c0.17,0.48.34,1,.46,1.48h0c0.13-.44.29-1,0.46-1.52l1.44-4.26h1.4l-2,5.17c-0.94,2.49-1.59,3.76-2.49,4.54a3.58,3.58,0,0,1-1.62.85l-0.33-1.11a3.5,3.5,0,0,0,1.16-.65,4,4,0,0,0,1.11-1.47,0.93,0.93,0,0,0,.11-0.31,1.16,1.16,0,0,0-.09-0.34l-2.69-6.69h1.44Z" transform="translate(-1387.83 0.81)"/><path class="cls-2" d="M1707.39,77.52h1.32V88.17h-1.32V77.52Z" transform="translate(-1387.83 0.81)"/><path class="cls-2" d="M1712.32,84.78a2.33,2.33,0,0,0,2.49,2.52,4.78,4.78,0,0,0,2-.37l0.22,0.95a5.88,5.88,0,0,1-2.42.45,3.37,3.37,0,0,1-3.57-3.66c0-2.19,1.29-3.92,3.4-3.92,2.37,0,3,2.08,3,3.42a5.06,5.06,0,0,1,0,.62h-5.1Zm3.87-.95a1.88,1.88,0,0,0-1.83-2.14,2.19,2.19,0,0,0-2,2.14h3.86Z" transform="translate(-1387.83 0.81)"/><path class="cls-2" d="M1719.51,86.82a3.46,3.46,0,0,0,1.74.52,1.17,1.17,0,0,0,1.41-1.08c0-.63-0.37-1-1.35-1.33-1.3-.47-1.92-1.19-1.92-2.06a2.24,2.24,0,0,1,2.5-2.13,3.62,3.62,0,0,1,1.79.45l-0.33,1a2.82,2.82,0,0,0-1.49-.42,1.06,1.06,0,0,0-1.21,1c0,0.6.44,0.87,1.38,1.23,1.26,0.48,1.91,1.11,1.91,2.19,0,1.27-1,2.17-2.71,2.17a4.14,4.14,0,0,1-2-.5Z" transform="translate(-1387.83 0.81)"/><path class="cls-2" d="M1734.33,88.17l-0.11-.92h0a2.7,2.7,0,0,1-2.22,1.08,2.07,2.07,0,0,1-2.22-2.08c0-1.75,1.56-2.71,4.36-2.7V83.4a1.5,1.5,0,0,0-1.65-1.68,3.62,3.62,0,0,0-1.89.54l-0.3-.87a4.51,4.51,0,0,1,2.38-.65c2.22,0,2.76,1.52,2.76,3v2.71a10.24,10.24,0,0,0,.12,1.74h-1.2Zm-0.2-3.71c-1.44,0-3.08.23-3.08,1.64a1.17,1.17,0,0,0,1.25,1.26,1.81,1.81,0,0,0,1.75-1.21,1.38,1.38,0,0,0,.08-0.42V84.46Z" transform="translate(-1387.83 0.81)"/><path class="cls-2" d="M1743.34,87.9a4.86,4.86,0,0,1-2.08.42,3.45,3.45,0,0,1-3.61-3.7,3.69,3.69,0,0,1,3.9-3.85,4.41,4.41,0,0,1,1.83.38l-0.3,1a3.06,3.06,0,0,0-1.53-.35,2.74,2.74,0,0,0,0,5.46,3.75,3.75,0,0,0,1.62-.36Z" transform="translate(-1387.83 0.81)"/><path class="cls-2" d="M1745.45,83.17c0-.85,0-1.59-0.06-2.27h1.15l0,1.42h0.06a2.18,2.18,0,0,1,2-1.59,1.44,1.44,0,0,1,.38,0V82a2,2,0,0,0-.45,0,1.85,1.85,0,0,0-1.77,1.69,3.69,3.69,0,0,0-.06.62v3.87h-1.3v-5Z" transform="translate(-1387.83 0.81)"/><path class="cls-2" d="M1757.49,84.48a3.55,3.55,0,0,1-3.62,3.85,3.45,3.45,0,0,1-3.48-3.73,3.54,3.54,0,0,1,3.6-3.85A3.44,3.44,0,0,1,1757.49,84.48Zm-5.76.08c0,1.59.92,2.79,2.2,2.79s2.21-1.18,2.21-2.82c0-1.23-.61-2.79-2.17-2.79S1751.73,83.17,1751.73,84.55Z" transform="translate(-1387.83 0.81)"/><path class="cls-2" d="M1759.53,86.82a3.46,3.46,0,0,0,1.74.52,1.17,1.17,0,0,0,1.41-1.08c0-.63-0.37-1-1.35-1.33-1.3-.47-1.92-1.19-1.92-2.06a2.24,2.24,0,0,1,2.5-2.13,3.62,3.62,0,0,1,1.79.45l-0.33,1a2.82,2.82,0,0,0-1.49-.42,1.06,1.06,0,0,0-1.21,1c0,0.6.44,0.87,1.38,1.23,1.26,0.48,1.91,1.11,1.91,2.19,0,1.27-1,2.17-2.71,2.17a4.14,4.14,0,0,1-2-.5Z" transform="translate(-1387.83 0.81)"/><path class="cls-2" d="M1766,86.82a3.46,3.46,0,0,0,1.74.52,1.17,1.17,0,0,0,1.41-1.08c0-.63-0.37-1-1.35-1.33-1.3-.47-1.92-1.19-1.92-2.06a2.24,2.24,0,0,1,2.5-2.13,3.62,3.62,0,0,1,1.79.45l-0.33,1a2.82,2.82,0,0,0-1.49-.42,1.06,1.06,0,0,0-1.21,1c0,0.6.44,0.87,1.38,1.23,1.26,0.48,1.91,1.11,1.91,2.19,0,1.27-1,2.17-2.71,2.17a4.14,4.14,0,0,1-2-.5Z" transform="translate(-1387.83 0.81)"/><path class="cls-2" d="M1776.86,88.17V78.06h1.42l3.24,5.11a28.65,28.65,0,0,1,1.82,3.28l0,0c-0.12-1.35-.15-2.58-0.15-4.15V78.06h1.23V88.17h-1.32L1779.92,83a32.2,32.2,0,0,1-1.89-3.37l0,0c0.08,1.27.11,2.49,0.11,4.17v4.32h-1.23Z" transform="translate(-1387.83 0.81)"/><path class="cls-2" d="M1794,84.48a3.55,3.55,0,0,1-3.62,3.85,3.45,3.45,0,0,1-3.48-3.73,3.54,3.54,0,0,1,3.6-3.85A3.44,3.44,0,0,1,1794,84.48Zm-5.76.08c0,1.59.92,2.79,2.2,2.79s2.21-1.18,2.21-2.82c0-1.23-.61-2.79-2.17-2.79S1788.21,83.17,1788.21,84.55Z" transform="translate(-1387.83 0.81)"/><path class="cls-2" d="M1796.28,83.17c0-.85,0-1.59-0.06-2.27h1.15l0,1.42h0.06a2.18,2.18,0,0,1,2-1.59,1.44,1.44,0,0,1,.38,0V82a2,2,0,0,0-.45,0,1.85,1.85,0,0,0-1.77,1.69,3.69,3.69,0,0,0-.06.62v3.87h-1.3v-5Z" transform="translate(-1387.83 0.81)"/><path class="cls-2" d="M1803.83,78.82v2.08h1.89v1h-1.89v3.92c0,0.9.25,1.41,1,1.41a2.94,2.94,0,0,0,.76-0.09l0.06,1a3.23,3.23,0,0,1-1.17.18,1.83,1.83,0,0,1-1.42-.55,2.69,2.69,0,0,1-.51-1.89v-4h-1.12v-1h1.13V79.17Z" transform="translate(-1387.83 0.81)"/><path class="cls-2" d="M1807.76,77.52h1.32V82h0a2.45,2.45,0,0,1,.94-0.93,2.72,2.72,0,0,1,1.35-.37c1,0,2.53.6,2.53,3.1v4.32h-1.32V84c0-1.17-.44-2.16-1.68-2.16a1.9,1.9,0,0,0-1.77,1.32,1.59,1.59,0,0,0-.09.63v4.38h-1.32V77.52Z" transform="translate(-1387.83 0.81)"/><path class="cls-2" d="M1822.45,85l-1,3.18H1820l3.43-10.11h1.58l3.45,10.11h-1.4L1826,85h-3.58Zm3.32-1-1-2.91c-0.22-.66-0.37-1.26-0.52-1.84h0c-0.15.6-.32,1.21-0.51,1.83l-1,2.92h3Z" transform="translate(-1387.83 0.81)"/><path class="cls-2" d="M1830.53,82.87c0-.75,0-1.36-0.06-2h1.15l0.06,1.17h0a2.5,2.5,0,0,1,2.28-1.33,2.15,2.15,0,0,1,2.05,1.46h0a3,3,0,0,1,.81-0.94,2.48,2.48,0,0,1,1.6-.51c1,0,2.39.63,2.39,3.15v4.27h-1.29V84.06c0-1.4-.51-2.23-1.58-2.23a1.71,1.71,0,0,0-1.56,1.2,2.16,2.16,0,0,0-.11.66v4.48h-1.29V83.82c0-1.16-.51-2-1.51-2a2,2,0,0,0-1.74,2v4.38h-1.29V82.87Z" transform="translate(-1387.83 0.81)"/><path class="cls-2" d="M1844.45,84.78a2.33,2.33,0,0,0,2.49,2.52,4.78,4.78,0,0,0,2-.37l0.22,0.95a5.88,5.88,0,0,1-2.42.45,3.37,3.37,0,0,1-3.57-3.66c0-2.19,1.29-3.92,3.4-3.92,2.37,0,3,2.08,3,3.42a5.06,5.06,0,0,1,0,.62h-5.1Zm3.87-.95a1.88,1.88,0,0,0-1.83-2.14,2.19,2.19,0,0,0-2,2.14h3.86Z" transform="translate(-1387.83 0.81)"/><path class="cls-2" d="M1851.87,83.17c0-.85,0-1.59-0.06-2.27H1853l0,1.42h0.06a2.18,2.18,0,0,1,2-1.59,1.44,1.44,0,0,1,.38,0V82a2,2,0,0,0-.45,0,1.85,1.85,0,0,0-1.77,1.69,3.69,3.69,0,0,0-.06.62v3.87h-1.3v-5Z" transform="translate(-1387.83 0.81)"/><path class="cls-2" d="M1858.89,78.87a0.82,0.82,0,0,1-1.63,0,0.8,0.8,0,0,1,.83-0.82A0.78,0.78,0,0,1,1858.89,78.87Zm-1.47,9.3V80.91h1.32v7.26h-1.32Z" transform="translate(-1387.83 0.81)"/><path class="cls-2" d="M1866.71,87.9a4.86,4.86,0,0,1-2.08.42,3.45,3.45,0,0,1-3.61-3.7,3.69,3.69,0,0,1,3.9-3.85,4.41,4.41,0,0,1,1.83.38l-0.3,1a3.06,3.06,0,0,0-1.53-.35,2.74,2.74,0,0,0,0,5.46,3.75,3.75,0,0,0,1.62-.36Z" transform="translate(-1387.83 0.81)"/><path class="cls-2" d="M1873,88.17l-0.11-.92h0a2.7,2.7,0,0,1-2.22,1.08,2.07,2.07,0,0,1-2.22-2.08c0-1.75,1.56-2.71,4.36-2.7V83.4a1.5,1.5,0,0,0-1.65-1.68,3.62,3.62,0,0,0-1.89.54l-0.3-.87a4.51,4.51,0,0,1,2.38-.65c2.22,0,2.76,1.52,2.76,3v2.71a10.24,10.24,0,0,0,.12,1.74H1873Zm-0.2-3.71c-1.44,0-3.08.23-3.08,1.64a1.17,1.17,0,0,0,1.25,1.26,1.81,1.81,0,0,0,1.75-1.21,1.38,1.38,0,0,0,.08-0.42V84.46Z" transform="translate(-1387.83 0.81)"/><path class="cls-2" d="M1876.55,87.39a0.89,0.89,0,0,1,.9-0.95A0.95,0.95,0,1,1,1876.55,87.39Z" transform="translate(-1387.83 0.81)"/><path class="cls-2" d="M1886.95,88.17V83.88l-3.19-5.82h1.48l1.42,2.79c0.39,0.77.69,1.38,1,2.08h0c0.29-.66.63-1.32,1-2.08l1.45-2.79h1.49l-3.39,5.8v4.3h-1.32Z" transform="translate(-1387.83 0.81)"/><path class="cls-2" d="M1899,84.48a3.55,3.55,0,0,1-3.62,3.85,3.45,3.45,0,0,1-3.48-3.73,3.54,3.54,0,0,1,3.6-3.85A3.44,3.44,0,0,1,1899,84.48Zm-5.76.08c0,1.59.92,2.79,2.2,2.79s2.21-1.18,2.21-2.82c0-1.23-.61-2.79-2.17-2.79S1893.28,83.17,1893.28,84.55Z" transform="translate(-1387.83 0.81)"/><path class="cls-2" d="M1907.42,86.19c0,0.75,0,1.41.06,2h-1.17L1906.24,87h0a2.73,2.73,0,0,1-2.4,1.35c-1.14,0-2.5-.63-2.5-3.18V80.91h1.32v4c0,1.38.42,2.31,1.62,2.31a1.86,1.86,0,0,0,1.86-1.87V80.91h1.32v5.28Z" transform="translate(-1387.83 0.81)"/><path class="cls-2" d="M1910.2,83.17c0-.85,0-1.59-0.06-2.27h1.15l0,1.42h0.06a2.18,2.18,0,0,1,2-1.59,1.44,1.44,0,0,1,.38,0V82a2,2,0,0,0-.45,0,1.85,1.85,0,0,0-1.77,1.69,3.69,3.69,0,0,0-.06.62v3.87h-1.31v-5Z" transform="translate(-1387.83 0.81)"/><path class="cls-2" d="M1430.86,107.9a4.86,4.86,0,0,1-2.08.42,3.45,3.45,0,0,1-3.61-3.7,3.69,3.69,0,0,1,3.9-3.85,4.41,4.41,0,0,1,1.83.38l-0.3,1a3.06,3.06,0,0,0-1.53-.35,2.74,2.74,0,0,0,0,5.46,3.75,3.75,0,0,0,1.62-.36Z" transform="translate(-1387.83 0.81)"/><path class="cls-2" d="M1439.4,104.48a3.55,3.55,0,0,1-3.62,3.85,3.45,3.45,0,0,1-3.48-3.73,3.54,3.54,0,0,1,3.6-3.85A3.44,3.44,0,0,1,1439.4,104.48Zm-5.76.08c0,1.59.92,2.79,2.2,2.79s2.21-1.18,2.21-2.82c0-1.23-.61-2.79-2.17-2.79S1433.64,103.17,1433.64,104.55Z" transform="translate(-1387.83 0.81)"/><path class="cls-2" d="M1441.72,102.87c0-.75,0-1.36-0.06-2h1.15l0.06,1.17h0a2.5,2.5,0,0,1,2.28-1.33,2.15,2.15,0,0,1,2.05,1.46h0a3,3,0,0,1,.81-0.94,2.48,2.48,0,0,1,1.6-.51c1,0,2.39.63,2.39,3.15v4.27h-1.29v-4.11c0-1.4-.51-2.23-1.58-2.23a1.71,1.71,0,0,0-1.56,1.2,2.16,2.16,0,0,0-.11.66v4.48h-1.29v-4.35c0-1.16-.51-2-1.51-2a2,2,0,0,0-1.74,2v4.38h-1.29v-5.29Z" transform="translate(-1387.83 0.81)"/><path class="cls-2" d="M1454.81,103.28c0-.93,0-1.68-0.06-2.37h1.18l0.06,1.25h0a2.85,2.85,0,0,1,2.58-1.41c1.75,0,3.08,1.48,3.08,3.69,0,2.61-1.59,3.9-3.3,3.9a2.55,2.55,0,0,1-2.24-1.14h0v3.94h-1.3v-7.86Zm1.3,1.93a2.94,2.94,0,0,0,.06.54,2,2,0,0,0,2,1.54c1.4,0,2.21-1.14,2.21-2.8,0-1.46-.76-2.7-2.16-2.7a2.11,2.11,0,0,0-2,1.63,2.14,2.14,0,0,0-.09.54v1.24Z" transform="translate(-1387.83 0.81)"/><path class="cls-2" d="M1468.06,108.17l-0.11-.92h0a2.7,2.7,0,0,1-2.22,1.08,2.07,2.07,0,0,1-2.22-2.08c0-1.75,1.56-2.71,4.36-2.7V103.4a1.5,1.5,0,0,0-1.65-1.68,3.62,3.62,0,0,0-1.89.54l-0.3-.87a4.51,4.51,0,0,1,2.38-.65c2.22,0,2.76,1.52,2.76,3v2.71a10.24,10.24,0,0,0,.12,1.74h-1.2Zm-0.2-3.71c-1.44,0-3.08.23-3.08,1.64a1.17,1.17,0,0,0,1.25,1.26,1.81,1.81,0,0,0,1.75-1.21,1.38,1.38,0,0,0,.08-0.42v-1.26Z" transform="translate(-1387.83 0.81)"/><path class="cls-2" d="M1471.85,102.87c0-.75,0-1.36-0.06-2H1473l0.08,1.2h0a2.67,2.67,0,0,1,2.4-1.37c1,0,2.56.6,2.56,3.09v4.33h-1.32V104c0-1.17-.44-2.14-1.68-2.14a1.88,1.88,0,0,0-1.77,1.35,1.91,1.91,0,0,0-.09.62v4.36h-1.32v-5.29Z" transform="translate(-1387.83 0.81)"/><path class="cls-2" d="M1481,100.91l1.59,4.29c0.17,0.48.34,1,.46,1.48h0c0.13-.44.29-1,0.46-1.52l1.44-4.26h1.4l-2,5.17c-0.94,2.49-1.59,3.76-2.49,4.54a3.58,3.58,0,0,1-1.62.85l-0.33-1.11a3.5,3.5,0,0,0,1.16-.65,4,4,0,0,0,1.11-1.47,0.93,0.93,0,0,0,.11-0.31,1.16,1.16,0,0,0-.09-0.34l-2.69-6.69H1481Z" transform="translate(-1387.83 0.81)"/><path class="cls-2" d="M1492.28,97.52h1.32V102h0a2.45,2.45,0,0,1,.94-0.93,2.72,2.72,0,0,1,1.35-.37c1,0,2.53.6,2.53,3.1v4.32h-1.32V104c0-1.17-.44-2.16-1.68-2.16a1.9,1.9,0,0,0-1.77,1.32,1.59,1.59,0,0,0-.09.63v4.38h-1.32V97.52Z" transform="translate(-1387.83 0.81)"/><path class="cls-2" d="M1505.21,108.17l-0.11-.92h0a2.7,2.7,0,0,1-2.22,1.08,2.07,2.07,0,0,1-2.22-2.08c0-1.75,1.56-2.71,4.36-2.7V103.4a1.5,1.5,0,0,0-1.65-1.68,3.62,3.62,0,0,0-1.89.54l-0.3-.87a4.51,4.51,0,0,1,2.38-.65c2.22,0,2.76,1.52,2.76,3v2.71a10.24,10.24,0,0,0,.12,1.74h-1.2Zm-0.2-3.71c-1.44,0-3.08.23-3.08,1.64a1.17,1.17,0,0,0,1.25,1.26,1.81,1.81,0,0,0,1.75-1.21,1.38,1.38,0,0,0,.08-0.42v-1.26Z" transform="translate(-1387.83 0.81)"/><path class="cls-2" d="M1508.78,106.82a3.46,3.46,0,0,0,1.74.52,1.17,1.17,0,0,0,1.41-1.08c0-.63-0.37-1-1.35-1.33-1.3-.47-1.92-1.19-1.92-2.06a2.24,2.24,0,0,1,2.5-2.13,3.62,3.62,0,0,1,1.79.45l-0.33,1a2.82,2.82,0,0,0-1.49-.42,1.06,1.06,0,0,0-1.21,1c0,0.6.44,0.87,1.38,1.23,1.26,0.48,1.91,1.11,1.91,2.19,0,1.27-1,2.17-2.71,2.17a4.14,4.14,0,0,1-2-.5Z" transform="translate(-1387.83 0.81)"/><path class="cls-2" d="M1521.05,98.87a0.82,0.82,0,0,1-1.63,0,0.8,0.8,0,0,1,.83-0.82A0.78,0.78,0,0,1,1521.05,98.87Zm-1.47,9.3v-7.26h1.32v7.26h-1.32Z" transform="translate(-1387.83 0.81)"/><path class="cls-2" d="M1525.29,98.82v2.08h1.89v1h-1.89v3.92c0,0.9.25,1.41,1,1.41a2.94,2.94,0,0,0,.76-0.09l0.06,1a3.23,3.23,0,0,1-1.17.18,1.83,1.83,0,0,1-1.42-.55,2.69,2.69,0,0,1-.51-1.89v-4h-1.12v-1H1524V99.17Z" transform="translate(-1387.83 0.81)"/><path class="cls-2" d="M1529.25,106.82a3.46,3.46,0,0,0,1.74.52,1.17,1.17,0,0,0,1.41-1.08c0-.63-0.37-1-1.35-1.33-1.3-.47-1.92-1.19-1.92-2.06a2.24,2.24,0,0,1,2.5-2.13,3.62,3.62,0,0,1,1.79.45l-0.33,1a2.82,2.82,0,0,0-1.49-.42,1.06,1.06,0,0,0-1.21,1c0,0.6.44,0.87,1.38,1.23,1.26,0.48,1.91,1.11,1.91,2.19,0,1.27-1,2.17-2.71,2.17a4.14,4.14,0,0,1-2-.5Z" transform="translate(-1387.83 0.81)"/><path class="cls-2" d="M1546.62,104.48a3.55,3.55,0,0,1-3.62,3.85,3.45,3.45,0,0,1-3.48-3.73,3.54,3.54,0,0,1,3.6-3.85A3.44,3.44,0,0,1,1546.62,104.48Zm-5.76.08c0,1.59.92,2.79,2.2,2.79s2.21-1.18,2.21-2.82c0-1.23-.61-2.79-2.17-2.79S1540.86,103.17,1540.86,104.55Z" transform="translate(-1387.83 0.81)"/><path class="cls-2" d="M1549.31,100.91l1,3.69c0.21,0.81.41,1.56,0.54,2.31h0c0.17-.74.41-1.52,0.64-2.29l1.19-3.71h1.11l1.13,3.63c0.27,0.87.48,1.63,0.65,2.37h0a21.78,21.78,0,0,1,.55-2.35l1-3.65h1.3l-2.34,7.26H1555l-1.11-3.46a24.42,24.42,0,0,1-.65-2.38h0a21.69,21.69,0,0,1-.66,2.4l-1.17,3.45h-1.2l-2.19-7.26h1.35Z" transform="translate(-1387.83 0.81)"/><path class="cls-2" d="M1560.52,102.87c0-.75,0-1.36-0.06-2h1.17l0.08,1.2h0a2.67,2.67,0,0,1,2.4-1.37c1,0,2.56.6,2.56,3.09v4.33h-1.32V104c0-1.17-.44-2.14-1.68-2.14a1.88,1.88,0,0,0-1.77,1.35,1.91,1.91,0,0,0-.09.62v4.36h-1.32v-5.29Z" transform="translate(-1387.83 0.81)"/><path class="cls-2" d="M1574,100.91l1,3.69c0.21,0.81.41,1.56,0.54,2.31h0c0.17-.74.41-1.52,0.64-2.29l1.19-3.71h1.11l1.13,3.63c0.27,0.87.48,1.63,0.65,2.37h0a21.78,21.78,0,0,1,.55-2.35l1-3.65h1.3l-2.34,7.26h-1.2l-1.11-3.46a24.42,24.42,0,0,1-.65-2.38h0a21.69,21.69,0,0,1-.66,2.4l-1.17,3.45h-1.2l-2.19-7.26H1574Z" transform="translate(-1387.83 0.81)"/><path class="cls-2" d="M1591.65,104.48a3.55,3.55,0,0,1-3.62,3.85,3.45,3.45,0,0,1-3.48-3.73,3.54,3.54,0,0,1,3.6-3.85A3.44,3.44,0,0,1,1591.65,104.48Zm-5.76.08c0,1.59.92,2.79,2.2,2.79s2.21-1.18,2.21-2.82c0-1.23-.61-2.79-2.17-2.79S1585.89,103.17,1585.89,104.55Z" transform="translate(-1387.83 0.81)"/><path class="cls-2" d="M1594,103.17c0-.85,0-1.59-0.06-2.27h1.15l0,1.42h0.06a2.18,2.18,0,0,1,2-1.59,1.44,1.44,0,0,1,.38,0V102a2,2,0,0,0-.45,0,1.85,1.85,0,0,0-1.77,1.69,3.69,3.69,0,0,0-.06.62v3.87H1594v-5Z" transform="translate(-1387.83 0.81)"/><path class="cls-2" d="M1600.82,104.24h0c0.18-.26.44-0.57,0.65-0.83l2.13-2.5h1.59l-2.8,3,3.19,4.27H1604l-2.5-3.48-0.68.75v2.73h-1.3V97.52h1.3v6.72Z" transform="translate(-1387.83 0.81)"/><path class="cls-2" d="M1607.42,106.82a3.46,3.46,0,0,0,1.74.52,1.17,1.17,0,0,0,1.41-1.08c0-.63-0.37-1-1.35-1.33-1.3-.47-1.92-1.19-1.92-2.06a2.24,2.24,0,0,1,2.5-2.13,3.62,3.62,0,0,1,1.79.45l-0.33,1a2.82,2.82,0,0,0-1.49-.42,1.06,1.06,0,0,0-1.21,1c0,0.6.44,0.87,1.38,1.23,1.26,0.48,1.91,1.11,1.91,2.19,0,1.27-1,2.17-2.71,2.17a4.14,4.14,0,0,1-2-.5Z" transform="translate(-1387.83 0.81)"/><path class="cls-2" d="M1615.87,98.82v2.08h1.89v1h-1.89v3.92c0,0.9.25,1.41,1,1.41a2.94,2.94,0,0,0,.76-0.09l0.06,1a3.23,3.23,0,0,1-1.17.18,1.83,1.83,0,0,1-1.42-.55,2.69,2.69,0,0,1-.51-1.89v-4h-1.12v-1h1.13V99.17Z" transform="translate(-1387.83 0.81)"/><path class="cls-2" d="M1620.76,100.91l1.59,4.29c0.17,0.48.34,1,.46,1.48h0c0.13-.44.29-1,0.46-1.52l1.44-4.26h1.4l-2,5.17c-0.94,2.49-1.59,3.76-2.49,4.54a3.58,3.58,0,0,1-1.62.85l-0.33-1.11a3.5,3.5,0,0,0,1.16-.65,4,4,0,0,0,1.11-1.47,0.93,0.93,0,0,0,.11-0.31,1.16,1.16,0,0,0-.09-0.34l-2.69-6.69h1.44Z" transform="translate(-1387.83 0.81)"/><path class="cls-2" d="M1628.06,97.52h1.32v10.65h-1.32V97.52Z" transform="translate(-1387.83 0.81)"/><path class="cls-2" d="M1633,104.78a2.33,2.33,0,0,0,2.49,2.52,4.78,4.78,0,0,0,2-.37l0.22,0.95a5.88,5.88,0,0,1-2.42.45,3.37,3.37,0,0,1-3.57-3.66c0-2.19,1.29-3.92,3.4-3.92,2.37,0,3,2.08,3,3.42a5.06,5.06,0,0,1,0,.62H1633Zm3.87-.95a1.88,1.88,0,0,0-1.83-2.14,2.19,2.19,0,0,0-2,2.14h3.86Z" transform="translate(-1387.83 0.81)"/><path class="cls-2" d="M1650.71,97.52v8.77c0,0.65,0,1.38.06,1.88h-1.18l-0.06-1.26h0a2.69,2.69,0,0,1-2.47,1.42c-1.75,0-3.1-1.48-3.1-3.69,0-2.42,1.48-3.9,3.25-3.9a2.43,2.43,0,0,1,2.19,1.11h0V97.52h1.32Zm-1.32,6.34a2.34,2.34,0,0,0-.06-0.56,1.94,1.94,0,0,0-1.9-1.53c-1.37,0-2.17,1.2-2.17,2.8s0.72,2.69,2.14,2.69a2,2,0,0,0,1.93-1.58,2.29,2.29,0,0,0,.06-0.57v-1.26Z" transform="translate(-1387.83 0.81)"/><path class="cls-2" d="M1655,98.87a0.82,0.82,0,0,1-1.63,0,0.8,0.8,0,0,1,.83-0.82A0.78,0.78,0,0,1,1655,98.87Zm-1.47,9.3v-7.26h1.32v7.26h-1.32Z" transform="translate(-1387.83 0.81)"/><path class="cls-2" d="M1657.35,106.82a3.46,3.46,0,0,0,1.74.52,1.17,1.17,0,0,0,1.41-1.08c0-.63-0.37-1-1.35-1.33-1.3-.47-1.92-1.19-1.92-2.06a2.24,2.24,0,0,1,2.5-2.13,3.62,3.62,0,0,1,1.79.45l-0.33,1a2.82,2.82,0,0,0-1.49-.42,1.06,1.06,0,0,0-1.21,1c0,0.6.44,0.87,1.38,1.23,1.26,0.48,1.91,1.11,1.91,2.19,0,1.27-1,2.17-2.71,2.17a4.14,4.14,0,0,1-2-.5Z" transform="translate(-1387.83 0.81)"/><path class="cls-2" d="M1665.79,98.82v2.08h1.89v1h-1.89v3.92c0,0.9.25,1.41,1,1.41a2.94,2.94,0,0,0,.76-0.09l0.06,1a3.23,3.23,0,0,1-1.17.18,1.83,1.83,0,0,1-1.42-.55,2.69,2.69,0,0,1-.51-1.89v-4h-1.12v-1h1.13V99.17Z" transform="translate(-1387.83 0.81)"/><path class="cls-2" d="M1669.76,103.17c0-.85,0-1.59-0.06-2.27h1.15l0,1.42H1671a2.18,2.18,0,0,1,2-1.59,1.44,1.44,0,0,1,.38,0V102a2,2,0,0,0-.45,0,1.85,1.85,0,0,0-1.77,1.69,3.69,3.69,0,0,0-.06.62v3.87h-1.31v-5Z" transform="translate(-1387.83 0.81)"/><path class="cls-2" d="M1676.77,98.87a0.82,0.82,0,0,1-1.63,0A0.8,0.8,0,0,1,1676,98,0.78,0.78,0,0,1,1676.77,98.87Zm-1.47,9.3v-7.26h1.32v7.26h-1.32Z" transform="translate(-1387.83 0.81)"/><path class="cls-2" d="M1679.32,108.17c0-.5.06-1.23,0.06-1.87V97.52h1.31v4.56h0a2.7,2.7,0,0,1,2.48-1.33c1.8,0,3.07,1.5,3.06,3.71,0,2.59-1.63,3.88-3.25,3.88a2.59,2.59,0,0,1-2.43-1.37h0l-0.06,1.2h-1.14Zm1.37-2.91a2.46,2.46,0,0,0,.06.48,2,2,0,0,0,2,1.54c1.38,0,2.21-1.12,2.21-2.79,0-1.46-.75-2.7-2.16-2.7a2.1,2.1,0,0,0-2,1.62,2.65,2.65,0,0,0-.07.54v1.31Z" transform="translate(-1387.83 0.81)"/><path class="cls-2" d="M1694.64,106.19c0,0.75,0,1.41.06,2h-1.17l-0.08-1.19h0a2.73,2.73,0,0,1-2.4,1.35c-1.14,0-2.5-.63-2.5-3.18v-4.25h1.32v4c0,1.38.42,2.31,1.62,2.31a1.86,1.86,0,0,0,1.86-1.87v-4.46h1.32v5.28Z" transform="translate(-1387.83 0.81)"/><path class="cls-2" d="M1699,98.82v2.08h1.89v1H1699v3.92c0,0.9.25,1.41,1,1.41a2.94,2.94,0,0,0,.76-0.09l0.06,1a3.23,3.23,0,0,1-1.17.18,1.83,1.83,0,0,1-1.42-.55,2.69,2.69,0,0,1-.51-1.89v-4h-1.12v-1h1.13V99.17Z" transform="translate(-1387.83 0.81)"/><path class="cls-2" d="M1704.44,98.87a0.82,0.82,0,0,1-1.63,0,0.8,0.8,0,0,1,.83-0.82A0.78,0.78,0,0,1,1704.44,98.87Zm-1.47,9.3v-7.26h1.32v7.26H1703Z" transform="translate(-1387.83 0.81)"/><path class="cls-2" d="M1713.69,104.48a3.55,3.55,0,0,1-3.62,3.85,3.45,3.45,0,0,1-3.48-3.73,3.54,3.54,0,0,1,3.6-3.85A3.44,3.44,0,0,1,1713.69,104.48Zm-5.76.08c0,1.59.92,2.79,2.2,2.79s2.21-1.18,2.21-2.82c0-1.23-.61-2.79-2.17-2.79S1707.93,103.17,1707.93,104.55Z" transform="translate(-1387.83 0.81)"/><path class="cls-2" d="M1716,102.87c0-.75,0-1.36-0.06-2h1.17l0.08,1.2h0a2.67,2.67,0,0,1,2.4-1.37c1,0,2.56.6,2.56,3.09v4.33h-1.32V104c0-1.17-.44-2.14-1.68-2.14a1.88,1.88,0,0,0-1.77,1.35,1.91,1.91,0,0,0-.09.62v4.36H1716v-5.29Z" transform="translate(-1387.83 0.81)"/><path class="cls-2" d="M1728.24,103.62v1h-3.71v-1h3.71Z" transform="translate(-1387.83 0.81)"/><path class="cls-2" d="M1734.28,106.82a3.46,3.46,0,0,0,1.74.52,1.17,1.17,0,0,0,1.41-1.08c0-.63-0.37-1-1.35-1.33-1.3-.47-1.92-1.19-1.92-2.06a2.24,2.24,0,0,1,2.5-2.13,3.62,3.62,0,0,1,1.79.45l-0.33,1a2.82,2.82,0,0,0-1.49-.42,1.06,1.06,0,0,0-1.21,1c0,0.6.44,0.87,1.38,1.23,1.26,0.48,1.91,1.11,1.91,2.19,0,1.27-1,2.17-2.71,2.17a4.14,4.14,0,0,1-2-.5Z" transform="translate(-1387.83 0.81)"/><path class="cls-2" d="M1741.81,104.78a2.33,2.33,0,0,0,2.49,2.52,4.78,4.78,0,0,0,2-.37l0.22,0.95a5.88,5.88,0,0,1-2.42.45,3.37,3.37,0,0,1-3.57-3.66c0-2.19,1.29-3.92,3.4-3.92,2.37,0,3,2.08,3,3.42a5.06,5.06,0,0,1,0,.62h-5.1Zm3.87-.95a1.88,1.88,0,0,0-1.83-2.14,2.19,2.19,0,0,0-2,2.14h3.86Z" transform="translate(-1387.83 0.81)"/><path class="cls-2" d="M1750.07,104.78a2.33,2.33,0,0,0,2.49,2.52,4.78,4.78,0,0,0,2-.37l0.22,0.95a5.88,5.88,0,0,1-2.42.45,3.37,3.37,0,0,1-3.57-3.66c0-2.19,1.29-3.92,3.4-3.92,2.37,0,3,2.08,3,3.42a5.06,5.06,0,0,1,0,.62h-5.1Zm3.87-.95a1.88,1.88,0,0,0-1.83-2.14,2.19,2.19,0,0,0-2,2.14h3.86Z" transform="translate(-1387.83 0.81)"/><path class="cls-2" d="M1763.12,98.82v2.08H1765v1h-1.89v3.92c0,0.9.25,1.41,1,1.41a2.94,2.94,0,0,0,.76-0.09l0.06,1a3.23,3.23,0,0,1-1.17.18,1.83,1.83,0,0,1-1.42-.55,2.69,2.69,0,0,1-.51-1.89v-4h-1.12v-1h1.13V99.17Z" transform="translate(-1387.83 0.81)"/><path class="cls-2" d="M1767.05,97.52h1.32V102h0a2.45,2.45,0,0,1,.94-0.93,2.72,2.72,0,0,1,1.35-.37c1,0,2.53.6,2.53,3.1v4.32h-1.32V104c0-1.17-.44-2.16-1.68-2.16a1.9,1.9,0,0,0-1.77,1.32,1.59,1.59,0,0,0-.09.63v4.38h-1.32V97.52Z" transform="translate(-1387.83 0.81)"/><path class="cls-2" d="M1776.78,104.78a2.33,2.33,0,0,0,2.49,2.52,4.78,4.78,0,0,0,2-.37l0.22,0.95a5.88,5.88,0,0,1-2.42.45,3.37,3.37,0,0,1-3.57-3.66c0-2.19,1.29-3.92,3.4-3.92,2.37,0,3,2.08,3,3.42a5.06,5.06,0,0,1,0,.62h-5.1Zm3.87-.95a1.88,1.88,0,0,0-1.83-2.14,2.19,2.19,0,0,0-2,2.14h3.86Z" transform="translate(-1387.83 0.81)"/><path class="cls-2" d="M1787.66,101.55a17.47,17.47,0,0,1,1.41-3.57l0.84-.09a21,21,0,0,0-.88,3.51Zm2.24,0a17.53,17.53,0,0,1,1.39-3.57l0.84-.09a21,21,0,0,0-.88,3.51Z" transform="translate(-1387.83 0.81)"/><path class="cls-2" d="M1796.61,99.17h-3.07V98.06H1801v1.11h-3.09v9h-1.32v-9Z" transform="translate(-1387.83 0.81)"/><path class="cls-2" d="M1802.48,104.78a2.33,2.33,0,0,0,2.49,2.52,4.78,4.78,0,0,0,2-.37l0.22,0.95a5.88,5.88,0,0,1-2.42.45,3.37,3.37,0,0,1-3.57-3.66c0-2.19,1.29-3.92,3.4-3.92,2.37,0,3,2.08,3,3.42a5.06,5.06,0,0,1,0,.62h-5.1Zm3.87-.95a1.88,1.88,0,0,0-1.83-2.14,2.19,2.19,0,0,0-2,2.14h3.86Z" transform="translate(-1387.83 0.81)"/><path class="cls-2" d="M1813.87,108.17l-0.11-.92h0a2.7,2.7,0,0,1-2.22,1.08,2.07,2.07,0,0,1-2.22-2.08c0-1.75,1.56-2.71,4.36-2.7V103.4a1.5,1.5,0,0,0-1.65-1.68,3.62,3.62,0,0,0-1.89.54l-0.3-.87a4.51,4.51,0,0,1,2.38-.65c2.22,0,2.76,1.52,2.76,3v2.71a10.24,10.24,0,0,0,.12,1.74h-1.2Zm-0.2-3.71c-1.44,0-3.08.23-3.08,1.64a1.17,1.17,0,0,0,1.25,1.26,1.81,1.81,0,0,0,1.75-1.21,1.38,1.38,0,0,0,.08-0.42v-1.26Z" transform="translate(-1387.83 0.81)"/><path class="cls-2" d="M1817.66,102.87c0-.75,0-1.36-0.06-2h1.15l0.06,1.17h0a2.5,2.5,0,0,1,2.28-1.33,2.15,2.15,0,0,1,2.05,1.46h0a3,3,0,0,1,.81-0.94,2.48,2.48,0,0,1,1.6-.51c1,0,2.39.63,2.39,3.15v4.27h-1.29v-4.11c0-1.4-.51-2.23-1.58-2.23a1.71,1.71,0,0,0-1.56,1.2,2.16,2.16,0,0,0-.11.66v4.48h-1.29v-4.35c0-1.16-.51-2-1.51-2a2,2,0,0,0-1.74,2v4.38h-1.29v-5.29Z" transform="translate(-1387.83 0.81)"/><path class="cls-2" d="M1832.35,97.89a18.3,18.3,0,0,1-1.4,3.55l-0.84.1A22.78,22.78,0,0,0,1831,98Zm2.22,0a18.31,18.31,0,0,1-1.39,3.55l-0.84.1a21.22,21.22,0,0,0,.89-3.52Z" transform="translate(-1387.83 0.81)"/><path class="cls-2" d="M1842.27,98.82v2.08h1.89v1h-1.89v3.92c0,0.9.25,1.41,1,1.41a2.94,2.94,0,0,0,.76-0.09l0.06,1a3.23,3.23,0,0,1-1.17.18,1.83,1.83,0,0,1-1.42-.55,2.69,2.69,0,0,1-.51-1.89v-4h-1.12v-1H1841V99.17Z" transform="translate(-1387.83 0.81)"/><path class="cls-2" d="M1850.39,108.17l-0.11-.92h0a2.7,2.7,0,0,1-2.22,1.08,2.07,2.07,0,0,1-2.22-2.08c0-1.75,1.56-2.71,4.36-2.7V103.4a1.5,1.5,0,0,0-1.65-1.68,3.62,3.62,0,0,0-1.89.54l-0.3-.87a4.51,4.51,0,0,1,2.38-.65c2.22,0,2.76,1.52,2.76,3v2.71a10.24,10.24,0,0,0,.12,1.74h-1.2Zm-0.2-3.71c-1.44,0-3.08.23-3.08,1.64a1.17,1.17,0,0,0,1.25,1.26,1.81,1.81,0,0,0,1.75-1.21,1.38,1.38,0,0,0,.08-0.42v-1.26Z" transform="translate(-1387.83 0.81)"/><path class="cls-2" d="M1854.11,108.17c0-.5.06-1.23,0.06-1.87V97.52h1.3v4.56h0a2.7,2.7,0,0,1,2.48-1.33c1.8,0,3.07,1.5,3.06,3.71,0,2.59-1.63,3.88-3.25,3.88a2.59,2.59,0,0,1-2.43-1.37h0l-0.06,1.2h-1.14Zm1.36-2.91a2.46,2.46,0,0,0,.06.48,2,2,0,0,0,2,1.54c1.38,0,2.21-1.12,2.21-2.79,0-1.46-.75-2.7-2.16-2.7a2.1,2.1,0,0,0-2,1.62,2.65,2.65,0,0,0-.08.54v1.31Z" transform="translate(-1387.83 0.81)"/><path class="cls-2" d="M1874,104.48a3.55,3.55,0,0,1-3.62,3.85,3.45,3.45,0,0,1-3.48-3.73,3.54,3.54,0,0,1,3.6-3.85A3.44,3.44,0,0,1,1874,104.48Zm-5.76.08c0,1.59.92,2.79,2.2,2.79s2.21-1.18,2.21-2.82c0-1.23-.61-2.79-2.17-2.79S1868.2,103.17,1868.2,104.55Z" transform="translate(-1387.83 0.81)"/><path class="cls-2" d="M1876.28,102.87c0-.75,0-1.36-0.06-2h1.17l0.08,1.2h0a2.67,2.67,0,0,1,2.4-1.37c1,0,2.56.6,2.56,3.09v4.33h-1.32V104c0-1.17-.44-2.14-1.68-2.14a1.88,1.88,0,0,0-1.77,1.35,1.91,1.91,0,0,0-.09.62v4.36h-1.32v-5.29Z" transform="translate(-1387.83 0.81)"/><path class="cls-2" d="M1425.68,122.87c0-.75,0-1.36-0.06-2h1.15l0.06,1.17h0a2.5,2.5,0,0,1,2.28-1.33,2.15,2.15,0,0,1,2.05,1.46h0a3,3,0,0,1,.81-0.94,2.48,2.48,0,0,1,1.6-.51c1,0,2.39.63,2.39,3.15v4.27h-1.29v-4.11c0-1.4-.51-2.23-1.58-2.23a1.71,1.71,0,0,0-1.56,1.2,2.16,2.16,0,0,0-.11.66v4.48h-1.29v-4.35c0-1.16-.51-2-1.51-2a2,2,0,0,0-1.74,2v4.38h-1.29v-5.29Z" transform="translate(-1387.83 0.81)"/><path class="cls-2" d="M1439.06,120.91l1.59,4.29c0.17,0.48.34,1,.46,1.48h0c0.13-.44.29-1,0.46-1.52l1.44-4.26h1.4l-2,5.17c-0.94,2.49-1.59,3.76-2.49,4.54a3.58,3.58,0,0,1-1.62.85l-0.33-1.11a3.5,3.5,0,0,0,1.16-.65,4,4,0,0,0,1.11-1.47,0.93,0.93,0,0,0,.11-0.31,1.16,1.16,0,0,0-.09-0.34l-2.69-6.69h1.44Z" transform="translate(-1387.83 0.81)"/><path class="cls-2" d="M1445.27,127.39a0.89,0.89,0,0,1,.9-0.95A0.95,0.95,0,1,1,1445.27,127.39Z" transform="translate(-1387.83 0.81)"/><path class="cls-2" d="M1449.42,120.91l1,3.69c0.21,0.81.41,1.56,0.54,2.31h0c0.17-.74.41-1.52,0.64-2.29l1.19-3.71h1.11l1.13,3.63c0.27,0.87.48,1.63,0.65,2.37h0a21.78,21.78,0,0,1,.55-2.35l1-3.65h1.3l-2.34,7.26h-1.2L1454,124.7a24.42,24.42,0,0,1-.65-2.38h0a21.69,21.69,0,0,1-.66,2.4l-1.17,3.45h-1.2l-2.19-7.26h1.35Z" transform="translate(-1387.83 0.81)"/><path class="cls-2" d="M1467,124.48a3.55,3.55,0,0,1-3.62,3.85,3.45,3.45,0,0,1-3.48-3.73,3.54,3.54,0,0,1,3.6-3.85A3.44,3.44,0,0,1,1467,124.48Zm-5.76.08c0,1.59.92,2.79,2.2,2.79s2.21-1.18,2.21-2.82c0-1.23-.61-2.79-2.17-2.79S1461.27,123.17,1461.27,124.55Z" transform="translate(-1387.83 0.81)"/><path class="cls-2" d="M1469.34,123.17c0-.85,0-1.59-0.06-2.27h1.15l0,1.42h0.06a2.18,2.18,0,0,1,2-1.59,1.44,1.44,0,0,1,.38,0V122a2,2,0,0,0-.45,0,1.85,1.85,0,0,0-1.77,1.69,3.69,3.69,0,0,0-.06.62v3.87h-1.31v-5Z" transform="translate(-1387.83 0.81)"/><path class="cls-2" d="M1476.19,124.24h0c0.18-.26.44-0.57,0.65-0.83l2.13-2.5h1.59l-2.8,3,3.19,4.27h-1.6l-2.5-3.48-0.67.75v2.73h-1.31V117.52h1.31v6.72Z" transform="translate(-1387.83 0.81)"/><path class="cls-2" d="M1482.55,127.39a0.89,0.89,0,0,1,.9-0.95A0.95,0.95,0,1,1,1482.55,127.39Z" transform="translate(-1387.83 0.81)"/><path class="cls-2" d="M1486.63,126.82a3.46,3.46,0,0,0,1.74.52,1.17,1.17,0,0,0,1.41-1.08c0-.63-0.37-1-1.35-1.33-1.3-.47-1.92-1.19-1.92-2.06a2.24,2.24,0,0,1,2.5-2.13,3.62,3.62,0,0,1,1.79.45l-0.33,1a2.82,2.82,0,0,0-1.49-.42,1.06,1.06,0,0,0-1.21,1c0,0.6.44,0.87,1.38,1.23,1.26,0.48,1.91,1.11,1.91,2.19,0,1.27-1,2.17-2.71,2.17a4.14,4.14,0,0,1-2-.5Z" transform="translate(-1387.83 0.81)"/><path class="cls-2" d="M1495.07,118.82v2.08H1497v1h-1.89v3.92c0,0.9.25,1.41,1,1.41a2.94,2.94,0,0,0,.76-0.09l0.06,1a3.23,3.23,0,0,1-1.17.18,1.83,1.83,0,0,1-1.42-.55,2.69,2.69,0,0,1-.51-1.89v-4h-1.12v-1h1.13v-1.74Z" transform="translate(-1387.83 0.81)"/><path class="cls-2" d="M1500,120.91l1.59,4.29c0.17,0.48.34,1,.46,1.48h0c0.13-.44.29-1,0.46-1.52l1.44-4.26h1.4l-2,5.17c-0.94,2.49-1.59,3.76-2.49,4.54a3.58,3.58,0,0,1-1.62.85l-0.33-1.11a3.5,3.5,0,0,0,1.16-.65,4,4,0,0,0,1.11-1.47,0.93,0.93,0,0,0,.11-0.31,1.16,1.16,0,0,0-.09-0.34l-2.69-6.69H1500Z" transform="translate(-1387.83 0.81)"/><path class="cls-2" d="M1507.26,117.52h1.32v10.65h-1.32V117.52Z" transform="translate(-1387.83 0.81)"/><path class="cls-2" d="M1512.19,124.78a2.33,2.33,0,0,0,2.49,2.52,4.78,4.78,0,0,0,2-.37l0.22,0.95a5.88,5.88,0,0,1-2.42.45,3.37,3.37,0,0,1-3.57-3.66c0-2.19,1.29-3.92,3.4-3.92,2.37,0,3,2.08,3,3.42a5.06,5.06,0,0,1,0,.62h-5.1Zm3.87-.95a1.88,1.88,0,0,0-1.83-2.14,2.19,2.19,0,0,0-2,2.14h3.86Z" transform="translate(-1387.83 0.81)"/><path class="cls-2" d="M1525.24,118.82v2.08h1.89v1h-1.89v3.92c0,0.9.25,1.41,1,1.41a2.94,2.94,0,0,0,.76-0.09l0.06,1a3.23,3.23,0,0,1-1.17.18,1.83,1.83,0,0,1-1.42-.55,2.69,2.69,0,0,1-.51-1.89v-4h-1.12v-1h1.13v-1.74Z" transform="translate(-1387.83 0.81)"/><path class="cls-2" d="M1535.66,124.48a3.55,3.55,0,0,1-3.62,3.85,3.45,3.45,0,0,1-3.48-3.73,3.54,3.54,0,0,1,3.6-3.85A3.44,3.44,0,0,1,1535.66,124.48Zm-5.76.08c0,1.59.92,2.79,2.2,2.79s2.21-1.18,2.21-2.82c0-1.23-.61-2.79-2.17-2.79S1529.91,123.17,1529.91,124.55Z" transform="translate(-1387.83 0.81)"/><path class="cls-2" d="M1541.83,126.82a3.46,3.46,0,0,0,1.74.52,1.17,1.17,0,0,0,1.41-1.08c0-.63-0.37-1-1.35-1.33-1.3-.47-1.92-1.19-1.92-2.06a2.24,2.24,0,0,1,2.5-2.13,3.62,3.62,0,0,1,1.79.45l-0.33,1a2.82,2.82,0,0,0-1.49-.42,1.06,1.06,0,0,0-1.21,1c0,0.6.44,0.87,1.38,1.23,1.26,0.48,1.91,1.11,1.91,2.19,0,1.27-1,2.17-2.71,2.17a4.14,4.14,0,0,1-2-.5Z" transform="translate(-1387.83 0.81)"/><path class="cls-2" d="M1549.36,124.78a2.33,2.33,0,0,0,2.49,2.52,4.78,4.78,0,0,0,2-.37l0.22,0.95a5.88,5.88,0,0,1-2.42.45,3.37,3.37,0,0,1-3.57-3.66c0-2.19,1.29-3.92,3.4-3.92,2.37,0,3,2.08,3,3.42a5.06,5.06,0,0,1,0,.62h-5.1Zm3.87-.95a1.88,1.88,0,0,0-1.83-2.14,2.19,2.19,0,0,0-2,2.14h3.86Z" transform="translate(-1387.83 0.81)"/><path class="cls-2" d="M1557.62,124.78a2.33,2.33,0,0,0,2.49,2.52,4.78,4.78,0,0,0,2-.37l0.22,0.95a5.88,5.88,0,0,1-2.42.45,3.37,3.37,0,0,1-3.57-3.66c0-2.19,1.29-3.92,3.4-3.92,2.37,0,3,2.08,3,3.42a5.06,5.06,0,0,1,0,.62h-5.1Zm3.87-.95a1.88,1.88,0,0,0-1.83-2.14,2.19,2.19,0,0,0-2,2.14h3.86Z" transform="translate(-1387.83 0.81)"/><path class="cls-2" d="M1569.56,120.91l1.59,4.29c0.17,0.48.34,1,.46,1.48h0c0.13-.44.29-1,0.46-1.52l1.44-4.26h1.4l-2,5.17c-0.94,2.49-1.59,3.76-2.49,4.54a3.58,3.58,0,0,1-1.62.85l-0.33-1.11a3.5,3.5,0,0,0,1.16-.65,4,4,0,0,0,1.11-1.47,0.93,0.93,0,0,0,.11-0.31,1.16,1.16,0,0,0-.09-0.34l-2.69-6.69h1.44Z" transform="translate(-1387.83 0.81)"/><path class="cls-2" d="M1583.2,124.48a3.55,3.55,0,0,1-3.62,3.85,3.45,3.45,0,0,1-3.48-3.73,3.54,3.54,0,0,1,3.6-3.85A3.44,3.44,0,0,1,1583.2,124.48Zm-5.76.08c0,1.59.92,2.79,2.2,2.79s2.21-1.18,2.21-2.82c0-1.23-.61-2.79-2.17-2.79S1577.44,123.17,1577.44,124.55Z" transform="translate(-1387.83 0.81)"/><path class="cls-2" d="M1591.59,126.19c0,0.75,0,1.41.06,2h-1.17L1590.4,127h0a2.73,2.73,0,0,1-2.4,1.35c-1.14,0-2.5-.63-2.5-3.18v-4.25h1.32v4c0,1.38.42,2.31,1.62,2.31a1.86,1.86,0,0,0,1.86-1.87v-4.46h1.32v5.28Z" transform="translate(-1387.83 0.81)"/><path class="cls-2" d="M1594.36,123.17c0-.85,0-1.59-0.06-2.27h1.15l0,1.42h0.06a2.18,2.18,0,0,1,2-1.59,1.44,1.44,0,0,1,.38,0V122a2,2,0,0,0-.45,0,1.85,1.85,0,0,0-1.77,1.69,3.69,3.69,0,0,0-.06.62v3.87h-1.3v-5Z" transform="translate(-1387.83 0.81)"/><path class="cls-2" d="M1609.12,127.9a4.86,4.86,0,0,1-2.08.42,3.45,3.45,0,0,1-3.61-3.7,3.69,3.69,0,0,1,3.9-3.85,4.41,4.41,0,0,1,1.83.38l-0.3,1a3.06,3.06,0,0,0-1.53-.35,2.74,2.74,0,0,0,0,5.46,3.75,3.75,0,0,0,1.62-.36Z" transform="translate(-1387.83 0.81)"/><path class="cls-2" d="M1617.67,124.48a3.55,3.55,0,0,1-3.62,3.85,3.45,3.45,0,0,1-3.48-3.73,3.54,3.54,0,0,1,3.6-3.85A3.44,3.44,0,0,1,1617.67,124.48Zm-5.76.08c0,1.59.92,2.79,2.2,2.79s2.21-1.18,2.21-2.82c0-1.23-.61-2.79-2.17-2.79S1611.91,123.17,1611.91,124.55Z" transform="translate(-1387.83 0.81)"/><path class="cls-2" d="M1620,122.87c0-.75,0-1.36-0.06-2h1.15l0.06,1.17h0a2.5,2.5,0,0,1,2.28-1.33,2.15,2.15,0,0,1,2.05,1.46h0a3,3,0,0,1,.81-0.94,2.48,2.48,0,0,1,1.6-.51c1,0,2.39.63,2.39,3.15v4.27h-1.29v-4.11c0-1.4-.51-2.23-1.58-2.23a1.71,1.71,0,0,0-1.56,1.2,2.16,2.16,0,0,0-.11.66v4.48h-1.29v-4.35c0-1.16-.51-2-1.51-2a2,2,0,0,0-1.74,2v4.38H1620v-5.29Z" transform="translate(-1387.83 0.81)"/><path class="cls-2" d="M1633.07,123.28c0-.93,0-1.68-0.06-2.37h1.18l0.06,1.25h0a2.85,2.85,0,0,1,2.58-1.41c1.75,0,3.08,1.48,3.08,3.69,0,2.61-1.59,3.9-3.3,3.9a2.55,2.55,0,0,1-2.24-1.14h0v3.94h-1.31v-7.86Zm1.31,1.93a3,3,0,0,0,.06.54,2,2,0,0,0,2,1.54c1.4,0,2.21-1.14,2.21-2.8,0-1.46-.76-2.7-2.16-2.7a2.11,2.11,0,0,0-2,1.63,2.14,2.14,0,0,0-.09.54v1.24Z" transform="translate(-1387.83 0.81)"/><path class="cls-2" d="M1646.33,128.17l-0.11-.92h0a2.7,2.7,0,0,1-2.22,1.08,2.07,2.07,0,0,1-2.22-2.08c0-1.75,1.56-2.71,4.36-2.7V123.4a1.5,1.5,0,0,0-1.65-1.68,3.62,3.62,0,0,0-1.89.54l-0.3-.87a4.51,4.51,0,0,1,2.38-.65c2.22,0,2.76,1.52,2.76,3v2.71a10.24,10.24,0,0,0,.12,1.74h-1.2Zm-0.2-3.71c-1.44,0-3.08.23-3.08,1.64a1.17,1.17,0,0,0,1.25,1.26,1.81,1.81,0,0,0,1.75-1.21,1.38,1.38,0,0,0,.08-0.42v-1.26Z" transform="translate(-1387.83 0.81)"/><path class="cls-2" d="M1650.12,122.87c0-.75,0-1.36-0.06-2h1.17l0.08,1.2h0a2.67,2.67,0,0,1,2.4-1.37c1,0,2.56.6,2.56,3.09v4.33H1655V124c0-1.17-.44-2.14-1.68-2.14a1.88,1.88,0,0,0-1.77,1.35,1.91,1.91,0,0,0-.09.62v4.36h-1.32v-5.29Z" transform="translate(-1387.83 0.81)"/><path class="cls-2" d="M1659.29,120.91l1.59,4.29c0.17,0.48.34,1,.46,1.48h0c0.13-.44.29-1,0.46-1.52l1.44-4.26h1.4l-2,5.17c-0.94,2.49-1.59,3.76-2.49,4.54a3.58,3.58,0,0,1-1.62.85l-0.33-1.11a3.5,3.5,0,0,0,1.16-.65,4,4,0,0,0,1.11-1.47,0.93,0.93,0,0,0,.11-0.31,1.16,1.16,0,0,0-.09-0.34l-2.69-6.69h1.44Z" transform="translate(-1387.83 0.81)"/><path class="cls-2" d="M1668.49,117.89a17.29,17.29,0,0,1-1.41,3.55l-0.84.1a21.22,21.22,0,0,0,.88-3.52Z" transform="translate(-1387.83 0.81)"/><path class="cls-2" d="M1669.78,126.82a3.46,3.46,0,0,0,1.74.52,1.17,1.17,0,0,0,1.41-1.08c0-.63-0.37-1-1.35-1.33-1.3-.47-1.92-1.19-1.92-2.06a2.24,2.24,0,0,1,2.5-2.13,3.62,3.62,0,0,1,1.79.45l-0.33,1a2.82,2.82,0,0,0-1.49-.42,1.06,1.06,0,0,0-1.21,1c0,0.6.44,0.87,1.38,1.23,1.26,0.48,1.91,1.11,1.91,2.19,0,1.27-1,2.17-2.71,2.17a4.14,4.14,0,0,1-2-.5Z" transform="translate(-1387.83 0.81)"/><path class="cls-2" d="M1686.65,126.19c0,0.75,0,1.41.06,2h-1.17l-0.08-1.19h0a2.73,2.73,0,0,1-2.4,1.35c-1.14,0-2.5-.63-2.5-3.18v-4.25h1.32v4c0,1.38.42,2.31,1.62,2.31a1.86,1.86,0,0,0,1.86-1.87v-4.46h1.32v5.28Z" transform="translate(-1387.83 0.81)"/><path class="cls-2" d="M1689.43,122.87c0-.75,0-1.36-0.06-2h1.17l0.08,1.2h0a2.67,2.67,0,0,1,2.4-1.37c1,0,2.56.6,2.56,3.09v4.33h-1.32V124c0-1.17-.44-2.14-1.68-2.14a1.88,1.88,0,0,0-1.77,1.35,1.91,1.91,0,0,0-.09.62v4.36h-1.32v-5.29Z" transform="translate(-1387.83 0.81)"/><path class="cls-2" d="M1699.79,118.87a0.82,0.82,0,0,1-1.63,0A0.8,0.8,0,0,1,1699,118,0.78,0.78,0,0,1,1699.79,118.87Zm-1.47,9.3v-7.26h1.32v7.26h-1.32Z" transform="translate(-1387.83 0.81)"/><path class="cls-2" d="M1707.42,127h0a2.58,2.58,0,0,1-2.37,1.29c-1.69,0-3.07-1.47-3.07-3.67,0-2.71,1.75-3.92,3.28-3.92a2.39,2.39,0,0,1,2.24,1.26h0l0-1.1h1.25c0,0.62,0,1.25,0,2v8.23h-1.32V127Zm0-3.19a2.25,2.25,0,0,0-.06-0.56,1.93,1.93,0,0,0-1.89-1.5c-1.37,0-2.19,1.15-2.19,2.79,0,1.44.69,2.7,2.14,2.7a2,2,0,0,0,1.89-1.44,2.2,2.2,0,0,0,.11-0.63v-1.36Z" transform="translate(-1387.83 0.81)"/><path class="cls-2" d="M1717.56,126.19c0,0.75,0,1.41.06,2h-1.17l-0.08-1.19h0a2.73,2.73,0,0,1-2.4,1.35c-1.14,0-2.5-.63-2.5-3.18v-4.25h1.32v4c0,1.38.42,2.31,1.62,2.31a1.86,1.86,0,0,0,1.86-1.87v-4.46h1.32v5.28Z" transform="translate(-1387.83 0.81)"/><path class="cls-2" d="M1721.13,124.78a2.33,2.33,0,0,0,2.49,2.52,4.78,4.78,0,0,0,2-.37l0.22,0.95a5.88,5.88,0,0,1-2.42.45,3.37,3.37,0,0,1-3.57-3.66c0-2.19,1.29-3.92,3.4-3.92,2.37,0,3,2.08,3,3.42a5.06,5.06,0,0,1,0,.62h-5.1Zm3.87-.95a1.88,1.88,0,0,0-1.83-2.14,2.19,2.19,0,0,0-2,2.14H1725Z" transform="translate(-1387.83 0.81)"/><path class="cls-2" d="M1733.12,120.91l1,3.69c0.21,0.81.41,1.56,0.54,2.31h0c0.17-.74.41-1.52,0.64-2.29l1.19-3.71h1.11l1.13,3.63c0.27,0.87.48,1.63,0.65,2.37h0a21.78,21.78,0,0,1,.55-2.35l1-3.65h1.3l-2.34,7.26h-1.2l-1.11-3.46a24.42,24.42,0,0,1-.65-2.38h0a21.69,21.69,0,0,1-.66,2.4l-1.17,3.45H1734l-2.19-7.26h1.35Z" transform="translate(-1387.83 0.81)"/><path class="cls-2" d="M1750.72,124.48a3.55,3.55,0,0,1-3.62,3.85,3.45,3.45,0,0,1-3.48-3.73,3.54,3.54,0,0,1,3.6-3.85A3.44,3.44,0,0,1,1750.72,124.48Zm-5.76.08c0,1.59.92,2.79,2.2,2.79s2.21-1.18,2.21-2.82c0-1.23-.61-2.79-2.17-2.79S1745,123.17,1745,124.55Z" transform="translate(-1387.83 0.81)"/><path class="cls-2" d="M1753,123.17c0-.85,0-1.59-0.06-2.27h1.15l0,1.42h0.06a2.18,2.18,0,0,1,2-1.59,1.44,1.44,0,0,1,.38,0V122a2,2,0,0,0-.45,0,1.85,1.85,0,0,0-1.77,1.69,3.69,3.69,0,0,0-.06.62v3.87H1753v-5Z" transform="translate(-1387.83 0.81)"/><path class="cls-2" d="M1759.88,124.24h0c0.18-.26.44-0.57,0.65-0.83l2.13-2.5h1.59l-2.8,3,3.19,4.27h-1.6l-2.5-3.48-0.67.75v2.73h-1.31V117.52h1.31v6.72Z" transform="translate(-1387.83 0.81)"/><path class="cls-2" d="M1766.49,126.82a3.46,3.46,0,0,0,1.74.52,1.17,1.17,0,0,0,1.41-1.08c0-.63-0.37-1-1.35-1.33-1.3-.47-1.92-1.19-1.92-2.06a2.24,2.24,0,0,1,2.5-2.13,3.62,3.62,0,0,1,1.79.45l-0.33,1a2.82,2.82,0,0,0-1.49-.42,1.06,1.06,0,0,0-1.21,1c0,0.6.44,0.87,1.38,1.23,1.26,0.48,1.91,1.11,1.91,2.19,0,1.27-1,2.17-2.71,2.17a4.14,4.14,0,0,1-2-.5Z" transform="translate(-1387.83 0.81)"/><path class="cls-2" d="M1774.94,118.82v2.08h1.89v1h-1.89v3.92c0,0.9.25,1.41,1,1.41a2.94,2.94,0,0,0,.76-0.09l0.06,1a3.23,3.23,0,0,1-1.17.18,1.83,1.83,0,0,1-1.42-.55,2.69,2.69,0,0,1-.51-1.89v-4h-1.12v-1h1.13v-1.74Z" transform="translate(-1387.83 0.81)"/><path class="cls-2" d="M1779.83,120.91l1.59,4.29c0.17,0.48.34,1,.46,1.48h0c0.13-.44.29-1,0.46-1.52l1.44-4.26h1.4l-2,5.17c-0.94,2.49-1.59,3.76-2.49,4.54a3.58,3.58,0,0,1-1.62.85l-0.33-1.11a3.5,3.5,0,0,0,1.16-.65,4,4,0,0,0,1.11-1.47,0.93,0.93,0,0,0,.11-0.31,1.16,1.16,0,0,0-.09-0.34l-2.69-6.69h1.44Z" transform="translate(-1387.83 0.81)"/><path class="cls-2" d="M1787.12,117.52h1.32v10.65h-1.32V117.52Z" transform="translate(-1387.83 0.81)"/><path class="cls-2" d="M1792.05,124.78a2.33,2.33,0,0,0,2.49,2.52,4.78,4.78,0,0,0,2-.37l0.22,0.95a5.88,5.88,0,0,1-2.42.45,3.37,3.37,0,0,1-3.57-3.66c0-2.19,1.29-3.92,3.4-3.92,2.37,0,3,2.08,3,3.42a5.06,5.06,0,0,1,0,.62h-5.1Zm3.87-.95a1.88,1.88,0,0,0-1.83-2.14,2.19,2.19,0,0,0-2,2.14h3.86Z" transform="translate(-1387.83 0.81)"/><path class="cls-2" d="M1808.69,127.9a4.86,4.86,0,0,1-2.08.42,3.45,3.45,0,0,1-3.61-3.7,3.69,3.69,0,0,1,3.9-3.85,4.41,4.41,0,0,1,1.83.38l-0.3,1a3.06,3.06,0,0,0-1.53-.35,2.74,2.74,0,0,0,0,5.46,3.75,3.75,0,0,0,1.62-.36Z" transform="translate(-1387.83 0.81)"/><path class="cls-2" d="M1810.77,117.52h1.32V122h0a2.45,2.45,0,0,1,.94-0.93,2.72,2.72,0,0,1,1.35-.37c1,0,2.53.6,2.53,3.1v4.32h-1.32V124c0-1.17-.44-2.16-1.68-2.16a1.9,1.9,0,0,0-1.77,1.32,1.59,1.59,0,0,0-.09.63v4.38h-1.32V117.52Z" transform="translate(-1387.83 0.81)"/><path class="cls-2" d="M1820.5,124.78a2.33,2.33,0,0,0,2.49,2.52,4.78,4.78,0,0,0,2-.37l0.22,0.95a5.88,5.88,0,0,1-2.42.45,3.37,3.37,0,0,1-3.57-3.66c0-2.19,1.29-3.92,3.4-3.92,2.37,0,3,2.08,3,3.42a5.06,5.06,0,0,1,0,.62h-5.1Zm3.87-.95a1.88,1.88,0,0,0-1.83-2.14,2.19,2.19,0,0,0-2,2.14h3.86Z" transform="translate(-1387.83 0.81)"/><path class="cls-2" d="M1827.92,122.87c0-.75,0-1.36-0.06-2H1829l0.06,1.17h0a2.5,2.5,0,0,1,2.28-1.33,2.15,2.15,0,0,1,2.05,1.46h0a3,3,0,0,1,.81-0.94,2.48,2.48,0,0,1,1.6-.51c1,0,2.39.63,2.39,3.15v4.27H1837v-4.11c0-1.4-.51-2.23-1.58-2.23a1.71,1.71,0,0,0-1.56,1.2,2.16,2.16,0,0,0-.11.66v4.48h-1.29v-4.35c0-1.16-.51-2-1.51-2a2,2,0,0,0-1.74,2v4.38h-1.29v-5.29Z" transform="translate(-1387.83 0.81)"/><path class="cls-2" d="M1842.49,118.87a0.82,0.82,0,0,1-1.63,0,0.8,0.8,0,0,1,.83-0.82A0.78,0.78,0,0,1,1842.49,118.87Zm-1.47,9.3v-7.26h1.32v7.26H1841Z" transform="translate(-1387.83 0.81)"/><path class="cls-2" d="M1844.88,126.82a3.46,3.46,0,0,0,1.74.52,1.17,1.17,0,0,0,1.41-1.08c0-.63-0.37-1-1.35-1.33-1.3-.47-1.92-1.19-1.92-2.06a2.24,2.24,0,0,1,2.5-2.13,3.62,3.62,0,0,1,1.79.45l-0.33,1a2.82,2.82,0,0,0-1.49-.42,1.06,1.06,0,0,0-1.21,1c0,0.6.44,0.87,1.38,1.23,1.26,0.48,1.91,1.11,1.91,2.19,0,1.27-1,2.17-2.71,2.17a4.14,4.14,0,0,1-2-.5Z" transform="translate(-1387.83 0.81)"/><path class="cls-2" d="M1853.33,118.82v2.08h1.89v1h-1.89v3.92c0,0.9.25,1.41,1,1.41a2.94,2.94,0,0,0,.76-0.09l0.06,1a3.23,3.23,0,0,1-1.17.18,1.83,1.83,0,0,1-1.42-.55,2.69,2.69,0,0,1-.51-1.89v-4h-1.12v-1H1852v-1.74Z" transform="translate(-1387.83 0.81)"/><path class="cls-2" d="M1857.29,123.17c0-.85,0-1.59-0.06-2.27h1.15l0,1.42h0.06a2.18,2.18,0,0,1,2-1.59,1.44,1.44,0,0,1,.38,0V122a2,2,0,0,0-.45,0,1.85,1.85,0,0,0-1.77,1.69,3.69,3.69,0,0,0-.06.62v3.87h-1.3v-5Z" transform="translate(-1387.83 0.81)"/><path class="cls-2" d="M1863.8,120.91l1.59,4.29c0.17,0.48.34,1,.46,1.48h0c0.13-.44.29-1,0.46-1.52l1.44-4.26h1.4l-2,5.17c-0.94,2.49-1.59,3.76-2.49,4.54a3.58,3.58,0,0,1-1.62.85l-0.33-1.11a3.5,3.5,0,0,0,1.16-.65,4,4,0,0,0,1.11-1.47,0.93,0.93,0,0,0,.11-0.31,1.16,1.16,0,0,0-.09-0.34l-2.69-6.69h1.44Z" transform="translate(-1387.83 0.81)"/><path class="cls-2" d="M1870,127.39a0.89,0.89,0,0,1,.9-0.95A0.95,0.95,0,1,1,1870,127.39Z" transform="translate(-1387.83 0.81)"/></svg>