<svg id="Layer_1" data-name="Layer 1" xmlns="http://www.w3.org/2000/svg" viewBox="0 0 447.43 410.95"><defs><style>.cls-1{opacity:0.5;}.cls-2{fill:#0d8d8a;}.cls-3{fill:#75439a;}.cls-4{fill:#edaa00;}.cls-5{fill:#5290cc;}.cls-6{fill:#ff6c36;}.cls-7{fill:#d84255;}.cls-8{fill:#fff;}.cls-10,.cls-9{fill:none;stroke:#fff;}.cls-9{stroke-miterlimit:10;}.cls-10{stroke-linecap:round;stroke-linejoin:round;}.cls-11{fill:#d44255;}.cls-12{fill:#128985;}.cls-13{fill:#518cca;}.cls-14{fill:#774395;}</style></defs><title>chart</title><g class="cls-1"><path class="cls-2" d="M1694.1,460.33L1542.4,350.1c24.35-33.51,54.36-55.32,93.76-68.12Z" transform="translate(-1465.61 -240.78)"/><path class="cls-3" d="M1694.51,460.63H1506.45c0-41.55,11.5-76.93,35.92-110.54Z" transform="translate(-1465.61 -240.78)"/><path class="cls-4" d="M1694.51,460.19L1636.4,639c-79-25.68-129.95-95.77-129.95-178.86h188.06Z" transform="translate(-1465.61 -240.78)"/><path class="cls-5" d="M1694.35,459.19l180,58.47c-32.29,99.39-139,153.77-238.42,121.48h0Z" transform="translate(-1465.61 -240.78)"/><path class="cls-6" d="M1694.51,460.71l11.61-188.23c85.71,3.31,177,84.07,177,188.23a179.28,179.28,0,0,1-9.23,58.28Z" transform="translate(-1465.61 -240.78)"/><path class="cls-7" d="M1694.54,461.58L1636,281.39c19.9-6.47,49.2-8.91,70.13-8.91Z" transform="translate(-1465.61 -240.78)"/></g><path class="cls-2" d="M1694.18,460.21l-128.52-93.38c20.63-28.39,46.05-46.86,79.43-57.71Z" transform="translate(-1465.61 -240.78)"/><path class="cls-3" d="M1694.52,460.47H1535.2c0-35.2,9.74-65.17,30.43-93.65Z" transform="translate(-1465.61 -240.78)"/><path class="cls-4" d="M1694.52,460.09l-49.23,151.52c-66.95-21.75-110.09-81.13-110.09-151.52h159.32Z" transform="translate(-1465.61 -240.78)"/><path class="cls-5" d="M1694.38,459.25l152.45,49.53a160.29,160.29,0,0,1-202,102.91h0Z" transform="translate(-1465.61 -240.78)"/><path class="cls-6" d="M1694.52,460.54V300.77a159.77,159.77,0,0,1,159.77,159.77,151.88,151.88,0,0,1-7.82,49.37Z" transform="translate(-1465.61 -240.78)"/><path class="cls-7" d="M1694.55,461.27l-49.6-152.64c16.86-5.48,41.54-7.56,59.27-7.56Z" transform="translate(-1465.61 -240.78)"/><path class="cls-8" d="M1668.82,352.09a16.71,16.71,0,0,1,2.49-.19A5.19,5.19,0,0,1,1675,353a4.17,4.17,0,0,1,1.28,3.25,4.79,4.79,0,0,1-1.3,3.52,5.58,5.58,0,0,1-4,1.3,18.85,18.85,0,0,1-2.12-.11v-8.91Zm1.17,8a7.39,7.39,0,0,0,1.18.07,3.48,3.48,0,0,0,3.86-3.84c0-2.14-1.2-3.5-3.67-3.5a6.62,6.62,0,0,0-1.37.12v7.15Z" transform="translate(-1465.61 -240.78)"/><path class="cls-8" d="M1683.67,357.72a3.18,3.18,0,0,1-3.24,3.46,3.09,3.09,0,0,1-3.12-3.35,3.18,3.18,0,0,1,3.23-3.46A3.08,3.08,0,0,1,1683.67,357.72Zm-5.16.07c0,1.42.82,2.5,2,2.5s2-1.06,2-2.53c0-1.1-.55-2.5-1.95-2.5S1678.51,356.56,1678.51,357.79Z" transform="translate(-1465.61 -240.78)"/><path class="cls-8" d="M1685.82,358a2.08,2.08,0,0,0,2.23,2.26,4.28,4.28,0,0,0,1.8-.34l0.2,0.85a5.27,5.27,0,0,1-2.17.4,3,3,0,0,1-3.2-3.28c0-2,1.16-3.51,3.05-3.51,2.12,0,2.69,1.87,2.69,3.06a4.63,4.63,0,0,1,0,.55h-4.57Zm3.47-.85a1.68,1.68,0,0,0-1.64-1.92,2,2,0,0,0-1.82,1.92h3.46Z" transform="translate(-1465.61 -240.78)"/><path class="cls-8" d="M1691.89,356.56c0-.77,0-1.42-0.05-2h1l0,1.28H1693a2,2,0,0,1,1.8-1.42,1.28,1.28,0,0,1,.34,0v1.12a1.78,1.78,0,0,0-.4,0,1.66,1.66,0,0,0-1.59,1.52,3.28,3.28,0,0,0-.05.55V361h-1.17v-4.48Z" transform="translate(-1465.61 -240.78)"/><path class="cls-8" d="M1608,378a16.71,16.71,0,0,1,2.49-.19,5.19,5.19,0,0,1,3.67,1.13,4.17,4.17,0,0,1,1.28,3.25,4.79,4.79,0,0,1-1.3,3.52,5.58,5.58,0,0,1-4,1.3,18.85,18.85,0,0,1-2.12-.11V378Zm1.17,8a7.39,7.39,0,0,0,1.18.07,3.48,3.48,0,0,0,3.86-3.84c0-2.14-1.2-3.5-3.67-3.5a6.62,6.62,0,0,0-1.37.12V386Z" transform="translate(-1465.61 -240.78)"/><path class="cls-8" d="M1616.91,382.47c0-.77,0-1.42-0.05-2h1l0,1.28H1618a2,2,0,0,1,1.8-1.42,1.28,1.28,0,0,1,.34,0v1.12a1.78,1.78,0,0,0-.4,0,1.66,1.66,0,0,0-1.59,1.52,3.29,3.29,0,0,0-.05.55v3.47h-1.17v-4.48Z" transform="translate(-1465.61 -240.78)"/><path class="cls-8" d="M1621.82,383.9a2.08,2.08,0,0,0,2.23,2.26,4.28,4.28,0,0,0,1.8-.34l0.2,0.85a5.27,5.27,0,0,1-2.17.4,3,3,0,0,1-3.2-3.28c0-2,1.16-3.51,3.05-3.51,2.12,0,2.69,1.87,2.69,3.06a4.63,4.63,0,0,1,0,.55h-4.57Zm3.47-.85a1.68,1.68,0,0,0-1.64-1.92,2,2,0,0,0-1.82,1.92h3.46Z" transform="translate(-1465.61 -240.78)"/><path class="cls-8" d="M1631.5,386.94l-0.09-.82h0a2.42,2.42,0,0,1-2,1,1.85,1.85,0,0,1-2-1.87c0-1.57,1.4-2.43,3.91-2.42v-0.13a1.34,1.34,0,0,0-1.48-1.51,3.24,3.24,0,0,0-1.69.48l-0.27-.78a4,4,0,0,1,2.14-.58c2,0,2.47,1.36,2.47,2.66v2.43a9.22,9.22,0,0,0,.11,1.56h-1.08Zm-0.17-3.32c-1.29,0-2.76.2-2.76,1.47a1,1,0,0,0,1.12,1.13,1.62,1.62,0,0,0,1.57-1.09,1.21,1.21,0,0,0,.07-0.38v-1.13Z" transform="translate(-1465.61 -240.78)"/><path class="cls-8" d="M1634.37,382.2c0-.67,0-1.22-0.05-1.76h1l0.05,1h0a2.24,2.24,0,0,1,2-1.2,1.92,1.92,0,0,1,1.84,1.3h0a2.68,2.68,0,0,1,.73-0.85,2.22,2.22,0,0,1,1.44-.46c0.86,0,2.14.56,2.14,2.82v3.83h-1.16v-3.68c0-1.25-.46-2-1.41-2a1.53,1.53,0,0,0-1.4,1.08,2,2,0,0,0-.09.59v4h-1.16V383c0-1-.46-1.79-1.36-1.79a1.76,1.76,0,0,0-1.56,1.76v3.93h-1.16V382.2Z" transform="translate(-1465.61 -240.78)"/><path class="cls-8" d="M1646.24,383.9a2.08,2.08,0,0,0,2.23,2.26,4.28,4.28,0,0,0,1.8-.34l0.2,0.85a5.27,5.27,0,0,1-2.17.4,3,3,0,0,1-3.2-3.28c0-2,1.16-3.51,3.05-3.51,2.12,0,2.69,1.87,2.69,3.06a4.63,4.63,0,0,1,0,.55h-4.57Zm3.47-.85a1.68,1.68,0,0,0-1.64-1.92,2,2,0,0,0-1.82,1.92h3.46Z" transform="translate(-1465.61 -240.78)"/><path class="cls-8" d="M1652.31,382.47c0-.77,0-1.42-0.05-2h1l0,1.28h0.05a2,2,0,0,1,1.8-1.42,1.28,1.28,0,0,1,.34,0v1.12a1.78,1.78,0,0,0-.4,0,1.66,1.66,0,0,0-1.59,1.52,3.28,3.28,0,0,0-.05.55v3.47h-1.17v-4.48Z" transform="translate(-1465.61 -240.78)"/><path class="cls-8" d="M1575.3,441l-0.94,2.85h-1.21l3.08-9.06h1.41l3.09,9.06h-1.25l-1-2.85h-3.21Zm3-.91-0.89-2.61c-0.2-.59-0.34-1.13-0.47-1.65h0c-0.13.54-.28,1.09-0.46,1.64l-0.89,2.62h2.73Z" transform="translate(-1465.61 -240.78)"/><path class="cls-8" d="M1587.48,434.32v7.86c0,0.58,0,1.24.05,1.68h-1.06l-0.05-1.13h0a2.41,2.41,0,0,1-2.22,1.28c-1.57,0-2.78-1.33-2.78-3.31,0-2.16,1.33-3.5,2.92-3.5a2.18,2.18,0,0,1,2,1h0v-3.88h1.18ZM1586.3,440a2.06,2.06,0,0,0-.05-0.5,1.74,1.74,0,0,0-1.71-1.37c-1.22,0-1.95,1.08-1.95,2.51s0.65,2.41,1.92,2.41a1.78,1.78,0,0,0,1.73-1.41,2,2,0,0,0,.05-0.51V440Z" transform="translate(-1465.61 -240.78)"/><path class="cls-8" d="M1589.9,437.35l1.28,3.66a16.92,16.92,0,0,1,.52,1.67h0c0.15-.54.34-1.08,0.55-1.67l1.26-3.66h1.24l-2.55,6.51h-1.13l-2.47-6.51h1.26Z" transform="translate(-1465.61 -240.78)"/><path class="cls-8" d="M1597.22,435.53a0.73,0.73,0,0,1-1.47,0,0.72,0.72,0,0,1,.74-0.74A0.7,0.7,0,0,1,1597.22,435.53Zm-1.32,8.33v-6.51h1.18v6.51h-1.18Z" transform="translate(-1465.61 -240.78)"/><path class="cls-8" d="M1598.88,442.65a3.1,3.1,0,0,0,1.56.47,1,1,0,0,0,1.26-1c0-.56-0.34-0.87-1.21-1.2-1.17-.42-1.72-1.06-1.72-1.84a2,2,0,0,1,2.24-1.91,3.25,3.25,0,0,1,1.6.4l-0.3.86a2.54,2.54,0,0,0-1.33-.38,1,1,0,0,0-1.09.89c0,0.54.39,0.78,1.24,1.1,1.13,0.43,1.71,1,1.71,2,0,1.14-.89,1.95-2.43,1.95a3.71,3.71,0,0,1-1.83-.44Z" transform="translate(-1465.61 -240.78)"/><path class="cls-8" d="M1610.25,440.55A3.18,3.18,0,0,1,1607,444a3.09,3.09,0,0,1-3.12-3.35,3.18,3.18,0,0,1,3.23-3.46A3.08,3.08,0,0,1,1610.25,440.55Zm-5.16.07c0,1.42.82,2.5,2,2.5s2-1.06,2-2.53c0-1.1-.55-2.5-1.95-2.5S1605.09,439.38,1605.09,440.62Z" transform="translate(-1465.61 -240.78)"/><path class="cls-8" d="M1611.74,439.38c0-.77,0-1.42-0.05-2h1l0,1.28h0.05a2,2,0,0,1,1.8-1.42,1.28,1.28,0,0,1,.34,0v1.12a1.78,1.78,0,0,0-.4,0,1.66,1.66,0,0,0-1.59,1.52,3.28,3.28,0,0,0-.05.55v3.47h-1.17v-4.48Z" transform="translate(-1465.61 -240.78)"/><path class="cls-8" d="M1596.6,537.13c0,3.12-1.9,4.77-4.21,4.77s-4.07-1.85-4.07-4.6,1.79-4.76,4.21-4.76S1596.6,534.44,1596.6,537.13Zm-7,.15c0,1.94,1,3.67,2.89,3.67s2.9-1.71,2.9-3.76c0-1.8-.94-3.68-2.89-3.68S1589.57,535.29,1589.57,537.28Z" transform="translate(-1465.61 -240.78)"/><path class="cls-8" d="M1598.08,537.28c0-.77,0-1.42-0.05-2h1l0,1.28h0.05a2,2,0,0,1,1.8-1.42,1.28,1.28,0,0,1,.34,0v1.12a1.78,1.78,0,0,0-.4,0,1.66,1.66,0,0,0-1.59,1.52,3.28,3.28,0,0,0-.05.55v3.47h-1.17v-4.48Z" transform="translate(-1465.61 -240.78)"/><path class="cls-8" d="M1603.84,533.42a0.73,0.73,0,0,1-1.47,0,0.72,0.72,0,0,1,.74-0.74A0.7,0.7,0,0,1,1603.84,533.42Zm-1.32,8.33v-6.51h1.18v6.51h-1.18Z" transform="translate(-1465.61 -240.78)"/><path class="cls-8" d="M1611.28,535.25c0,0.47-.05,1-0.05,1.79v3.78a3.74,3.74,0,0,1-.93,3,3.45,3.45,0,0,1-2.37.78,4.2,4.2,0,0,1-2.17-.54l0.3-.9a3.67,3.67,0,0,0,1.91.51,2,2,0,0,0,2.1-2.27v-0.73h0a2.32,2.32,0,0,1-2.07,1.09,2.91,2.91,0,0,1-2.77-3.17c0-2.21,1.44-3.46,2.93-3.46a2.16,2.16,0,0,1,2,1.13h0l0.05-1h1Zm-1.22,2.57a1.69,1.69,0,0,0-.07-0.54,1.71,1.71,0,0,0-1.65-1.25c-1.13,0-1.94,1-1.94,2.46,0,1.28.65,2.34,1.92,2.34a1.73,1.73,0,0,0,1.64-1.21,2.05,2.05,0,0,0,.09-0.63v-1.17Z" transform="translate(-1465.61 -240.78)"/><path class="cls-8" d="M1614.42,533.42a0.73,0.73,0,0,1-1.47,0,0.72,0.72,0,0,1,.74-0.74A0.7,0.7,0,0,1,1614.42,533.42Zm-1.32,8.33v-6.51h1.18v6.51h-1.18Z" transform="translate(-1465.61 -240.78)"/><path class="cls-8" d="M1616.25,537c0-.67,0-1.22-0.05-1.76h1l0.07,1.08h0a2.39,2.39,0,0,1,2.15-1.22c0.9,0,2.3.54,2.3,2.77v3.89h-1.18V538c0-1-.39-1.92-1.51-1.92a1.68,1.68,0,0,0-1.59,1.21,1.7,1.7,0,0,0-.08.55v3.91h-1.18V537Z" transform="translate(-1465.61 -240.78)"/><path class="cls-8" d="M1627.31,541.75l-0.09-.82h0a2.42,2.42,0,0,1-2,1,1.85,1.85,0,0,1-2-1.87c0-1.57,1.4-2.43,3.91-2.42v-0.13a1.34,1.34,0,0,0-1.48-1.51,3.24,3.24,0,0,0-1.69.48l-0.27-.78a4,4,0,0,1,2.14-.58c2,0,2.47,1.36,2.47,2.66v2.43a9.22,9.22,0,0,0,.11,1.56h-1.08Zm-0.17-3.32c-1.29,0-2.76.2-2.76,1.47a1,1,0,0,0,1.12,1.13,1.62,1.62,0,0,0,1.57-1.09,1.21,1.21,0,0,0,.07-0.38v-1.13Z" transform="translate(-1465.61 -240.78)"/><path class="cls-8" d="M1630.18,532.21h1.18v9.54h-1.18v-9.54Z" transform="translate(-1465.61 -240.78)"/><path class="cls-8" d="M1719.46,560.36c0,3.12-1.9,4.77-4.21,4.77s-4.07-1.85-4.07-4.6,1.79-4.76,4.21-4.76S1719.46,557.68,1719.46,560.36Zm-7,.15c0,1.94,1,3.67,2.89,3.67s2.9-1.71,2.9-3.76c0-1.8-.94-3.68-2.89-3.68S1712.43,558.52,1712.43,560.51Z" transform="translate(-1465.61 -240.78)"/><path class="cls-8" d="M1720.94,560.51c0-.77,0-1.42-0.05-2h1l0,1.28H1722a2,2,0,0,1,1.8-1.42,1.28,1.28,0,0,1,.34,0v1.12a1.78,1.78,0,0,0-.4,0,1.66,1.66,0,0,0-1.59,1.52,3.29,3.29,0,0,0-.05.55V565h-1.17v-4.48Z" transform="translate(-1465.61 -240.78)"/><path class="cls-8" d="M1730.83,558.48c0,0.47-.05,1-0.05,1.79V564a3.74,3.74,0,0,1-.93,3,3.45,3.45,0,0,1-2.37.78,4.2,4.2,0,0,1-2.17-.54l0.3-.9a3.67,3.67,0,0,0,1.91.51,2,2,0,0,0,2.1-2.27v-0.73h0a2.32,2.32,0,0,1-2.07,1.09,2.91,2.91,0,0,1-2.77-3.17c0-2.21,1.44-3.46,2.93-3.46a2.16,2.16,0,0,1,2,1.13h0l0.05-1h1Zm-1.22,2.57a1.69,1.69,0,0,0-.07-0.54,1.71,1.71,0,0,0-1.65-1.25c-1.13,0-1.94,1-1.94,2.46,0,1.28.65,2.34,1.92,2.34a1.73,1.73,0,0,0,1.64-1.21,2.05,2.05,0,0,0,.09-0.63v-1.17Z" transform="translate(-1465.61 -240.78)"/><path class="cls-8" d="M1736.34,565l-0.09-.82h0a2.42,2.42,0,0,1-2,1,1.85,1.85,0,0,1-2-1.87c0-1.57,1.4-2.43,3.91-2.42v-0.13a1.34,1.34,0,0,0-1.48-1.51,3.24,3.24,0,0,0-1.69.48l-0.27-.78a4,4,0,0,1,2.14-.58c2,0,2.47,1.36,2.47,2.66v2.43a9.22,9.22,0,0,0,.11,1.56h-1.08Zm-0.17-3.32c-1.29,0-2.76.2-2.76,1.47a1,1,0,0,0,1.12,1.13,1.62,1.62,0,0,0,1.57-1.09,1.21,1.21,0,0,0,.07-0.38v-1.13Z" transform="translate(-1465.61 -240.78)"/><path class="cls-8" d="M1739.21,560.24c0-.67,0-1.22-0.05-1.76h1l0.07,1.08h0a2.39,2.39,0,0,1,2.15-1.22c0.9,0,2.3.54,2.3,2.77V565h-1.18v-3.75c0-1-.39-1.92-1.51-1.92a1.68,1.68,0,0,0-1.59,1.21,1.7,1.7,0,0,0-.08.55V565h-1.18v-4.75Z" transform="translate(-1465.61 -240.78)"/><path class="cls-8" d="M1748,556.65a0.73,0.73,0,0,1-1.47,0,0.72,0.72,0,0,1,.74-0.74A0.7,0.7,0,0,1,1748,556.65Zm-1.32,8.33v-6.51h1.18V565h-1.18Z" transform="translate(-1465.61 -240.78)"/><path class="cls-8" d="M1749.07,564.3l2.94-3.83c0.28-.35.55-0.66,0.85-1v0h-3.52v-1h5v0.74l-2.9,3.78c-0.27.36-.54,0.69-0.83,1v0h3.8V565h-5.28V564.3Z" transform="translate(-1465.61 -240.78)"/><path class="cls-8" d="M1756.13,562a2.08,2.08,0,0,0,2.23,2.26,4.28,4.28,0,0,0,1.8-.34l0.2,0.85a5.27,5.27,0,0,1-2.17.4,3,3,0,0,1-3.2-3.28c0-2,1.16-3.51,3.05-3.51,2.12,0,2.69,1.87,2.69,3.06a4.63,4.63,0,0,1,0,.55h-4.57Zm3.47-.85a1.68,1.68,0,0,0-1.64-1.92,2,2,0,0,0-1.82,1.92h3.46Z" transform="translate(-1465.61 -240.78)"/><path class="cls-8" d="M1762.2,560.51c0-.77,0-1.42-0.05-2h1l0,1.28h0.05a2,2,0,0,1,1.8-1.42,1.28,1.28,0,0,1,.34,0v1.12a1.78,1.78,0,0,0-.4,0,1.66,1.66,0,0,0-1.59,1.52,3.29,3.29,0,0,0-.05.55V565h-1.17v-4.48Z" transform="translate(-1465.61 -240.78)"/><path class="cls-8" d="M1748.42,432.58a5.8,5.8,0,0,1-2.39.43,4.23,4.23,0,0,1-4.48-4.58,4.51,4.51,0,0,1,4.73-4.76,4.86,4.86,0,0,1,2.15.4l-0.28,1a4.25,4.25,0,0,0-1.83-.38c-2.12,0-3.54,1.36-3.54,3.74a3.29,3.29,0,0,0,3.48,3.64,4.68,4.68,0,0,0,1.91-.38Z" transform="translate(-1465.61 -240.78)"/><path class="cls-8" d="M1755.58,429.57a3.18,3.18,0,0,1-3.24,3.46,3.09,3.09,0,0,1-3.12-3.35,3.18,3.18,0,0,1,3.23-3.46A3.08,3.08,0,0,1,1755.58,429.57Zm-5.16.07c0,1.42.82,2.5,2,2.5s2-1.06,2-2.53c0-1.1-.55-2.5-1.95-2.5S1750.42,428.4,1750.42,429.63Z" transform="translate(-1465.61 -240.78)"/><path class="cls-8" d="M1757.07,428.13c0-.67,0-1.22-0.05-1.76h1l0.07,1.08h0a2.39,2.39,0,0,1,2.15-1.22c0.9,0,2.3.54,2.3,2.77v3.89h-1.18v-3.75c0-1-.39-1.92-1.51-1.92a1.68,1.68,0,0,0-1.59,1.21,1.7,1.7,0,0,0-.08.55v3.91h-1.18v-4.75Z" transform="translate(-1465.61 -240.78)"/><path class="cls-8" d="M1764.53,428.13c0-.67,0-1.22-0.05-1.76h1l0.07,1.08h0a2.39,2.39,0,0,1,2.15-1.22c0.9,0,2.3.54,2.3,2.77v3.89h-1.18v-3.75c0-1-.39-1.92-1.51-1.92a1.68,1.68,0,0,0-1.59,1.21,1.7,1.7,0,0,0-.08.55v3.91h-1.18v-4.75Z" transform="translate(-1465.61 -240.78)"/><path class="cls-8" d="M1772.65,429.83a2.08,2.08,0,0,0,2.23,2.26,4.28,4.28,0,0,0,1.8-.34l0.2,0.85a5.27,5.27,0,0,1-2.17.4,3,3,0,0,1-3.2-3.28c0-2,1.16-3.51,3.05-3.51,2.12,0,2.69,1.87,2.69,3.06a4.63,4.63,0,0,1,0,.55h-4.57Zm3.47-.85a1.68,1.68,0,0,0-1.64-1.92,2,2,0,0,0-1.82,1.92h3.46Z" transform="translate(-1465.61 -240.78)"/><path class="cls-8" d="M1783.36,432.63a4.35,4.35,0,0,1-1.87.38,3.09,3.09,0,0,1-3.24-3.32,3.31,3.31,0,0,1,3.5-3.45,4,4,0,0,1,1.64.34l-0.27.91a2.74,2.74,0,0,0-1.37-.31,2.45,2.45,0,0,0,0,4.89,3.37,3.37,0,0,0,1.45-.32Z" transform="translate(-1465.61 -240.78)"/><path class="cls-8" d="M1786.34,424.5v1.87H1788v0.9h-1.69v3.51c0,0.81.23,1.26,0.89,1.26a2.65,2.65,0,0,0,.69-0.08l0.05,0.89a2.9,2.9,0,0,1-1,.16,1.64,1.64,0,0,1-1.28-.5,2.41,2.41,0,0,1-.46-1.69v-3.55h-1v-0.9h1v-1.56Z" transform="translate(-1465.61 -240.78)"/><path class="cls-8" d="M1795.17,429.57a3.18,3.18,0,0,1-3.24,3.46,3.09,3.09,0,0,1-3.12-3.35,3.18,3.18,0,0,1,3.23-3.46A3.08,3.08,0,0,1,1795.17,429.57Zm-5.16.07c0,1.42.82,2.5,2,2.5s2-1.06,2-2.53c0-1.1-.55-2.5-1.95-2.5S1790,428.4,1790,429.63Z" transform="translate(-1465.61 -240.78)"/><path class="cls-8" d="M1796.66,428.4c0-.77,0-1.42-0.05-2h1l0,1.28h0.05a2,2,0,0,1,1.8-1.42,1.28,1.28,0,0,1,.34,0v1.12a1.78,1.78,0,0,0-.4,0,1.66,1.66,0,0,0-1.59,1.52,3.29,3.29,0,0,0-.05.55v3.47h-1.17V428.4Z" transform="translate(-1465.61 -240.78)"/><path class="cls-8" d="M1770.57,415.39a0.71,0.71,0,0,1-.42-0.13c-0.66-.47-16.1-11.7-16.1-20.39,0-5.51,3.83-8.85,7.6-9.3,3-.36,6.92,1.07,8.92,6,2-4.91,5.9-6.34,8.92-6,3.78,0.45,7.6,3.79,7.6,9.3,0,8.69-15.44,19.91-16.1,20.39A0.71,0.71,0,0,1,1770.57,415.39Zm-8-28.45a6.43,6.43,0,0,0-.76,0c-3.15.38-6.35,3.21-6.35,7.88,0,7.22,12.62,17.06,15.09,18.92,2.47-1.86,15.09-11.7,15.09-18.92,0-4.68-3.19-7.5-6.35-7.88-3-.36-6.65,1.31-8.05,7.07a0.74,0.74,0,0,1-1.39,0C1768.6,388.79,1765.4,386.94,1762.59,386.94Z" transform="translate(-1465.61 -240.78)"/><path class="cls-8" d="M1770.51,405.55a4.48,4.48,0,0,1-4.47-4.47c0-2.21,3.46-8.22,3.86-8.9a0.74,0.74,0,0,1,1.23,0c0.39,0.68,3.86,6.7,3.86,8.9A4.48,4.48,0,0,1,1770.51,405.55Zm0-11.57c-1.37,2.48-3,5.91-3,7.1a3,3,0,1,0,6.09,0C1773.56,399.89,1771.89,396.46,1770.51,394Z" transform="translate(-1465.61 -240.78)"/><path class="cls-9" d="M1618.84,509.91h1.24a3.73,3.73,0,1,1,0,7.46h-1.24" transform="translate(-1465.61 -240.78)"/><path class="cls-9" d="M1618.69,495.07c1.28,2-.62,3-1.06,4.08a1.92,1.92,0,0,0,1.1,2.65C1622.34,503.31,1623.41,496.21,1618.69,495.07Z" transform="translate(-1465.61 -240.78)"/><line class="cls-9" x1="149.5" y1="266.64" x2="152.75" y2="260.82"/><line class="cls-9" x1="154.03" y1="261.24" x2="151.99" y2="266.64"/><polyline class="cls-9" points="138.63 266.56 136.45 262.51 135.82 258.78 138.93 260.65 142.36 266.56"/><line class="cls-9" x1="136.45" y1="262.91" x2="138.93" y2="261.05"/><polyline class="cls-9" points="148.26 266.62 148.26 253.81 143.28 253.81 143.28 266.62"/><line class="cls-9" x1="148.26" y1="256.7" x2="145.77" y2="256.7"/><line class="cls-9" x1="148.26" y1="259.18" x2="147.01" y2="259.18"/><line class="cls-9" x1="148.26" y1="261.67" x2="145.77" y2="261.67"/><line class="cls-9" x1="148.26" y1="264.16" x2="147.01" y2="264.16"/><path class="cls-9" d="M1612.85,507.42h6.1v9.7c0,4.46-3.89,6.15-8.36,6.15h0c-4.46,0-8.12-2.09-8.12-6.56v-9.29h10.36" transform="translate(-1465.61 -240.78)"/><path class="cls-8" d="M1633.31,367.59h-4.63a0.46,0.46,0,1,1,0-.93h4.63A0.46,0.46,0,1,1,1633.31,367.59Z" transform="translate(-1465.61 -240.78)"/><path class="cls-8" d="M1633.31,370.08h-4.63a0.46,0.46,0,0,1,0-.93h4.63A0.46,0.46,0,1,1,1633.31,370.08Z" transform="translate(-1465.61 -240.78)"/><path class="cls-8" d="M1631,371.32a0.46,0.46,0,0,1-.46-0.46v-0.93a0.46,0.46,0,1,1,.93,0v0.93A0.46,0.46,0,0,1,1631,371.32Z" transform="translate(-1465.61 -240.78)"/><path class="cls-8" d="M1633.31,365.1h-4.63a0.46,0.46,0,0,1-.46-0.46v-0.89a8.42,8.42,0,0,1-6-7.9,8.81,8.81,0,0,1,17.59,0,8.42,8.42,0,0,1-6,7.9v0.89A0.46,0.46,0,0,1,1633.31,365.1Zm-4.17-.93h3.7V363.4a0.46,0.46,0,0,1,.34-0.45,7.52,7.52,0,0,0,5.68-7.11,7.89,7.89,0,0,0-15.74,0,7.52,7.52,0,0,0,5.68,7.11,0.46,0.46,0,0,1,.34.45v0.78Z" transform="translate(-1465.61 -240.78)"/><path class="cls-8" d="M1628.58,356.13a0.57,0.57,0,0,1-.21-1.09l4.69-1.91a0.57,0.57,0,0,1,.43,1l-4.69,1.91A0.56,0.56,0,0,1,1628.58,356.13Z" transform="translate(-1465.61 -240.78)"/><path class="cls-8" d="M1628.92,359.05a0.57,0.57,0,0,1-.21-1.09l4-1.62a0.57,0.57,0,0,1,.43,1l-4,1.62A0.56,0.56,0,0,1,1628.92,359.05Z" transform="translate(-1465.61 -240.78)"/><path class="cls-8" d="M1629.56,361.92a0.57,0.57,0,0,1-.21-1.09l2.68-1.09a0.57,0.57,0,0,1,.43,1l-2.68,1.09A0.56,0.56,0,0,1,1629.56,361.92Z" transform="translate(-1465.61 -240.78)"/><path class="cls-8" d="M1681.59,344.55a0.44,0.44,0,0,1-.2,0,6.79,6.79,0,0,1-3.77-6.11v-7.52a0.44,0.44,0,0,1,.88,0v7.52a5.92,5.92,0,0,0,3.29,5.32A0.44,0.44,0,0,1,1681.59,344.55Z" transform="translate(-1465.61 -240.78)"/><path class="cls-8" d="M1690.13,341.9a0.44,0.44,0,0,1-.18,0l-0.81-.37a28.47,28.47,0,0,0-14-3.12h-0.88a3.09,3.09,0,0,1-3.09-3.09v-1.76a3.09,3.09,0,0,1,3.09-3.09h0.88a28.46,28.46,0,0,0,14-3.12l0.82-.37a0.44,0.44,0,0,1,.62.4v4.85a1.77,1.77,0,0,1,1.76,1.76v0.88a1.77,1.77,0,0,1-1.76,1.76v4.85A0.44,0.44,0,0,1,1690.13,341.9Zm-15.88-10.59a2.21,2.21,0,0,0-2.21,2.21v1.76a2.21,2.21,0,0,0,2.21,2.21h0.88a29.21,29.21,0,0,1,14.38,3.2l0.19,0.08V328l-0.19.09a29.21,29.21,0,0,1-14.37,3.2h-0.88Zm16.33,1.76v2.65a0.88,0.88,0,0,0,.88-0.88V334A0.88,0.88,0,0,0,1690.57,333.08Z" transform="translate(-1465.61 -240.78)"/><g id="Outline_Icons" data-name="Outline Icons"><path class="cls-10" d="M1747.4,522.66h1.26A1.36,1.36,0,0,1,1750,524v21a1.36,1.36,0,0,1-1.36,1.36H1731a1.36,1.36,0,0,1-1.36-1.36V524a1.36,1.36,0,0,1,1.36-1.36h1.26" transform="translate(-1465.61 -240.78)"/><path class="cls-10" d="M1743,522.66a1.12,1.12,0,0,1-1.06-.74,2.26,2.26,0,0,0-4.27,0,1.12,1.12,0,0,1-1.06.74h-1.33a1.13,1.13,0,0,0-1.13,1.13h0a1.13,1.13,0,0,0,1.13,1.13h9a1.13,1.13,0,0,0,1.13-1.13h0a1.13,1.13,0,0,0-1.13-1.13H1743Z" transform="translate(-1465.61 -240.78)"/><polyline class="cls-10" points="282.14 284.14 282.14 303.37 266.31 303.37 266.31 284.14"/><line class="cls-10" x1="272.96" y1="288.67" x2="278.75" y2="288.67"/><line class="cls-10" x1="272.96" y1="292.06" x2="278.75" y2="292.06"/><line class="cls-10" x1="272.96" y1="295.45" x2="278.75" y2="295.45"/><line class="cls-10" x1="272.96" y1="298.85" x2="278.75" y2="298.85"/><line class="cls-10" x1="269.14" y1="292.06" x2="269.7" y2="292.06"/><line class="cls-10" x1="269.14" y1="298.85" x2="269.7" y2="298.85"/></g><polyline class="cls-10" points="270.85 294.16 269.5 295.89 268.8 295.2"/><polyline class="cls-10" points="270.85 287.81 269.5 289.54 268.8 288.85"/><path class="cls-10" d="M1593.18,405h0c-2.73,2.74-11,5-11,5,0,8.73.55,16.4,11,20.26,10.42-3.86,11-11.53,11-20.26C1604.13,410,1595.91,407.78,1593.18,405Z" transform="translate(-1465.61 -240.78)"/><path class="cls-10" d="M1593.17,408.34h0c-2,2-8.1,3.66-8.1,3.66,0,6.45.41,12.13,8.11,15,7.7-2.85,8.11-8.53,8.11-15C1601.27,412,1595.19,410.36,1593.17,408.34Z" transform="translate(-1465.61 -240.78)"/><line class="cls-10" x1="119.61" y1="175.62" x2="127.62" y2="167.61"/><line class="cls-10" x1="120.63" y1="180.08" x2="131.07" y2="169.63"/><line class="cls-10" x1="122.83" y1="183.36" x2="135.11" y2="171.08"/><line class="cls-10" x1="126.22" y1="185.45" x2="135.45" y2="176.23"/><path class="cls-6" d="M1874.78,373.39a5.91,5.91,0,0,0,3.11,1,2.89,2.89,0,0,0,3.18-3c0-2.18-1.79-3.12-3.63-3.12h-1.06v-1.58h1.06c1.38,0,3.13-.79,3.13-2.64a2.22,2.22,0,0,0-2.46-2.35,4.83,4.83,0,0,0-2.81,1l-0.5-1.54a6.22,6.22,0,0,1,3.67-1.2,3.65,3.65,0,0,1,4,3.72,3.83,3.83,0,0,1-2.59,3.67v0a4,4,0,0,1,3.13,4c0,2.5-1.75,4.68-5.12,4.68a6.61,6.61,0,0,1-3.65-1.06Z" transform="translate(-1465.61 -240.78)"/><path class="cls-6" d="M1895.28,367.85c0,5.3-1.77,8.23-4.88,8.23-2.74,0-4.6-2.86-4.64-8s2-8.11,4.88-8.11S1895.28,362.88,1895.28,367.85Zm-7.63.24c0,4.06,1.12,6.36,2.85,6.36,1.94,0,2.87-2.52,2.87-6.5s-0.89-6.36-2.85-6.36C1888.86,361.58,1887.65,363.84,1887.65,368.09Z" transform="translate(-1465.61 -240.78)"/><path class="cls-6" d="M1903.9,364.61c0,3.29-1.56,4.92-3.37,4.92s-3.26-1.56-3.28-4.71,1.53-4.87,3.39-4.87S1903.9,361.63,1903.9,364.61Zm-5.14.14c0,2,.63,3.5,1.81,3.5s1.81-1.49,1.81-3.55c0-1.9-.5-3.48-1.81-3.48S1898.76,362.78,1898.76,364.75Zm1.64,11.33,8.25-16.13h1.21l-8.25,16.13h-1.21Zm12.64-5c0,3.29-1.56,4.92-3.35,4.92s-3.26-1.56-3.28-4.68,1.53-4.9,3.39-4.9S1913,368.09,1913,371.07Zm-5.14.14c0,2,.67,3.5,1.84,3.5s1.82-1.49,1.82-3.55c0-1.9-.5-3.48-1.82-3.48S1907.89,369.24,1907.89,371.21Z" transform="translate(-1465.61 -240.78)"/><path class="cls-11" d="M1666.11,242.82h-5.36l-0.54,4a6.69,6.69,0,0,1,1.15-.1,5.48,5.48,0,0,1,3,.84,4.56,4.56,0,0,1,2,4,5.12,5.12,0,0,1-5.23,5.33,6.35,6.35,0,0,1-3.5-1l0.48-1.61a5.81,5.81,0,0,0,3,.86,3.25,3.25,0,0,0,3.33-3.38c0-2-1.23-3.46-4-3.46a13.08,13.08,0,0,0-1.94.17l0.91-7.49h6.72v1.78Z" transform="translate(-1465.61 -240.78)"/><path class="cls-11" d="M1675.68,245.43c0,3.29-1.56,4.92-3.37,4.92s-3.26-1.56-3.28-4.71,1.53-4.87,3.39-4.87S1675.68,242.46,1675.68,245.43Zm-5.14.14c0,2,.63,3.5,1.81,3.5s1.81-1.49,1.81-3.55c0-1.9-.5-3.48-1.81-3.48S1670.54,243.61,1670.54,245.58Zm1.64,11.33,8.25-16.13h1.21l-8.25,16.13h-1.21Zm12.64-5c0,3.29-1.56,4.92-3.35,4.92s-3.26-1.56-3.28-4.68,1.53-4.9,3.39-4.9S1684.82,248.91,1684.82,251.89Zm-5.14.14c0,2,.67,3.5,1.84,3.5s1.82-1.49,1.82-3.55c0-1.9-.5-3.48-1.82-3.48S1679.68,250.07,1679.68,252Z" transform="translate(-1465.61 -240.78)"/><path class="cls-12" d="M1540,284.48h0l-2.44,1.46-0.37-1.61,3.07-1.82h1.62v15.6H1540V284.48Z" transform="translate(-1465.61 -240.78)"/><path class="cls-12" d="M1556.8,290.14c0,5.3-1.77,8.23-4.88,8.23-2.74,0-4.6-2.86-4.64-8s2-8.11,4.88-8.11S1556.8,285.17,1556.8,290.14Zm-7.63.24c0,4.06,1.12,6.36,2.85,6.36,1.94,0,2.87-2.52,2.87-6.5s-0.89-6.36-2.85-6.36C1550.39,283.88,1549.18,286.14,1549.18,290.38Z" transform="translate(-1465.61 -240.78)"/><path class="cls-12" d="M1565.42,286.9c0,3.29-1.56,4.92-3.37,4.92s-3.26-1.56-3.28-4.71,1.53-4.87,3.39-4.87S1565.42,283.93,1565.42,286.9Zm-5.14.14c0,2,.63,3.5,1.81,3.5s1.81-1.49,1.81-3.55c0-1.9-.5-3.48-1.81-3.48S1560.28,285.08,1560.28,287Zm1.64,11.33,8.25-16.13h1.21l-8.25,16.13h-1.21Zm12.64-5c0,3.29-1.56,4.92-3.35,4.92s-3.26-1.56-3.28-4.68,1.53-4.9,3.39-4.9S1574.56,290.38,1574.56,293.36Zm-5.14.14c0,2,.67,3.5,1.84,3.5s1.82-1.49,1.82-3.55c0-1.9-.5-3.48-1.82-3.48S1569.42,291.54,1569.42,293.5Z" transform="translate(-1465.61 -240.78)"/><path class="cls-13" d="M1795.89,651.46v-1.3l1.49-1.61c3.59-3.79,5.21-5.81,5.23-8.16,0-1.58-.69-3-2.79-3a4.54,4.54,0,0,0-3,1.32l-0.6-1.49a5.81,5.81,0,0,1,4-1.58c3,0,4.3,2.3,4.3,4.54,0,2.88-1.88,5.21-4.84,8.38l-1.12,1.15v0h6.31v1.75h-9Z" transform="translate(-1465.61 -240.78)"/><path class="cls-13" d="M1815.89,637.63h-5.36l-0.54,4a6.69,6.69,0,0,1,1.15-.1,5.48,5.48,0,0,1,3,.84,4.56,4.56,0,0,1,2,4,5.12,5.12,0,0,1-5.23,5.33,6.35,6.35,0,0,1-3.5-1l0.48-1.61a5.81,5.81,0,0,0,3,.86,3.25,3.25,0,0,0,3.33-3.38c0-2-1.23-3.46-4-3.46a13.08,13.08,0,0,0-1.94.17l0.91-7.49h6.72v1.78Z" transform="translate(-1465.61 -240.78)"/><path class="cls-13" d="M1825.46,640.25c0,3.29-1.56,4.92-3.37,4.92s-3.26-1.56-3.28-4.71,1.53-4.87,3.39-4.87S1825.46,637.27,1825.46,640.25Zm-5.14.14c0,2,.63,3.5,1.81,3.5s1.81-1.49,1.81-3.55c0-1.9-.5-3.48-1.81-3.48S1820.32,638.42,1820.32,640.39Zm1.64,11.33,8.25-16.13h1.21l-8.25,16.13H1822Zm12.64-5c0,3.29-1.56,4.92-3.35,4.92s-3.26-1.56-3.28-4.68,1.53-4.9,3.39-4.9S1834.6,643.73,1834.6,646.71Zm-5.14.14c0,2,.67,3.5,1.84,3.5s1.82-1.49,1.82-3.55c0-1.9-.5-3.48-1.82-3.48S1829.46,644.88,1829.46,646.85Z" transform="translate(-1465.61 -240.78)"/><path class="cls-4" d="M1484.78,576.51v-1.3l1.49-1.61c3.59-3.79,5.21-5.81,5.23-8.16,0-1.58-.69-3-2.79-3a4.54,4.54,0,0,0-3,1.32l-0.6-1.49a5.81,5.81,0,0,1,4-1.58c3,0,4.3,2.3,4.3,4.54,0,2.88-1.88,5.21-4.84,8.38l-1.12,1.15v0h6.31v1.75h-9Z" transform="translate(-1465.61 -240.78)"/><path class="cls-4" d="M1505.74,568.54c0,5.3-1.77,8.23-4.88,8.23-2.74,0-4.6-2.86-4.64-8s2-8.11,4.88-8.11S1505.74,563.57,1505.74,568.54Zm-7.63.24c0,4.06,1.12,6.36,2.85,6.36,1.94,0,2.87-2.52,2.87-6.5s-0.89-6.36-2.85-6.36C1499.32,562.27,1498.11,564.53,1498.11,568.78Z" transform="translate(-1465.61 -240.78)"/><path class="cls-4" d="M1514.35,565.3c0,3.29-1.56,4.92-3.37,4.92s-3.26-1.56-3.28-4.71,1.53-4.87,3.39-4.87S1514.35,562.32,1514.35,565.3Zm-5.14.14c0,2,.63,3.5,1.81,3.5s1.81-1.49,1.81-3.55c0-1.9-.5-3.48-1.81-3.48S1509.21,563.47,1509.21,565.44Zm1.64,11.33,8.25-16.13h1.21l-8.25,16.13h-1.21Zm12.64-5c0,3.29-1.56,4.92-3.35,4.92s-3.26-1.56-3.28-4.68,1.53-4.9,3.39-4.9S1523.49,568.78,1523.49,571.76Zm-5.14.14c0,2,.67,3.5,1.84,3.5s1.82-1.49,1.82-3.55c0-1.9-.5-3.48-1.82-3.48S1518.35,569.93,1518.35,571.9Z" transform="translate(-1465.61 -240.78)"/><path class="cls-14" d="M1468.46,393.49h0L1466,395l-0.37-1.61,3.07-1.82h1.62v15.6h-1.84V393.49Z" transform="translate(-1465.61 -240.78)"/><path class="cls-14" d="M1485.29,399.15c0,5.3-1.77,8.23-4.88,8.23-2.74,0-4.6-2.86-4.64-8s2-8.11,4.88-8.11S1485.29,394.18,1485.29,399.15Zm-7.63.24c0,4.06,1.12,6.36,2.85,6.36,1.94,0,2.87-2.52,2.87-6.5s-0.89-6.36-2.85-6.36C1478.87,392.89,1477.66,395.15,1477.66,399.39Z" transform="translate(-1465.61 -240.78)"/><path class="cls-14" d="M1493.91,395.91c0,3.29-1.56,4.92-3.37,4.92s-3.26-1.56-3.28-4.71,1.53-4.87,3.39-4.87S1493.91,392.94,1493.91,395.91Zm-5.14.14c0,2,.63,3.5,1.81,3.5s1.81-1.49,1.81-3.55c0-1.9-.5-3.48-1.81-3.48S1488.77,394.09,1488.77,396.06Zm1.64,11.33,8.25-16.13h1.21l-8.25,16.13h-1.21Zm12.64-5c0,3.29-1.56,4.92-3.35,4.92s-3.26-1.56-3.28-4.68,1.53-4.9,3.39-4.9S1503,399.39,1503,402.37Zm-5.14.14c0,2,.67,3.5,1.84,3.5s1.82-1.49,1.82-3.55c0-1.9-.5-3.48-1.82-3.48S1497.9,400.55,1497.9,402.51Z" transform="translate(-1465.61 -240.78)"/></svg>