<svg id="Layer_1" data-name="Layer 1" xmlns="http://www.w3.org/2000/svg" viewBox="0 0 339.2 48.3"><defs><style>.cls-1{font-size:20px;fill:#774395;font-family:Klavika Regular;}.cls-2,.cls-3{font-family:Klavika Light;}.cls-2,.cls-6{white-space:pre;}.cls-4{font-size:11px;fill:#2a2d30;font-family:Superclarendon;opacity:0.6;}.cls-5{font-weight:700;}</style></defs><title>commitment</title><text class="cls-1" transform="translate(15.61 16.74) scale(0.97 1)">M<tspan x="16.82" y="0">i</tspan><tspan x="22" y="0">r</tspan><tspan x="28.84" y="0">osl</tspan><tspan x="53.96" y="0">a</tspan><tspan x="63.94" y="0">v</tspan><tspan x="74.06" y="0"> </tspan><tspan x="77.98" y="0">T</tspan><tspan x="87" y="0">estman,</tspan><tspan class="cls-2" x="156.62" y="0">  </tspan><tspan class="cls-3" x="166.1" y="0">P</tspan><tspan class="cls-3" x="176.92" y="0">r</tspan><tspan class="cls-3" x="183.76" y="0">odu</tspan><tspan class="cls-3" x="218.54" y="0">c</tspan><tspan class="cls-3" x="228.26" y="0">t </tspan><tspan class="cls-3" x="240.12" y="0">M</tspan><tspan class="cls-3" x="256.82" y="0">anager</tspan></text><text class="cls-4" transform="translate(0 43.1)">“I’m an <tspan class="cls-5" x="48.07" y="0">A</tspan><tspan class="cls-5" x="57.45" y="0">d</tspan><tspan class="cls-5" x="65.43" y="0">visor</tspan><tspan class="cls-6" x="99.79" y="0"> a</tspan><tspan x="111.22" y="0">n</tspan><tspan x="119.19" y="0">d </tspan><tspan x="131.11" y="0">m</tspan><tspan x="141.93" y="0">y superp</tspan><tspan x="195.67" y="0">o</tspan><tspan x="202.43" y="0">w</tspan><tspan x="213.28" y="0">er is </tspan><tspan class="cls-5" x="244.48" y="0">Commitme</tspan><tspan class="cls-5" x="316.55" y="0">n</tspan><tspan class="cls-5" x="325.51" y="0">t</tspan><tspan x="331.01" y="0">.</tspan><tspan x="333.95" y="0">”</tspan></text></svg>