<svg id="Layer_1" data-name="Layer 1" xmlns="http://www.w3.org/2000/svg" viewBox="0 0 64.99 64.99"><defs><style>.cls-1{fill:#ff6c36;}.cls-2{fill:#fff;}</style></defs><title>connector-icon</title><circle class="cls-1" cx="32.5" cy="32.5" r="32.5"/><path class="cls-2" d="M1222.5,288.22a0.73,0.73,0,0,1-.43-0.14c-0.67-.49-16.51-12-16.51-20.91,0-5.65,3.92-9.07,7.8-9.54,3.09-.37,7.1,1.09,9.14,6.13,2-5,6.05-6.51,9.14-6.13,3.87,0.46,7.8,3.89,7.8,9.54,0,8.91-15.84,20.42-16.51,20.91A0.73,0.73,0,0,1,1222.5,288.22ZM1214.32,259a6.58,6.58,0,0,0-.78,0c-3.23.39-6.51,3.29-6.51,8.08,0,7.4,12.94,17.5,15.48,19.4,2.54-1.91,15.48-12,15.48-19.4,0-4.79-3.27-7.7-6.51-8.08-3-.36-6.82,1.35-8.26,7.25a0.76,0.76,0,0,1-1.42,0C1220.47,260.94,1217.2,259,1214.32,259Z" transform="translate(-1189.63 -239.3)"/><path class="cls-2" d="M1222.44,278.12a4.59,4.59,0,0,1-4.59-4.59c0-2.26,3.55-8.43,4-9.13a0.76,0.76,0,0,1,1.27,0c0.4,0.7,4,6.87,4,9.13A4.59,4.59,0,0,1,1222.44,278.12Zm0-11.86c-1.41,2.55-3.12,6.06-3.12,7.28a3.12,3.12,0,1,0,6.25,0C1225.57,272.32,1223.85,268.8,1222.44,266.26Z" transform="translate(-1189.63 -239.3)"/></svg>