<svg id="Layer_1" data-name="Layer 1" xmlns="http://www.w3.org/2000/svg" viewBox="0 0 75.12 15.9"><defs><style>.cls-1{fill:#424143;}</style></defs><title>connector-text</title><path class="cls-1" d="M1205.17,210.26a7.47,7.47,0,0,1-3.08.55c-3.29,0-5.76-2.08-5.76-5.9a5.8,5.8,0,0,1,6.09-6.13,6.25,6.25,0,0,1,2.77.52l-0.36,1.23a5.49,5.49,0,0,0-2.35-.48c-2.73,0-4.55,1.75-4.55,4.81,0,2.85,1.64,4.69,4.48,4.69a6,6,0,0,0,2.46-.48Z" transform="translate(-1196.33 -198.79)"/><path class="cls-1" d="M1214.39,206.39a4.09,4.09,0,0,1-4.17,4.45,4,4,0,0,1-4-4.31,4.09,4.09,0,0,1,4.15-4.45A4,4,0,0,1,1214.39,206.39Zm-6.64.09c0,1.83,1.05,3.22,2.54,3.22s2.54-1.37,2.54-3.25c0-1.42-.71-3.22-2.51-3.22S1207.75,204.88,1207.75,206.47Z" transform="translate(-1196.33 -198.79)"/><path class="cls-1" d="M1216.32,204.53c0-.87,0-1.57-0.07-2.27h1.35l0.09,1.38h0a3.08,3.08,0,0,1,2.77-1.57c1.16,0,3,.69,3,3.56v5h-1.52v-4.83c0-1.35-.5-2.47-1.94-2.47a2.16,2.16,0,0,0-2,1.56,2.21,2.21,0,0,0-.1.71v5h-1.52v-6.11Z" transform="translate(-1196.33 -198.79)"/><path class="cls-1" d="M1225.92,204.53c0-.87,0-1.57-0.07-2.27h1.35l0.09,1.38h0a3.08,3.08,0,0,1,2.77-1.57c1.16,0,3,.69,3,3.56v5h-1.52v-4.83c0-1.35-.5-2.47-1.94-2.47a2.23,2.23,0,0,0-2.14,2.27v5h-1.52v-6.11Z" transform="translate(-1196.33 -198.79)"/><path class="cls-1" d="M1236.38,206.73a2.68,2.68,0,0,0,2.87,2.91,5.5,5.5,0,0,0,2.32-.43l0.26,1.09a6.78,6.78,0,0,1-2.79.52,3.89,3.89,0,0,1-4.12-4.22c0-2.53,1.49-4.52,3.93-4.52,2.73,0,3.46,2.41,3.46,3.95a5.74,5.74,0,0,1-.05.71h-5.88Zm4.46-1.09a2.17,2.17,0,0,0-2.11-2.47,2.52,2.52,0,0,0-2.34,2.47h4.45Z" transform="translate(-1196.33 -198.79)"/><path class="cls-1" d="M1250.17,210.33a5.61,5.61,0,0,1-2.4.48,4,4,0,0,1-4.17-4.27,4.26,4.26,0,0,1,4.5-4.45,5.09,5.09,0,0,1,2.11.43l-0.35,1.18a3.54,3.54,0,0,0-1.77-.4,3.16,3.16,0,0,0-.05,6.3,4.32,4.32,0,0,0,1.87-.42Z" transform="translate(-1196.33 -198.79)"/><path class="cls-1" d="M1254,199.86v2.41h2.18v1.16H1254v4.52c0,1,.29,1.63,1.14,1.63a3.37,3.37,0,0,0,.88-0.1l0.07,1.14a3.73,3.73,0,0,1-1.35.21,2.11,2.11,0,0,1-1.64-.64,3.1,3.1,0,0,1-.59-2.18v-4.57h-1.3v-1.16h1.3v-2Z" transform="translate(-1196.33 -198.79)"/><path class="cls-1" d="M1265.38,206.39a4.09,4.09,0,0,1-4.17,4.45,4,4,0,0,1-4-4.31,4.09,4.09,0,0,1,4.15-4.45A4,4,0,0,1,1265.38,206.39Zm-6.64.09c0,1.83,1.05,3.22,2.54,3.22s2.54-1.37,2.54-3.25c0-1.42-.71-3.22-2.51-3.22S1258.74,204.88,1258.74,206.47Z" transform="translate(-1196.33 -198.79)"/><path class="cls-1" d="M1267.31,204.88c0-1,0-1.83-.07-2.61h1.33l0.05,1.64h0.07a2.51,2.51,0,0,1,2.32-1.83,1.63,1.63,0,0,1,.43.05v1.44a2.27,2.27,0,0,0-.52-0.05,2.14,2.14,0,0,0-2,2,4.23,4.23,0,0,0-.07.71v4.46h-1.51v-5.76Z" transform="translate(-1196.33 -198.79)"/></svg>