<svg id="Layer_1" data-name="Layer 1" xmlns="http://www.w3.org/2000/svg" viewBox="0 0 270.02 300.81"><defs><style>.cls-1,.cls-6{opacity:0.6;}.cls-2,.cls-5,.cls-6{fill:#2a2d30;}.cls-3{fill:#414042;}.cls-3,.cls-5{opacity:0.6;}.cls-4{fill:#754698;opacity:0.95;}.cls-7{fill:#468ecc;}.cls-8{fill:#7b4997;}.cls-9{fill:#ff6c36;}.cls-10{fill:#008987;}.cls-11{fill:#de4352;}.cls-12{fill:#edaa00;}.cls-13{fill:#774395;}.cls-14{fill:#d44255;}.cls-15{fill:#128985;}.cls-16{fill:#518cca;}</style></defs><title>cover2</title><g class="cls-1"><path class="cls-2" d="M199.53,299.74a15.12,15.12,0,0,1,2.5-.19,4.15,4.15,0,0,1,2.83.84,2.72,2.72,0,0,1,.89,2.12,3,3,0,0,1-.78,2.16,4.19,4.19,0,0,1-3.09,1.11,4.48,4.48,0,0,1-1-.09v4h-1.3v-10Zm1.3,4.88a4.37,4.37,0,0,0,1.08.1c1.57,0,2.53-.77,2.53-2.16s-0.94-2-2.38-2a5.47,5.47,0,0,0-1.23.1v3.93Z" transform="translate(-169.09 -200.68)"/><path class="cls-2" d="M215.75,305h-3.93v3.65h4.38v1.09h-5.68V299.62H216v1.09h-4.15v3.19h3.93V305Z" transform="translate(-169.09 -200.68)"/><path class="cls-2" d="M220.89,299.76a13.61,13.61,0,0,1,2.5-.21,4.14,4.14,0,0,1,2.92.82,2.52,2.52,0,0,1,.79,1.92,2.65,2.65,0,0,1-1.9,2.58v0a2.52,2.52,0,0,1,1.48,2,16.11,16.11,0,0,0,.78,2.77h-1.35a13.15,13.15,0,0,1-.67-2.42c-0.3-1.4-.84-1.92-2-2H222.2v4.38h-1.3v-10Zm1.3,4.6h1.33a2,2,0,0,0,2.28-1.92c0-1.31-.94-1.87-2.32-1.89a5.36,5.36,0,0,0-1.29.12v3.69Z" transform="translate(-169.09 -200.68)"/><path class="cls-2" d="M231.78,308.14a4.63,4.63,0,0,0,2.34.66c1.33,0,2.11-.7,2.11-1.72s-0.54-1.48-1.9-2c-1.65-.58-2.67-1.44-2.67-2.86s1.31-2.74,3.27-2.74a4.6,4.6,0,0,1,2.23.49L236.81,301a4,4,0,0,0-1.92-.48,1.64,1.64,0,0,0-1.9,1.52c0,0.94.61,1.41,2,1.95,1.71,0.66,2.58,1.49,2.58,3s-1.15,2.91-3.54,2.91a5.22,5.22,0,0,1-2.58-.65Z" transform="translate(-169.09 -200.68)"/><path class="cls-2" d="M251,304.57c0,3.48-2.12,5.32-4.69,5.32s-4.54-2.07-4.54-5.13,2-5.31,4.69-5.31S251,301.57,251,304.57Zm-7.84.17c0,2.16,1.17,4.09,3.22,4.09s3.24-1.9,3.24-4.2c0-2-1.05-4.11-3.23-4.11S243.15,302.52,243.15,304.74Z" transform="translate(-169.09 -200.68)"/><path class="cls-2" d="M255.69,309.73V299.62h1.42l3.24,5.11a28.56,28.56,0,0,1,1.81,3.28l0,0c-0.12-1.35-.15-2.58-0.15-4.15v-4.23h1.23v10.11H262l-3.21-5.13a32,32,0,0,1-1.89-3.37l0,0c0.07,1.27.1,2.49,0.1,4.17v4.32h-1.23Z" transform="translate(-169.09 -200.68)"/><path class="cls-2" d="M270.2,306.55l-1,3.18H267.8l3.44-10.11h1.57l3.45,10.11h-1.4l-1.08-3.18H270.2Zm3.31-1-1-2.91c-0.22-.66-0.37-1.26-0.52-1.84h0c-0.15.6-.31,1.21-0.51,1.83l-1,2.92h3Z" transform="translate(-169.09 -200.68)"/><path class="cls-2" d="M280.74,299.62H282v9h4.32v1.09h-5.62V299.62Z" transform="translate(-169.09 -200.68)"/><path class="cls-2" d="M292.13,299.62v10.11h-1.3V299.62h1.3Z" transform="translate(-169.09 -200.68)"/><path class="cls-2" d="M299.33,300.73h-3.08v-1.11h7.48v1.11h-3.09v9h-1.32v-9Z" transform="translate(-169.09 -200.68)"/><path class="cls-2" d="M310.53,309.73v-4.29l-3.19-5.82h1.48l1.43,2.79c0.39,0.77.69,1.38,1,2.08h0c0.29-.66.63-1.32,1-2.08l1.46-2.79h1.48l-3.39,5.8v4.3h-1.32Z" transform="translate(-169.09 -200.68)"/><path class="cls-2" d="M334.1,305.29c-0.08-1.41-.17-3.1-0.15-4.36h0c-0.35,1.19-.77,2.44-1.28,3.84l-1.78,4.9h-1l-1.63-4.81c-0.48-1.42-.88-2.73-1.17-3.93h0c0,1.26-.1,3-0.2,4.47l-0.27,4.33h-1.24l0.7-10.11h1.67l1.73,4.89c0.42,1.25.77,2.35,1,3.4h0c0.25-1,.61-2.13,1.06-3.4l1.8-4.89H335l0.63,10.11h-1.27Z" transform="translate(-169.09 -200.68)"/><path class="cls-2" d="M342.12,306.55l-1,3.18h-1.35l3.44-10.11h1.57l3.45,10.11h-1.39l-1.08-3.18h-3.58Zm3.31-1-1-2.91c-0.22-.66-0.37-1.26-0.52-1.84h0c-0.15.6-.31,1.21-0.51,1.83l-1,2.92h3Z" transform="translate(-169.09 -200.68)"/><path class="cls-2" d="M353.43,300.73h-3.08v-1.11h7.48v1.11h-3.09v9h-1.32v-9Z" transform="translate(-169.09 -200.68)"/><path class="cls-2" d="M364.46,300.73h-3.08v-1.11h7.48v1.11h-3.09v9h-1.32v-9Z" transform="translate(-169.09 -200.68)"/><path class="cls-2" d="M378.23,305H374.3v3.65h4.38v1.09H373V299.62h5.46v1.09H374.3v3.19h3.93V305Z" transform="translate(-169.09 -200.68)"/><path class="cls-2" d="M383.37,299.76a13.62,13.62,0,0,1,2.5-.21,4.14,4.14,0,0,1,2.92.82,2.52,2.52,0,0,1,.79,1.92,2.65,2.65,0,0,1-1.9,2.58v0a2.52,2.52,0,0,1,1.48,2,16.09,16.09,0,0,0,.78,2.77h-1.35a13.2,13.2,0,0,1-.67-2.42c-0.3-1.4-.84-1.92-2-2h-1.23v4.38h-1.3v-10Zm1.3,4.6H386a2,2,0,0,0,2.28-1.92c0-1.31-.95-1.87-2.33-1.89a5.36,5.36,0,0,0-1.29.12v3.69Z" transform="translate(-169.09 -200.68)"/><path class="cls-2" d="M394.26,308.14a4.63,4.63,0,0,0,2.34.66c1.33,0,2.12-.7,2.12-1.72s-0.54-1.48-1.91-2c-1.65-.58-2.67-1.44-2.67-2.86s1.31-2.74,3.27-2.74a4.59,4.59,0,0,1,2.23.49L399.29,301a4,4,0,0,0-1.92-.48,1.64,1.64,0,0,0-1.91,1.52c0,0.94.62,1.41,2,1.95,1.71,0.66,2.58,1.49,2.58,3s-1.16,2.91-3.54,2.91a5.22,5.22,0,0,1-2.58-.65Z" transform="translate(-169.09 -200.68)"/><path class="cls-2" d="M404.48,309a0.89,0.89,0,0,1,.9-0.95A0.95,0.95,0,1,1,404.48,309Z" transform="translate(-169.09 -200.68)"/></g><path class="cls-3" d="M212.29,429.88l-2.4-9.44h1.29l1.12,4.78c0.28,1.18.53,2.35,0.7,3.26h0c0.15-.94.45-2.06,0.77-3.28l1.26-4.76h1.27l1.15,4.79c0.27,1.12.52,2.24,0.66,3.24h0c0.2-1,.46-2.09.76-3.26l1.25-4.76h1.25l-2.68,9.44h-1.27L216.29,425a28.33,28.33,0,0,1-.62-3.08h0a29.38,29.38,0,0,1-.73,3.08l-1.34,4.92h-1.27Z" transform="translate(-169.09 -200.68)"/><path class="cls-3" d="M232.52,425.06c0,3.25-2,5-4.38,5s-4.24-1.93-4.24-4.79,1.86-5,4.38-5S232.52,422.26,232.52,425.06Zm-7.33.15c0,2,1.09,3.82,3,3.82s3-1.78,3-3.92c0-1.88-1-3.84-3-3.84S225.19,423.15,225.19,425.22Z" transform="translate(-169.09 -200.68)"/><path class="cls-3" d="M236.2,420.57a12.7,12.7,0,0,1,2.34-.2,3.86,3.86,0,0,1,2.73.77,2.35,2.35,0,0,1,.74,1.79,2.48,2.48,0,0,1-1.78,2.41v0a2.35,2.35,0,0,1,1.39,1.91,15,15,0,0,0,.73,2.59h-1.26a12.25,12.25,0,0,1-.63-2.26c-0.28-1.3-.78-1.79-1.89-1.83h-1.15v4.09H236.2v-9.31Zm1.22,4.3h1.25a1.86,1.86,0,0,0,2.13-1.79c0-1.22-.88-1.75-2.17-1.77a5,5,0,0,0-1.2.11v3.45Z" transform="translate(-169.09 -200.68)"/><path class="cls-3" d="M245.84,420.44h1.22V425h0c0.25-.36.5-0.7,0.74-1l2.89-3.54h1.51l-3.42,4,3.68,5.44h-1.44L248,425.25l-0.9,1v3.6h-1.22v-9.44Z" transform="translate(-169.09 -200.68)"/><path class="cls-3" d="M255.59,428.4a4.32,4.32,0,0,0,2.19.62,1.69,1.69,0,0,0,2-1.61c0-.88-0.5-1.39-1.78-1.88-1.54-.55-2.49-1.34-2.49-2.68s1.22-2.56,3.05-2.56a4.29,4.29,0,0,1,2.09.46l-0.34,1a3.76,3.76,0,0,0-1.79-.45,1.53,1.53,0,0,0-1.78,1.41c0,0.88.57,1.32,1.88,1.82,1.6,0.62,2.41,1.39,2.41,2.77s-1.08,2.72-3.31,2.72a4.88,4.88,0,0,1-2.41-.6Z" transform="translate(-169.09 -200.68)"/><path class="cls-3" d="M266.61,421.48h-2.87v-1h7v1h-2.89v8.4h-1.23v-8.4Z" transform="translate(-169.09 -200.68)"/><path class="cls-3" d="M276.42,429.88v-4l-3-5.43h1.39l1.33,2.61c0.36,0.71.64,1.29,0.94,1.95h0c0.27-.62.59-1.23,1-1.95l1.36-2.61h1.39l-3.17,5.42v4h-1.23Z" transform="translate(-169.09 -200.68)"/><path class="cls-3" d="M284,420.44h1.22v8.42h4v1H284v-9.44Z" transform="translate(-169.09 -200.68)"/><path class="cls-3" d="M297.45,425.46h-3.67v3.4h4.09v1h-5.31v-9.44h5.1v1h-3.88v3h3.67v1Z" transform="translate(-169.09 -200.68)"/><path class="cls-3" d="M306.7,420.57a12.7,12.7,0,0,1,2.34-.2,3.86,3.86,0,0,1,2.73.77,2.35,2.35,0,0,1,.74,1.79,2.48,2.48,0,0,1-1.78,2.41v0a2.35,2.35,0,0,1,1.39,1.91,15,15,0,0,0,.73,2.59h-1.26a12.25,12.25,0,0,1-.63-2.26c-0.28-1.3-.78-1.79-1.89-1.83h-1.15v4.09H306.7v-9.31Zm1.22,4.3h1.25a1.86,1.86,0,0,0,2.13-1.79c0-1.22-.88-1.75-2.17-1.77a5,5,0,0,0-1.2.11v3.45Z" transform="translate(-169.09 -200.68)"/><path class="cls-3" d="M321.22,425.46h-3.67v3.4h4.09v1h-5.31v-9.44h5.1v1h-3.88v3h3.67v1Z" transform="translate(-169.09 -200.68)"/><path class="cls-3" d="M325.14,420.55a14.12,14.12,0,0,1,2.34-.18,3.88,3.88,0,0,1,2.65.78,2.54,2.54,0,0,1,.83,2,2.78,2.78,0,0,1-.73,2,3.91,3.91,0,0,1-2.89,1,4.18,4.18,0,0,1-1-.08v3.78h-1.22v-9.33Zm1.22,4.55a4.1,4.1,0,0,0,1,.1c1.47,0,2.37-.71,2.37-2s-0.88-1.85-2.23-1.85a5.14,5.14,0,0,0-1.15.1v3.67Z" transform="translate(-169.09 -200.68)"/><path class="cls-3" d="M342.67,425.06c0,3.25-2,5-4.38,5S334,428.1,334,425.25s1.86-5,4.38-5S342.67,422.26,342.67,425.06Zm-7.33.15c0,2,1.09,3.82,3,3.82s3-1.78,3-3.92c0-1.88-1-3.84-3-3.84S335.35,423.15,335.35,425.22Z" transform="translate(-169.09 -200.68)"/><path class="cls-3" d="M346.35,420.57a12.7,12.7,0,0,1,2.34-.2,3.86,3.86,0,0,1,2.73.77,2.35,2.35,0,0,1,.74,1.79,2.48,2.48,0,0,1-1.78,2.41v0a2.35,2.35,0,0,1,1.39,1.91,15,15,0,0,0,.73,2.59h-1.26a12.25,12.25,0,0,1-.63-2.26c-0.28-1.3-.78-1.79-1.89-1.83h-1.15v4.09h-1.22v-9.31Zm1.22,4.3h1.25a1.86,1.86,0,0,0,2.13-1.79c0-1.22-.88-1.75-2.17-1.77a5,5,0,0,0-1.2.11v3.45Z" transform="translate(-169.09 -200.68)"/><path class="cls-3" d="M357.84,421.48H355v-1h7v1h-2.89v8.4h-1.23v-8.4Z" transform="translate(-169.09 -200.68)"/><path class="cls-3" d="M370.26,420.44h5.08v1h-3.87v3.14H375v1h-3.57v4.27h-1.22v-9.44Z" transform="translate(-169.09 -200.68)"/><path class="cls-3" d="M387,425.06c0,3.25-2,5-4.38,5s-4.24-1.93-4.24-4.79,1.86-5,4.38-5S387,422.26,387,425.06Zm-7.33.15c0,2,1.09,3.82,3,3.82s3-1.78,3-3.92c0-1.88-1-3.84-3-3.84S379.71,423.15,379.71,425.22Z" transform="translate(-169.09 -200.68)"/><path class="cls-3" d="M390.71,420.57a12.71,12.71,0,0,1,2.34-.2,3.86,3.86,0,0,1,2.73.77,2.35,2.35,0,0,1,.74,1.79,2.48,2.48,0,0,1-1.78,2.41v0a2.35,2.35,0,0,1,1.39,1.91,15.05,15.05,0,0,0,.73,2.59H395.6a12.26,12.26,0,0,1-.63-2.26c-0.28-1.3-.78-1.79-1.89-1.83h-1.15v4.09h-1.22v-9.31Zm1.22,4.3h1.25a1.86,1.86,0,0,0,2.13-1.79c0-1.22-.88-1.75-2.17-1.77a5,5,0,0,0-1.21.11v3.45Z" transform="translate(-169.09 -200.68)"/><path class="cls-4" d="M225.86,457.31c-0.13-2.54-.3-5.59-0.27-7.85h-0.08c-0.62,2.13-1.38,4.4-2.29,6.91L220,465.19h-1.78l-2.94-8.66c-0.86-2.56-1.59-4.91-2.11-7.07h-0.05c-0.05,2.27-.19,5.32-0.35,8l-0.49,7.8H210l1.27-18.19h3l3.1,8.8c0.76,2.24,1.38,4.24,1.84,6.13h0.08c0.46-1.84,1.11-3.83,1.92-6.13l3.24-8.8h3l1.13,18.19h-2.29Z" transform="translate(-169.09 -200.68)"/><path class="cls-4" d="M235.92,448.57a1.47,1.47,0,0,1-2.94,0,1.45,1.45,0,0,1,1.48-1.48A1.41,1.41,0,0,1,235.92,448.57Zm-2.65,16.74V452.24h2.38V465.3h-2.37Z" transform="translate(-169.09 -200.68)"/><path class="cls-4" d="M240.5,456.31c0-1.54,0-2.86-.11-4.08h2.08l0.08,2.56h0.11a3.92,3.92,0,0,1,3.62-2.86,2.56,2.56,0,0,1,.67.08v2.24a3.56,3.56,0,0,0-.81-0.08,3.33,3.33,0,0,0-3.19,3.05,6.71,6.71,0,0,0-.11,1.11v7H240.5v-9Z" transform="translate(-169.09 -200.68)"/><path class="cls-4" d="M262.06,458.66c0,4.83-3.35,6.94-6.51,6.94-3.54,0-6.26-2.59-6.26-6.72,0-4.37,2.86-6.94,6.48-6.94S262.06,454.67,262.06,458.66Zm-10.37.13c0,2.86,1.65,5,4,5s4-2.13,4-5.07c0-2.21-1.11-5-3.91-5S251.7,456.31,251.7,458.8Z" transform="translate(-169.09 -200.68)"/><path class="cls-4" d="M265.63,462.87a6.23,6.23,0,0,0,3.13.94c1.73,0,2.54-.86,2.54-1.94s-0.67-1.75-2.43-2.4c-2.35-.84-3.46-2.13-3.46-3.7,0-2.11,1.7-3.83,4.51-3.83a6.52,6.52,0,0,1,3.21.81l-0.59,1.73a5.09,5.09,0,0,0-2.67-.76,1.91,1.91,0,0,0-2.19,1.78c0,1.08.78,1.57,2.48,2.21,2.27,0.86,3.43,2,3.43,3.94,0,2.29-1.78,3.91-4.89,3.91a7.45,7.45,0,0,1-3.67-.89Z" transform="translate(-169.09 -200.68)"/><path class="cls-4" d="M277.56,446.14h2.38V465.3h-2.37V446.14Z" transform="translate(-169.09 -200.68)"/><path class="cls-4" d="M292.1,465.3l-0.19-1.65h-0.08a4.87,4.87,0,0,1-4,1.94,3.72,3.72,0,0,1-4-3.75c0-3.16,2.81-4.89,7.85-4.86v-0.27a2.69,2.69,0,0,0-3-3,6.51,6.51,0,0,0-3.4,1l-0.54-1.57a8.11,8.11,0,0,1,4.29-1.16c4,0,5,2.73,5,5.34v4.89a18.43,18.43,0,0,0,.22,3.13H292.1Zm-0.35-6.67c-2.59-.05-5.53.4-5.53,2.94a2.1,2.1,0,0,0,2.24,2.27,3.25,3.25,0,0,0,3.16-2.19,2.47,2.47,0,0,0,.13-0.76v-2.27Z" transform="translate(-169.09 -200.68)"/><path class="cls-4" d="M299.35,452.24l2.56,7.34a33.72,33.72,0,0,1,1.05,3.35H303c0.3-1.08.67-2.16,1.11-3.35l2.54-7.34h2.48L304,465.3h-2.27l-5-13.06h2.54Z" transform="translate(-169.09 -200.68)"/><path class="cls-4" d="M319.92,447.11h2.35v16.22H330v2H319.92V447.11Z" transform="translate(-169.09 -200.68)"/><path class="cls-4" d="M333.09,452.24l2.86,7.72c0.3,0.86.62,1.89,0.84,2.67h0.05c0.24-.78.51-1.78,0.84-2.73l2.59-7.67h2.51l-3.56,9.31c-1.7,4.48-2.86,6.78-4.48,8.18a6.43,6.43,0,0,1-2.92,1.54l-0.59-2a6.29,6.29,0,0,0,2.08-1.16,7.2,7.2,0,0,0,2-2.65,1.71,1.71,0,0,0,.19-0.57,2.07,2.07,0,0,0-.16-0.62l-4.83-12h2.59Z" transform="translate(-169.09 -200.68)"/><path class="cls-4" d="M345.61,462.87a6.23,6.23,0,0,0,3.13.94c1.73,0,2.54-.86,2.54-1.94s-0.67-1.75-2.43-2.4c-2.35-.84-3.46-2.13-3.46-3.7,0-2.11,1.7-3.83,4.51-3.83a6.52,6.52,0,0,1,3.21.81l-0.59,1.73a5.09,5.09,0,0,0-2.67-.76,1.91,1.91,0,0,0-2.19,1.78c0,1.08.78,1.57,2.48,2.21,2.27,0.86,3.43,2,3.43,3.94,0,2.29-1.78,3.91-4.89,3.91a7.45,7.45,0,0,1-3.67-.89Z" transform="translate(-169.09 -200.68)"/><path class="cls-4" d="M358.8,452.24l2.86,7.72c0.3,0.86.62,1.89,0.84,2.67h0.05c0.24-.78.51-1.78,0.84-2.73l2.59-7.67h2.51l-3.56,9.31c-1.7,4.48-2.86,6.78-4.48,8.18a6.43,6.43,0,0,1-2.92,1.54l-0.59-2a6.29,6.29,0,0,0,2.08-1.16,7.2,7.2,0,0,0,2-2.65,1.71,1.71,0,0,0,.19-0.57,2.07,2.07,0,0,0-.16-0.62l-4.83-12h2.59Z" transform="translate(-169.09 -200.68)"/><path class="cls-4" d="M382.8,461.74c0,1.35,0,2.54.11,3.56H380.8l-0.14-2.13h-0.05a4.91,4.91,0,0,1-4.32,2.43c-2.05,0-4.51-1.13-4.51-5.72v-7.64h2.38v7.23c0,2.48.76,4.16,2.92,4.16a3.34,3.34,0,0,0,3.35-3.37v-8h2.38v9.5Z" transform="translate(-169.09 -200.68)"/><path class="cls-4" d="M390,458.23h0.05c0.32-.46.78-1,1.16-1.48l3.83-4.51h2.86l-5,5.37,5.75,7.69h-2.89L391.26,459,390,460.39v4.91h-2.35V446.14H390v12.09Z" transform="translate(-169.09 -200.68)"/><path class="cls-5" d="M226.77,484a20.15,20.15,0,0,1,3.34-.26,5.54,5.54,0,0,1,3.78,1.12,3.63,3.63,0,0,1,1.18,2.82,4,4,0,0,1-1,2.88,5.59,5.59,0,0,1-4.12,1.48,6,6,0,0,1-1.4-.12v5.4h-1.74V484Zm1.74,6.5a5.86,5.86,0,0,0,1.44.14c2.1,0,3.38-1,3.38-2.88s-1.26-2.64-3.18-2.64a7.3,7.3,0,0,0-1.64.14v5.24Z" transform="translate(-169.09 -200.68)"/><path class="cls-5" d="M237.94,490.64c0-1.14,0-2.12-.08-3h1.54l0.06,1.9h0.08a2.91,2.91,0,0,1,2.68-2.12,1.9,1.9,0,0,1,.5.06v1.66a2.64,2.64,0,0,0-.6-0.06,2.47,2.47,0,0,0-2.36,2.26,5,5,0,0,0-.08.82v5.16h-1.74v-6.66Z" transform="translate(-169.09 -200.68)"/><path class="cls-5" d="M254,492.38c0,3.58-2.48,5.14-4.82,5.14-2.62,0-4.64-1.92-4.64-5,0-3.24,2.12-5.14,4.8-5.14S254,489.42,254,492.38Zm-7.68.1c0,2.12,1.22,3.72,2.94,3.72s2.94-1.58,2.94-3.76c0-1.64-.82-3.72-2.9-3.72S246.28,490.64,246.28,492.48Z" transform="translate(-169.09 -200.68)"/><path class="cls-5" d="M265.51,483.1v11.7c0,0.86,0,1.84.08,2.5H264l-0.08-1.68h0a3.58,3.58,0,0,1-3.3,1.9c-2.34,0-4.14-2-4.14-4.92,0-3.22,2-5.2,4.34-5.2a3.24,3.24,0,0,1,2.92,1.48h0V483.1h1.76Zm-1.76,8.46a3.13,3.13,0,0,0-.08-0.74,2.59,2.59,0,0,0-2.54-2c-1.82,0-2.9,1.6-2.9,3.74,0,2,1,3.58,2.86,3.58a2.65,2.65,0,0,0,2.58-2.1,3.08,3.08,0,0,0,.08-0.76v-1.68Z" transform="translate(-169.09 -200.68)"/><path class="cls-5" d="M277.23,494.66c0,1,0,1.88.08,2.64h-1.56l-0.1-1.58h0a3.64,3.64,0,0,1-3.2,1.8c-1.52,0-3.34-.84-3.34-4.24v-5.66h1.76V493c0,1.84.56,3.08,2.16,3.08a2.54,2.54,0,0,0,2.32-1.6,2.57,2.57,0,0,0,.16-0.9v-5.94h1.76v7Z" transform="translate(-169.09 -200.68)"/><path class="cls-5" d="M287.89,496.94a6.49,6.49,0,0,1-2.78.56,4.6,4.6,0,0,1-4.82-4.94,4.92,4.92,0,0,1,5.2-5.14,5.88,5.88,0,0,1,2.44.5l-0.4,1.36a4.08,4.08,0,0,0-2-.46,3.65,3.65,0,0,0-.06,7.28,5,5,0,0,0,2.16-.48Z" transform="translate(-169.09 -200.68)"/><path class="cls-5" d="M293.32,484.84v2.78h2.52V489h-2.52v5.22c0,1.2.34,1.88,1.32,1.88a3.91,3.91,0,0,0,1-.12l0.08,1.32a4.31,4.31,0,0,1-1.56.24,2.44,2.44,0,0,1-1.9-.74,3.59,3.59,0,0,1-.68-2.52V489h-1.5v-1.34h1.5V485.3Z" transform="translate(-169.09 -200.68)"/><path class="cls-5" d="M315.48,491.38c-0.1-1.88-.22-4.14-0.2-5.82h-0.06c-0.46,1.58-1,3.26-1.7,5.12l-2.38,6.54h-1.32l-2.18-6.42c-0.64-1.9-1.18-3.64-1.56-5.24h0c0,1.68-.14,3.94-0.26,6l-0.36,5.78h-1.66l0.94-13.48h2.22l2.3,6.52c0.56,1.66,1,3.14,1.36,4.54h0.06c0.34-1.36.82-2.84,1.42-4.54l2.4-6.52h2.22l0.84,13.48h-1.7Z" transform="translate(-169.09 -200.68)"/><path class="cls-5" d="M326.38,497.3l-0.14-1.22h-0.06a3.61,3.61,0,0,1-3,1.44,2.76,2.76,0,0,1-3-2.78c0-2.34,2.08-3.62,5.82-3.6v-0.2a2,2,0,0,0-2.2-2.24,4.83,4.83,0,0,0-2.52.72l-0.4-1.16a6,6,0,0,1,3.18-.86c3,0,3.68,2,3.68,4V495a13.62,13.62,0,0,0,.16,2.32h-1.6Zm-0.26-4.94c-1.92,0-4.1.3-4.1,2.18a1.56,1.56,0,0,0,1.66,1.68A2.41,2.41,0,0,0,326,494.6a1.84,1.84,0,0,0,.1-0.56v-1.68Z" transform="translate(-169.09 -200.68)"/><path class="cls-5" d="M331.4,490.24c0-1,0-1.82-.08-2.62h1.56l0.1,1.6h0a3.56,3.56,0,0,1,3.2-1.82c1.34,0,3.42.8,3.42,4.12v5.78h-1.76v-5.58c0-1.56-.58-2.86-2.24-2.86a2.5,2.5,0,0,0-2.36,1.8,2.53,2.53,0,0,0-.12.82v5.82H331.4v-7.06Z" transform="translate(-169.09 -200.68)"/><path class="cls-5" d="M348.6,497.3l-0.14-1.22H348.4a3.61,3.61,0,0,1-3,1.44,2.76,2.76,0,0,1-3-2.78c0-2.34,2.08-3.62,5.82-3.6v-0.2a2,2,0,0,0-2.2-2.24,4.83,4.83,0,0,0-2.52.72l-0.4-1.16a6,6,0,0,1,3.18-.86c3,0,3.68,2,3.68,4V495a13.62,13.62,0,0,0,.16,2.32h-1.6Zm-0.26-4.94c-1.92,0-4.1.3-4.1,2.18a1.56,1.56,0,0,0,1.66,1.68,2.41,2.41,0,0,0,2.34-1.62,1.84,1.84,0,0,0,.1-0.56v-1.68Z" transform="translate(-169.09 -200.68)"/><path class="cls-5" d="M362,487.62c0,0.7-.08,1.48-0.08,2.66v5.62c0,2.22-.44,3.58-1.38,4.42a5.13,5.13,0,0,1-3.52,1.16,6.25,6.25,0,0,1-3.22-.8l0.44-1.34a5.46,5.46,0,0,0,2.84.76c1.8,0,3.12-.94,3.12-3.38v-1.08h0a3.46,3.46,0,0,1-3.08,1.62c-2.4,0-4.12-2-4.12-4.72,0-3.28,2.14-5.14,4.36-5.14a3.22,3.22,0,0,1,3,1.68h0l0.08-1.46H362Zm-1.82,3.82a2.51,2.51,0,0,0-.1-0.8,2.54,2.54,0,0,0-2.46-1.86c-1.68,0-2.88,1.42-2.88,3.66,0,1.9,1,3.48,2.86,3.48a2.57,2.57,0,0,0,2.44-1.8,3.06,3.06,0,0,0,.14-0.94v-1.74Z" transform="translate(-169.09 -200.68)"/><path class="cls-5" d="M366.68,492.78a3.1,3.1,0,0,0,3.32,3.36,6.37,6.37,0,0,0,2.68-.5l0.3,1.26a7.85,7.85,0,0,1-3.22.6c-3,0-4.76-2-4.76-4.88s1.72-5.22,4.54-5.22c3.16,0,4,2.78,4,4.56a6.56,6.56,0,0,1-.06.82h-6.8Zm5.16-1.26c0-1.12-.46-2.86-2.44-2.86-1.78,0-2.56,1.64-2.7,2.86h5.14Z" transform="translate(-169.09 -200.68)"/><path class="cls-5" d="M376.54,490.64c0-1.14,0-2.12-.08-3H378l0.06,1.9h0.08a2.91,2.91,0,0,1,2.68-2.12,1.9,1.9,0,0,1,.5.06v1.66a2.63,2.63,0,0,0-.6-0.06,2.47,2.47,0,0,0-2.36,2.26,5,5,0,0,0-.08.82v5.16h-1.74v-6.66Z" transform="translate(-169.09 -200.68)"/><path class="cls-2" d="M263,262.5l-6.22-21.77-6.22,21.77h-5.69l-5.48-25.67h4.22l4.27,21.3,6.22-21.3h5.38l6.22,21.3,4.27-21.3h4.22L268.7,262.5H263Z" transform="translate(-169.09 -200.68)"/><path class="cls-2" d="M287.15,263c-7.49,0-10.44-4.27-10.44-9.65v-7.43c0-5.38,3-9.65,10.44-9.65s10.44,4.27,10.44,9.65v7.43C297.59,258.76,294.64,263,287.15,263Zm0-22.88c-4,0-6,1.9-6,5.64v7.75c0,3.74,2,5.64,6,5.64s6-1.9,6-5.64v-7.75C293.16,242,291.16,240.15,287.15,240.15Z" transform="translate(-169.09 -200.68)"/><path class="cls-2" d="M314,240.36a56.3,56.3,0,0,0-7.33,4.43V262.5h-4.43V236.83h3.85l0.26,3.58a32.72,32.72,0,0,1,7.07-4.11Z" transform="translate(-169.09 -200.68)"/><path class="cls-2" d="M319.42,262.5V226.34l4.43-.63v36.8h-4.43Zm19.72-25.67L330,249.53l9.6,13h-5.22l-9.38-13L334,236.83h5.11Z" transform="translate(-169.09 -200.68)"/><path class="cls-6" d="M351.75,263a21.88,21.88,0,0,1-7.54-1.32l0.53-2.48a25.18,25.18,0,0,0,6.8,1.05c4.74,0,5.69-.9,5.69-4.16,0-3.69-.11-4.06-6-5.43-6.43-1.53-7-3.11-7-7.8,0-4.27,2.06-6.59,8.38-6.59a28.93,28.93,0,0,1,7.28.9l-0.32,2.58a40.86,40.86,0,0,0-7.17-.74c-4.48,0-5.11,1.16-5.11,4,0,3.53.21,3.9,5,5.11,7.54,1.9,8,3.11,8,7.91C360.29,260.66,358.6,263,351.75,263Z" transform="translate(-169.09 -200.68)"/><path class="cls-6" d="M381,262a15.73,15.73,0,0,1-5.38,1c-4.06,0-5.8-1.48-5.8-5.54v-18h-5v-2.64h5v-6.06l3.06-.42v6.48h7.86l-0.32,2.64h-7.54v17.71c0,2.27.32,3.22,3,3.22a16,16,0,0,0,4.59-.74Z" transform="translate(-169.09 -200.68)"/><path class="cls-6" d="M398.15,262.5l-3.8,10.39h-3l3.85-10.39h-1.74l-8.7-25.67h3.11l7.91,23.51,8-23.51h3.11Z" transform="translate(-169.09 -200.68)"/><path class="cls-6" d="M411.65,262.5V226.34l3.06-.42V262.5h-3.06Z" transform="translate(-169.09 -200.68)"/><path class="cls-6" d="M429.93,260.34a32.53,32.53,0,0,0,8.12-1.21l0.53,2.48a28.35,28.35,0,0,1-8.86,1.42c-7.22,0-9.54-3.74-9.54-9.33v-8.07c0-5.27,2.37-9.33,9.6-9.33s9.33,4.06,9.33,9.33v5H423.24v3.22C423.24,258.39,424.82,260.34,429.93,260.34Zm-6.69-12.49H436.1v-2.32c0-4.32-1.53-6.59-6.33-6.59s-6.54,2.27-6.54,6.59v2.32Z" transform="translate(-169.09 -200.68)"/><circle id="_Path_" data-name="&lt;Path&gt;" class="cls-7" cx="183.66" cy="210.73" r="7.64" transform="translate(-250.47 -78.77) rotate(-30.4)"/><circle id="_Path_2" data-name="&lt;Path&gt;" class="cls-8" cx="182.63" cy="229.02" r="4.43" transform="translate(-217 209.05) rotate(-89.52)"/><circle id="_Path_3" data-name="&lt;Path&gt;" class="cls-9" cx="196.19" cy="221.68" r="5.76" transform="translate(-254.29 -70.92) rotate(-30.4)"/><circle id="_Path_4" data-name="&lt;Path&gt;" class="cls-10" cx="204.27" cy="209.06" r="4.14" transform="translate(-246.8 -68.57) rotate(-30.4)"/><circle id="_Path_5" data-name="&lt;Path&gt;" class="cls-11" cx="195.34" cy="203.09" r="2.41" transform="translate(-245 -73.91) rotate(-30.4)"/><circle id="_Path_6" data-name="&lt;Path&gt;" class="cls-12" cx="172.32" cy="222.02" r="3.23" transform="translate(-257.75 -82.96) rotate(-30.4)"/><path class="cls-2" d="M225.16,236.81l-9.07-22.9a1.19,1.19,0,0,0-2.27.42s-2.36,9-11.69,17.72c-10.74,10.08-28.25,5.46-28.25,5.46a1.18,1.18,0,0,0-1,1.33l4.57,25.44a1.19,1.19,0,0,0,.84,1l23.25,8.25a1.18,1.18,0,0,0,1.52-1.14l-3.49-14a1.18,1.18,0,0,1,1-1.18l17.14-1.47a1.18,1.18,0,0,0,1-1.21l-0.44-14.83a1.19,1.19,0,0,1,1.18-1.22h4.5A1.18,1.18,0,0,0,225.16,236.81ZM214.7,235.1a4,4,0,1,1,1.41-5.42A4,4,0,0,1,214.7,235.1Z" transform="translate(-169.09 -200.68)"/><circle class="cls-13" cx="72.93" cy="170.62" r="3.92"/><circle class="cls-9" cx="97.76" cy="170.62" r="3.92"/><circle class="cls-14" cx="122.59" cy="170.62" r="3.92"/><circle class="cls-15" cx="147.42" cy="170.62" r="3.92"/><circle class="cls-16" cx="172.26" cy="170.62" r="3.92"/><circle class="cls-12" cx="197.09" cy="170.62" r="3.92"/></svg>