<svg id="Layer_1" data-name="Layer 1" xmlns="http://www.w3.org/2000/svg" viewBox="0 0 33.85 15.9"><defs><style>.cls-1{fill:#424143;}</style></defs><title>doer-text</title><path class="cls-1" d="M1207.18,422.9a21.57,21.57,0,0,1,3.2-.24,6.68,6.68,0,0,1,4.72,1.45,5.37,5.37,0,0,1,1.64,4.19,6.16,6.16,0,0,1-1.68,4.53,7.18,7.18,0,0,1-5.16,1.68,24.27,24.27,0,0,1-2.73-.14V422.9Zm1.5,10.31a9.51,9.51,0,0,0,1.52.09c3.22,0,5-1.8,5-4.95,0-2.75-1.54-4.5-4.72-4.5a8.57,8.57,0,0,0-1.77.16v9.21Z" transform="translate(-1207.18 -422.65)"/><path class="cls-1" d="M1226.3,430.15a4.09,4.09,0,0,1-4.17,4.45,4,4,0,0,1-4-4.31,4.09,4.09,0,0,1,4.15-4.45A4,4,0,0,1,1226.3,430.15Zm-6.64.09c0,1.83,1.05,3.22,2.54,3.22s2.54-1.37,2.54-3.25c0-1.42-.71-3.22-2.51-3.22S1219.66,428.64,1219.66,430.23Z" transform="translate(-1207.18 -422.65)"/><path class="cls-1" d="M1229.07,430.49a2.68,2.68,0,0,0,2.87,2.91,5.5,5.5,0,0,0,2.32-.43l0.26,1.09a6.78,6.78,0,0,1-2.79.52,3.89,3.89,0,0,1-4.12-4.22c0-2.53,1.49-4.52,3.93-4.52,2.73,0,3.46,2.41,3.46,3.95a5.74,5.74,0,0,1-.05.71h-5.88Zm4.46-1.09a2.17,2.17,0,0,0-2.11-2.47,2.52,2.52,0,0,0-2.34,2.47h4.45Z" transform="translate(-1207.18 -422.65)"/><path class="cls-1" d="M1236.9,428.64c0-1,0-1.83-.07-2.61h1.33l0.05,1.64h0.07a2.51,2.51,0,0,1,2.32-1.83,1.65,1.65,0,0,1,.43.05v1.44a2.3,2.3,0,0,0-.52-0.05,2.13,2.13,0,0,0-2,2,4.22,4.22,0,0,0-.07.71v4.46h-1.51v-5.76Z" transform="translate(-1207.18 -422.65)"/></svg>