<svg id="Layer_1" data-name="Layer 1" xmlns="http://www.w3.org/2000/svg" viewBox="0 0 64.99 64.99"><defs><style>.cls-1{fill:#d44255;}.cls-2{fill:#fff;}</style></defs><title>doer-icon</title><circle class="cls-1" cx="32.5" cy="32.5" r="32.5"/><path class="cls-2" d="M1221.79,396.65a0.68,0.68,0,0,1-.3-0.07,10.48,10.48,0,0,1-5.82-9.42V375.55a0.68,0.68,0,0,1,1.36,0v11.61a9.12,9.12,0,0,0,5.07,8.2A0.68,0.68,0,0,1,1221.79,396.65Z" transform="translate(-1189.63 -350.54)"/><path class="cls-2" d="M1235,392.56a0.68,0.68,0,0,1-.28-0.06l-1.25-.57c-5.38-2.47-10.45-4.81-21.6-4.81h-1.36a4.77,4.77,0,0,1-4.76-4.76v-2.72a4.77,4.77,0,0,1,4.76-4.76h1.36c11.15,0,16.22-2.33,21.59-4.81l1.26-.58a0.68,0.68,0,0,1,1,.62v7.49a2.73,2.73,0,0,1,2.72,2.72v1.36a2.73,2.73,0,0,1-2.72,2.72v7.49A0.68,0.68,0,0,1,1235,392.56Zm-24.5-16.33a3.41,3.41,0,0,0-3.4,3.4v2.72a3.41,3.41,0,0,0,3.4,3.4h1.36c11.45,0,16.66,2.4,22.17,4.93l0.29,0.13V371.16l-0.3.14c-5.51,2.53-10.72,4.93-22.16,4.93h-1.36Zm25.18,2.72V383a1.36,1.36,0,0,0,1.36-1.36v-1.36A1.36,1.36,0,0,0,1235.64,379Z" transform="translate(-1189.63 -350.54)"/></svg>