<svg id="Layer_1" data-name="Layer 1" xmlns="http://www.w3.org/2000/svg" viewBox="0 0 61.22 15.9"><defs><style>.cls-1{fill:#424143;}</style></defs><title>dreamer-text</title><path class="cls-1" d="M1193.4,532a21.57,21.57,0,0,1,3.2-.24,6.68,6.68,0,0,1,4.72,1.45,5.37,5.37,0,0,1,1.64,4.19,6.16,6.16,0,0,1-1.68,4.53,7.18,7.18,0,0,1-5.16,1.68,24.27,24.27,0,0,1-2.73-.14V532Zm1.5,10.31a9.51,9.51,0,0,0,1.52.09c3.22,0,5-1.8,5-4.95,0-2.75-1.54-4.5-4.72-4.5a8.57,8.57,0,0,0-1.77.16v9.21Z" transform="translate(-1193.4 -531.73)"/><path class="cls-1" d="M1204.88,537.72c0-1,0-1.83-.07-2.61h1.33l0.05,1.64h0.07a2.51,2.51,0,0,1,2.32-1.83,1.64,1.64,0,0,1,.43.05v1.44a2.27,2.27,0,0,0-.52-0.05,2.14,2.14,0,0,0-2,2,4.23,4.23,0,0,0-.07.71v4.46h-1.51v-5.76Z" transform="translate(-1193.4 -531.73)"/><path class="cls-1" d="M1211.21,539.57a2.68,2.68,0,0,0,2.87,2.91,5.5,5.5,0,0,0,2.32-.43l0.26,1.09a6.78,6.78,0,0,1-2.79.52,3.89,3.89,0,0,1-4.12-4.22c0-2.53,1.49-4.52,3.93-4.52,2.73,0,3.46,2.41,3.46,3.95a5.74,5.74,0,0,1-.05.71h-5.88Zm4.46-1.09a2.17,2.17,0,0,0-2.11-2.47,2.52,2.52,0,0,0-2.34,2.47h4.45Z" transform="translate(-1193.4 -531.73)"/><path class="cls-1" d="M1223.67,543.48l-0.12-1.06h-0.05a3.12,3.12,0,0,1-2.56,1.25,2.39,2.39,0,0,1-2.56-2.41c0-2,1.8-3.13,5-3.11V538a1.73,1.73,0,0,0-1.9-1.94,4.17,4.17,0,0,0-2.18.62l-0.35-1a5.21,5.21,0,0,1,2.75-.74c2.56,0,3.18,1.75,3.18,3.43v3.13a11.82,11.82,0,0,0,.14,2h-1.38Zm-0.22-4.27c-1.66,0-3.55.26-3.55,1.89a1.35,1.35,0,0,0,1.44,1.45,2.08,2.08,0,0,0,2-1.4,1.62,1.62,0,0,0,.09-0.48v-1.45Z" transform="translate(-1193.4 -531.73)"/><path class="cls-1" d="M1227.38,537.37c0-.87,0-1.57-0.07-2.27h1.33l0.07,1.35h0.05a2.89,2.89,0,0,1,2.63-1.54,2.48,2.48,0,0,1,2.37,1.68h0a3.46,3.46,0,0,1,.94-1.09,2.86,2.86,0,0,1,1.85-.59c1.11,0,2.75.73,2.75,3.63v4.93h-1.49v-4.74c0-1.61-.59-2.58-1.82-2.58a2,2,0,0,0-1.8,1.38,2.47,2.47,0,0,0-.12.76v5.17h-1.49v-5c0-1.33-.59-2.3-1.75-2.3a2.08,2.08,0,0,0-1.89,1.52,2.11,2.11,0,0,0-.12.74v5.05h-1.49v-6.11Z" transform="translate(-1193.4 -531.73)"/><path class="cls-1" d="M1242.66,539.57a2.68,2.68,0,0,0,2.87,2.91,5.5,5.5,0,0,0,2.32-.43l0.26,1.09a6.78,6.78,0,0,1-2.79.52,3.89,3.89,0,0,1-4.12-4.22c0-2.53,1.49-4.52,3.93-4.52,2.73,0,3.46,2.41,3.46,3.95a5.74,5.74,0,0,1-.05.71h-5.88Zm4.46-1.09A2.17,2.17,0,0,0,1245,536a2.52,2.52,0,0,0-2.34,2.47h4.45Z" transform="translate(-1193.4 -531.73)"/><path class="cls-1" d="M1250.48,537.72c0-1,0-1.83-.07-2.61h1.33l0.05,1.64h0.07a2.51,2.51,0,0,1,2.32-1.83,1.65,1.65,0,0,1,.43.05v1.44a2.3,2.3,0,0,0-.52-0.05,2.13,2.13,0,0,0-2,2,4.22,4.22,0,0,0-.07.71v4.46h-1.51v-5.76Z" transform="translate(-1193.4 -531.73)"/></svg>