<svg id="Layer_1" data-name="Layer 1" xmlns="http://www.w3.org/2000/svg" viewBox="0 0 61.54 61.54"><defs><style>.cls-1{fill:#128985;}.cls-2{fill:#fff;}</style></defs><title>dreamer-iconr</title><circle class="cls-1" cx="30.77" cy="30.77" r="30.77"/><path class="cls-2" d="M1225.58,507.46h-7.15a0.72,0.72,0,0,1,0-1.43h7.15A0.72,0.72,0,1,1,1225.58,507.46Z" transform="translate(-1191.36 -463.95)"/><path class="cls-2" d="M1225.58,511.3h-7.15a0.72,0.72,0,0,1,0-1.43h7.15A0.72,0.72,0,1,1,1225.58,511.3Z" transform="translate(-1191.36 -463.95)"/><path class="cls-2" d="M1222,513.22a0.71,0.71,0,0,1-.72-0.72v-1.43a0.72,0.72,0,1,1,1.43,0v1.43A0.71,0.71,0,0,1,1222,513.22Z" transform="translate(-1191.36 -463.95)"/><path class="cls-2" d="M1225.58,503.61h-7.15a0.71,0.71,0,0,1-.72-0.72v-1.38a13,13,0,0,1-9.3-12.21c0-7.1,6.1-12.87,13.59-12.87s13.59,5.78,13.59,12.87a13,13,0,0,1-9.3,12.21v1.38A0.71,0.71,0,0,1,1225.58,503.61Zm-6.44-1.43h5.72V501a0.72,0.72,0,0,1,.53-0.69,11.61,11.61,0,0,0,8.77-11c0-6.31-5.45-11.44-12.16-11.44s-12.16,5.13-12.16,11.44a11.61,11.61,0,0,0,8.77,11,0.72,0.72,0,0,1,.53.69v1.2Z" transform="translate(-1191.36 -463.95)"/><path class="cls-2" d="M1218.28,489.76a0.87,0.87,0,0,1-.33-1.68l7.25-3a0.87,0.87,0,0,1,.66,1.62l-7.25,3A0.87,0.87,0,0,1,1218.28,489.76Z" transform="translate(-1191.36 -463.95)"/><path class="cls-2" d="M1218.8,494.27a0.87,0.87,0,0,1-.33-1.68l6.13-2.5a0.87,0.87,0,0,1,.66,1.62l-6.13,2.5A0.87,0.87,0,0,1,1218.8,494.27Z" transform="translate(-1191.36 -463.95)"/><path class="cls-2" d="M1219.79,498.7a0.87,0.87,0,0,1-.33-1.68l4.13-1.68a0.87,0.87,0,1,1,.66,1.62l-4.13,1.68A0.87,0.87,0,0,1,1219.79,498.7Z" transform="translate(-1191.36 -463.95)"/></svg>