<svg id="Layer_1" data-name="Layer 1" xmlns="http://www.w3.org/2000/svg" viewBox="0 0 113.86 43.6"><defs><style>.cls-1{fill:#414042;}</style></defs><title>hierarchy</title><path class="cls-1" d="M1174.68,57.84c-0.1-1.92-.22-4.24-0.2-6h-0.06c-0.46,1.62-1,3.33-1.69,5.24l-2.36,6.69h-1.31l-2.16-6.57c-0.63-1.94-1.17-3.72-1.55-5.36h0c0,1.72-.14,4-0.26,6.1l-0.36,5.91h-1.65L1164,50.11h2.2l2.28,6.67c0.55,1.7,1,3.21,1.35,4.65h0.06c0.34-1.39.81-2.91,1.41-4.65l2.38-6.67h2.2l0.83,13.79H1175Z" transform="translate(-1163.07 -49.37)"/><path class="cls-1" d="M1180.57,54l2.1,5.85c0.22,0.66.46,1.43,0.62,2h0c0.18-.59.38-1.35,0.61-2.07l1.9-5.81h1.84l-2.62,7.06c-1.25,3.4-2.1,5.14-3.29,6.2a4.67,4.67,0,0,1-2.14,1.17l-0.44-1.51a4.57,4.57,0,0,0,1.53-.88,5.44,5.44,0,0,0,1.47-2,1.33,1.33,0,0,0,.14-0.43,1.6,1.6,0,0,0-.12-0.47L1178.66,54h1.9Z" transform="translate(-1163.07 -49.37)"/><path class="cls-1" d="M1196,63.9l-3.39-13.79h1.82l1.59,7c0.4,1.72.75,3.44,1,4.77h0c0.22-1.37.63-3,1.09-4.79l1.78-7h1.8l1.63,7c0.38,1.64.73,3.27,0.93,4.73h0c0.28-1.51.65-3,1.07-4.77l1.76-7h1.76l-3.79,13.79h-1.8l-1.68-7.18a42.84,42.84,0,0,1-.87-4.5h0a44.14,44.14,0,0,1-1,4.5l-1.9,7.18H1196Z" transform="translate(-1163.07 -49.37)"/><path class="cls-1" d="M1219,58.87c0,3.66-2.46,5.26-4.78,5.26-2.6,0-4.6-2-4.6-5.09,0-3.31,2.1-5.26,4.76-5.26S1219,55.84,1219,58.87Zm-7.61.1c0,2.17,1.21,3.81,2.91,3.81s2.91-1.62,2.91-3.85c0-1.68-.81-3.81-2.87-3.81S1211.42,57.09,1211.42,59Z" transform="translate(-1163.07 -49.37)"/><path class="cls-1" d="M1221.73,57.09c0-1.17,0-2.17-.08-3.09h1.53l0.06,1.94h0.08a2.9,2.9,0,0,1,2.66-2.17,1.82,1.82,0,0,1,.5.06v1.7a2.54,2.54,0,0,0-.59-0.06,2.48,2.48,0,0,0-2.34,2.31,5.29,5.29,0,0,0-.08.84V63.9h-1.72V57.09Z" transform="translate(-1163.07 -49.37)"/><path class="cls-1" d="M1230.51,58.54h0c0.24-.35.58-0.78,0.85-1.12l2.81-3.42h2.1l-3.71,4.07,4.22,5.83h-2.12l-3.31-4.75-0.89,1V63.9h-1.72V49.37h1.72v9.17Z" transform="translate(-1163.07 -49.37)"/><path class="cls-1" d="M1238.34,62.06a4.47,4.47,0,0,0,2.3.72c1.27,0,1.86-.66,1.86-1.47s-0.5-1.33-1.78-1.82c-1.72-.63-2.54-1.62-2.54-2.8a3,3,0,0,1,3.31-2.91,4.68,4.68,0,0,1,2.36.61l-0.44,1.31a3.65,3.65,0,0,0-2-.57,1.42,1.42,0,0,0-1.61,1.35c0,0.82.57,1.19,1.82,1.68,1.67,0.66,2.52,1.51,2.52,3,0,1.74-1.31,3-3.59,3a5.33,5.33,0,0,1-2.7-.68Z" transform="translate(-1163.07 -49.37)"/><path class="cls-1" d="M1249,51.15V54h2.5v1.37H1249v5.34c0,1.23.34,1.92,1.31,1.92a3.75,3.75,0,0,0,1-.12l0.08,1.35a4.14,4.14,0,0,1-1.55.25,2.38,2.38,0,0,1-1.88-.76,3.75,3.75,0,0,1-.67-2.58v-5.4h-1.49V54h1.49V51.62Z" transform="translate(-1163.07 -49.37)"/><path class="cls-1" d="M1254.79,54l2.1,5.85c0.22,0.66.46,1.43,0.61,2h0c0.18-.59.38-1.35,0.62-2.07l1.9-5.81h1.84l-2.62,7.06c-1.25,3.4-2.1,5.14-3.29,6.2a4.66,4.66,0,0,1-2.14,1.17l-0.44-1.51a4.59,4.59,0,0,0,1.53-.88,5.44,5.44,0,0,0,1.47-2,1.33,1.33,0,0,0,.14-0.43,1.62,1.62,0,0,0-.12-0.47L1252.88,54h1.9Z" transform="translate(-1163.07 -49.37)"/><path class="cls-1" d="M1264,49.37h1.74V63.9H1264V49.37Z" transform="translate(-1163.07 -49.37)"/><path class="cls-1" d="M1270.12,59.28a3.12,3.12,0,0,0,3.29,3.44,6.14,6.14,0,0,0,2.66-.51l0.3,1.29a7.56,7.56,0,0,1-3.19.61c-3,0-4.72-2-4.72-5s1.71-5.34,4.5-5.34c3.13,0,4,2.84,4,4.67a7.07,7.07,0,0,1-.06.84h-6.74Zm5.11-1.29c0-1.15-.46-2.93-2.42-2.93-1.76,0-2.54,1.68-2.68,2.93h5.09Z" transform="translate(-1163.07 -49.37)"/><path class="cls-1" d="M1183.95,74.66v5.77h6.46V74.66h1.75V88.45h-1.75V82h-6.46v6.47h-1.72V74.66h1.72Z" transform="translate(-1163.07 -49.37)"/><path class="cls-1" d="M1197.72,75.77a1.08,1.08,0,1,1-2.16,0,1.08,1.08,0,0,1,1.09-1.12A1.05,1.05,0,0,1,1197.72,75.77Zm-1.94,12.69v-9.9h1.74v9.9h-1.74Z" transform="translate(-1163.07 -49.37)"/><path class="cls-1" d="M1201.88,83.83a3.12,3.12,0,0,0,3.29,3.44,6.15,6.15,0,0,0,2.66-.51l0.3,1.29a7.56,7.56,0,0,1-3.19.61c-3,0-4.72-2-4.72-5s1.7-5.34,4.5-5.34c3.13,0,4,2.84,4,4.67a6.87,6.87,0,0,1-.06.84h-6.74Zm5.11-1.29c0-1.15-.46-2.93-2.42-2.93-1.76,0-2.54,1.68-2.68,2.93H1207Z" transform="translate(-1163.07 -49.37)"/><path class="cls-1" d="M1211.33,81.64c0-1.17,0-2.17-.08-3.09h1.53l0.06,1.94h0.08a2.9,2.9,0,0,1,2.66-2.17,1.82,1.82,0,0,1,.5.06v1.7a2.53,2.53,0,0,0-.59-0.06,2.48,2.48,0,0,0-2.34,2.31,5.29,5.29,0,0,0-.08.84v5.28h-1.72V81.64Z" transform="translate(-1163.07 -49.37)"/><path class="cls-1" d="M1223.52,88.45l-0.14-1.25h-0.06a3.54,3.54,0,0,1-2.93,1.47,2.78,2.78,0,0,1-2.93-2.84c0-2.39,2.06-3.7,5.77-3.68v-0.2a2,2,0,0,0-2.18-2.29,4.67,4.67,0,0,0-2.5.74l-0.4-1.19a5.81,5.81,0,0,1,3.15-.88c2.93,0,3.65,2.07,3.65,4.05v3.7a14.48,14.48,0,0,0,.16,2.37h-1.58Zm-0.26-5.05c-1.9,0-4.06.31-4.06,2.23a1.57,1.57,0,0,0,1.65,1.72,2.4,2.4,0,0,0,2.32-1.66,1.93,1.93,0,0,0,.1-0.57V83.4Z" transform="translate(-1163.07 -49.37)"/><path class="cls-1" d="M1228.26,81.64c0-1.17,0-2.17-.08-3.09h1.53l0.06,1.94h0.08a2.9,2.9,0,0,1,2.66-2.17,1.83,1.83,0,0,1,.5.06v1.7a2.54,2.54,0,0,0-.59-0.06,2.48,2.48,0,0,0-2.34,2.31,5.17,5.17,0,0,0-.08.84v5.28h-1.72V81.64Z" transform="translate(-1163.07 -49.37)"/><path class="cls-1" d="M1241.87,88.08a6.26,6.26,0,0,1-2.75.57c-2.89,0-4.78-2-4.78-5.05a5,5,0,0,1,5.15-5.26,5.68,5.68,0,0,1,2.42.51l-0.4,1.39a3.94,3.94,0,0,0-2-.47c-2.2,0-3.39,1.68-3.39,3.74,0,2.29,1.43,3.7,3.33,3.7a4.84,4.84,0,0,0,2.14-.49Z" transform="translate(-1163.07 -49.37)"/><path class="cls-1" d="M1244.41,73.92h1.74V80.1h0a3.29,3.29,0,0,1,1.25-1.27,3.51,3.51,0,0,1,1.78-.51c1.29,0,3.35.82,3.35,4.24v5.89h-1.74V82.76c0-1.6-.58-2.95-2.22-2.95a2.52,2.52,0,0,0-2.34,1.8,2.23,2.23,0,0,0-.12.86v6h-1.74V73.92Z" transform="translate(-1163.07 -49.37)"/><path class="cls-1" d="M1256.28,78.55l2.1,5.85c0.22,0.66.46,1.43,0.61,2h0c0.18-.59.38-1.35,0.62-2.07l1.9-5.81h1.84l-2.62,7.06c-1.25,3.4-2.1,5.14-3.29,6.2a4.66,4.66,0,0,1-2.14,1.17l-0.44-1.51a4.59,4.59,0,0,0,1.53-.88,5.44,5.44,0,0,0,1.47-2,1.33,1.33,0,0,0,.14-0.43,1.62,1.62,0,0,0-.12-0.47l-3.55-9.13h1.9Z" transform="translate(-1163.07 -49.37)"/></svg>