<svg id="Layer_1" data-name="Layer 1" xmlns="http://www.w3.org/2000/svg" viewBox="0 0 207.29 11.17"><defs><style>.cls-1{fill:#a7a9ac;}.cls-2{fill:#0d8d8a;}</style></defs><title>learn-text</title><path class="cls-1" d="M1759.09,751.41h1v7.21h3.45v0.88h-4.5v-8.08Z" transform="translate(-1759.09 -750.98)"/><path class="cls-1" d="M1765.13,756.78a1.86,1.86,0,0,0,2,2,3.82,3.82,0,0,0,1.61-.3l0.18,0.76a4.7,4.7,0,0,1-1.93.36,2.7,2.7,0,0,1-2.85-2.93c0-1.75,1-3.13,2.72-3.13a2.46,2.46,0,0,1,2.4,2.73,4,4,0,0,1,0,.49h-4.08Zm3.09-.76a1.5,1.5,0,0,0-1.46-1.71,1.75,1.75,0,0,0-1.62,1.71h3.08Z" transform="translate(-1759.09 -750.98)"/><path class="cls-1" d="M1773.77,759.49l-0.08-.73h0a2.16,2.16,0,0,1-1.78.86,1.65,1.65,0,0,1-1.77-1.67c0-1.4,1.25-2.17,3.49-2.16v-0.12a1.2,1.2,0,0,0-1.32-1.34,2.9,2.9,0,0,0-1.51.43l-0.24-.7a3.6,3.6,0,0,1,1.91-.52,2.06,2.06,0,0,1,2.21,2.37v2.17a8.25,8.25,0,0,0,.1,1.39h-1Zm-0.16-3c-1.15,0-2.46.18-2.46,1.31a0.93,0.93,0,0,0,1,1,1.44,1.44,0,0,0,1.4-1,1.1,1.1,0,0,0,.06-0.34v-1Z" transform="translate(-1759.09 -750.98)"/><path class="cls-1" d="M1776.34,755.5c0-.68,0-1.27,0-1.81h0.92l0,1.14h0a1.74,1.74,0,0,1,1.61-1.27,1.15,1.15,0,0,1,.3,0v1a1.59,1.59,0,0,0-.36,0,1.48,1.48,0,0,0-1.42,1.36,3,3,0,0,0,0,.49v3.09h-1v-4Z" transform="translate(-1759.09 -750.98)"/><path class="cls-1" d="M1780.31,755.26c0-.6,0-1.09,0-1.57h0.94l0.06,1h0a2.14,2.14,0,0,1,1.92-1.09c0.8,0,2.05.48,2.05,2.47v3.47h-1.05v-3.35c0-.94-0.35-1.71-1.34-1.71a1.5,1.5,0,0,0-1.42,1.08,1.52,1.52,0,0,0-.07.49v3.49h-1.05v-4.23Z" transform="translate(-1759.09 -750.98)"/><path class="cls-1" d="M1792.73,759.49l-0.08-.73h0a2.16,2.16,0,0,1-1.78.86,1.65,1.65,0,0,1-1.77-1.67c0-1.4,1.25-2.17,3.49-2.16v-0.12a1.2,1.2,0,0,0-1.32-1.34,2.9,2.9,0,0,0-1.51.43l-0.24-.7a3.6,3.6,0,0,1,1.91-.52,2.06,2.06,0,0,1,2.21,2.37v2.17a8.25,8.25,0,0,0,.1,1.39h-1Zm-0.16-3c-1.15,0-2.46.18-2.46,1.31a0.93,0.93,0,0,0,1,1,1.44,1.44,0,0,0,1.4-1,1.1,1.1,0,0,0,.06-0.34v-1Z" transform="translate(-1759.09 -750.98)"/><path class="cls-1" d="M1795.3,755.26c0-.6,0-1.09,0-1.57h0.94l0.06,1h0a2.14,2.14,0,0,1,1.92-1.09c0.8,0,2.05.48,2.05,2.47v3.47h-1.05v-3.35c0-.94-0.35-1.71-1.34-1.71a1.5,1.5,0,0,0-1.42,1.08,1.52,1.52,0,0,0-.07.49v3.49h-1.05v-4.23Z" transform="translate(-1759.09 -750.98)"/><path class="cls-1" d="M1807,751v7c0,0.52,0,1.1,0,1.5h-0.95l0-1h0a2.15,2.15,0,0,1-2,1.14c-1.4,0-2.48-1.19-2.48-3,0-1.93,1.19-3.12,2.6-3.12a1.94,1.94,0,0,1,1.75.89h0V751H1807Zm-1.06,5.07a1.85,1.85,0,0,0,0-.44,1.55,1.55,0,0,0-1.52-1.22c-1.09,0-1.74,1-1.74,2.24s0.58,2.15,1.71,2.15a1.59,1.59,0,0,0,1.55-1.26,1.83,1.83,0,0,0,0-.46v-1Z" transform="translate(-1759.09 -750.98)"/><path class="cls-1" d="M1812.54,752v1.67h1.51v0.8h-1.51v3.13c0,0.72.2,1.13,0.79,1.13a2.36,2.36,0,0,0,.61-0.07l0,0.79a2.58,2.58,0,0,1-.94.14,1.46,1.46,0,0,1-1.14-.44,2.15,2.15,0,0,1-.41-1.51v-3.17h-0.9v-0.8h0.9V752.3Z" transform="translate(-1759.09 -750.98)"/><path class="cls-1" d="M1815.25,755.5c0-.68,0-1.27,0-1.81h0.92l0,1.14h0a1.74,1.74,0,0,1,1.61-1.27,1.14,1.14,0,0,1,.3,0v1a1.59,1.59,0,0,0-.36,0,1.48,1.48,0,0,0-1.42,1.36,3,3,0,0,0,0,.49v3.09h-1v-4Z" transform="translate(-1759.09 -750.98)"/><path class="cls-1" d="M1822.32,759.49l-0.08-.73h0a2.16,2.16,0,0,1-1.78.86,1.65,1.65,0,0,1-1.77-1.67c0-1.4,1.25-2.17,3.49-2.16v-0.12a1.2,1.2,0,0,0-1.32-1.34,2.9,2.9,0,0,0-1.51.43l-0.24-.7a3.6,3.6,0,0,1,1.91-.52,2.06,2.06,0,0,1,2.21,2.37v2.17a8.25,8.25,0,0,0,.1,1.39h-1Zm-0.16-3c-1.15,0-2.46.18-2.46,1.31a0.93,0.93,0,0,0,1,1,1.44,1.44,0,0,0,1.4-1,1.1,1.1,0,0,0,.06-0.34v-1Z" transform="translate(-1759.09 -750.98)"/><path class="cls-1" d="M1826.07,752.06a0.65,0.65,0,0,1-1.31,0,0.64,0.64,0,0,1,.66-0.66A0.63,0.63,0,0,1,1826.07,752.06Zm-1.17,7.44v-5.8h1.05v5.8h-1.05Z" transform="translate(-1759.09 -750.98)"/><path class="cls-1" d="M1827.7,755.26c0-.6,0-1.09,0-1.57h0.94l0.06,1h0a2.14,2.14,0,0,1,1.92-1.09c0.8,0,2.05.48,2.05,2.47v3.47h-1.05v-3.35c0-.94-0.35-1.71-1.34-1.71a1.5,1.5,0,0,0-1.42,1.08,1.52,1.52,0,0,0-.07.49v3.49h-1.05v-4.23Z" transform="translate(-1759.09 -750.98)"/><path class="cls-1" d="M1836.91,755.26c0-.6,0-1.09,0-1.57h0.92l0,0.94h0a2,2,0,0,1,1.82-1.07,1.72,1.72,0,0,1,1.64,1.16h0A2.38,2.38,0,0,1,1842,754a2,2,0,0,1,1.28-.41c0.77,0,1.91.5,1.91,2.52v3.42h-1v-3.29c0-1.12-.41-1.79-1.26-1.79a1.37,1.37,0,0,0-1.25,1,1.74,1.74,0,0,0-.08.53v3.59h-1V756a1.33,1.33,0,0,0-1.21-1.6,1.57,1.57,0,0,0-1.39,1.57v3.5h-1v-4.23Z" transform="translate(-1759.09 -750.98)"/><path class="cls-1" d="M1852.17,756.54a2.84,2.84,0,0,1-2.89,3.08,2.76,2.76,0,0,1-2.78-3,2.83,2.83,0,0,1,2.88-3.08A2.75,2.75,0,0,1,1852.17,756.54Zm-4.61.06a1.81,1.81,0,1,0,3.53,0c0-1-.49-2.23-1.74-2.23S1847.56,755.5,1847.56,756.6Z" transform="translate(-1759.09 -750.98)"/><path class="cls-1" d="M1853.5,755.5c0-.68,0-1.27,0-1.81h0.92l0,1.14h0a1.74,1.74,0,0,1,1.61-1.27,1.14,1.14,0,0,1,.3,0v1a1.59,1.59,0,0,0-.36,0,1.48,1.48,0,0,0-1.42,1.36,3,3,0,0,0,0,.49v3.09h-1v-4Z" transform="translate(-1759.09 -750.98)"/><path class="cls-1" d="M1857.89,756.78a1.86,1.86,0,0,0,2,2,3.82,3.82,0,0,0,1.61-.3l0.18,0.76a4.7,4.7,0,0,1-1.93.36,2.7,2.7,0,0,1-2.85-2.93c0-1.75,1-3.13,2.72-3.13a2.46,2.46,0,0,1,2.4,2.73,4,4,0,0,1,0,.49h-4.08ZM1861,756a1.5,1.5,0,0,0-1.46-1.71,1.75,1.75,0,0,0-1.62,1.71H1861Z" transform="translate(-1759.09 -750.98)"/><path class="cls-1" d="M1869.07,759.49l-0.08-.73h0a2.16,2.16,0,0,1-1.78.86,1.65,1.65,0,0,1-1.77-1.67c0-1.4,1.25-2.17,3.49-2.16v-0.12a1.2,1.2,0,0,0-1.32-1.34,2.9,2.9,0,0,0-1.51.43l-0.24-.7a3.6,3.6,0,0,1,1.91-.52,2.06,2.06,0,0,1,2.21,2.37v2.17a8.25,8.25,0,0,0,.1,1.39h-1Zm-0.16-3c-1.15,0-2.46.18-2.46,1.31a0.93,0.93,0,0,0,1,1,1.44,1.44,0,0,0,1.4-1,1.1,1.1,0,0,0,.06-0.34v-1Z" transform="translate(-1759.09 -750.98)"/><path class="cls-1" d="M1872.87,752v1.67h1.51v0.8h-1.51v3.13c0,0.72.2,1.13,0.79,1.13a2.36,2.36,0,0,0,.61-0.07l0,0.79a2.58,2.58,0,0,1-.94.14,1.46,1.46,0,0,1-1.14-.44,2.15,2.15,0,0,1-.41-1.51v-3.17h-0.9v-0.8h0.9V752.3Z" transform="translate(-1759.09 -750.98)"/><path class="cls-2" d="M1878.11,755.26c0-.6,0-1.09,0-1.57H1879l0,0.94h0a2,2,0,0,1,1.82-1.07,1.72,1.72,0,0,1,1.64,1.16h0a2.38,2.38,0,0,1,.65-0.76,2,2,0,0,1,1.28-.41c0.77,0,1.91.5,1.91,2.52v3.42h-1v-3.29c0-1.12-.41-1.79-1.26-1.79a1.37,1.37,0,0,0-1.25,1,1.74,1.74,0,0,0-.08.53v3.59h-1V756a1.33,1.33,0,0,0-1.21-1.6,1.57,1.57,0,0,0-1.39,1.57v3.5h-1v-4.23Z" transform="translate(-1759.09 -750.98)"/><path class="cls-2" d="M1888.35,753.69l1.27,3.43c0.13,0.38.28,0.84,0.37,1.19h0c0.11-.35.23-0.79,0.37-1.21l1.15-3.41h1.12l-1.58,4.14c-0.75,2-1.27,3-2,3.63a2.86,2.86,0,0,1-1.3.68l-0.26-.89a2.8,2.8,0,0,0,.92-0.52,3.2,3.2,0,0,0,.89-1.18,0.76,0.76,0,0,0,.08-0.25,0.93,0.93,0,0,0-.07-0.28l-2.15-5.35h1.15Z" transform="translate(-1759.09 -750.98)"/><path class="cls-2" d="M1892.9,758.87a0.71,0.71,0,0,1,.72-0.76A0.76,0.76,0,1,1,1892.9,758.87Z" transform="translate(-1759.09 -750.98)"/><path class="cls-2" d="M1896.05,753.69l0.77,3c0.17,0.65.32,1.25,0.43,1.85h0c0.13-.59.32-1.21,0.52-1.83l0.95-3h0.89l0.9,2.9c0.22,0.7.38,1.31,0.52,1.9h0a17.52,17.52,0,0,1,.44-1.88l0.83-2.91h1l-1.87,5.8h-1l-0.89-2.77a19.17,19.17,0,0,1-.52-1.91h0a17.3,17.3,0,0,1-.53,1.92l-0.94,2.76h-1l-1.75-5.8h1.08Z" transform="translate(-1759.09 -750.98)"/><path class="cls-2" d="M1909.6,756.54a2.84,2.84,0,0,1-2.89,3.08,2.76,2.76,0,0,1-2.78-3,2.83,2.83,0,0,1,2.88-3.08A2.75,2.75,0,0,1,1909.6,756.54Zm-4.61.06a1.81,1.81,0,1,0,3.53,0c0-1-.49-2.23-1.74-2.23S1905,755.5,1905,756.6Z" transform="translate(-1759.09 -750.98)"/><path class="cls-2" d="M1910.93,755.5c0-.68,0-1.27,0-1.81h0.92l0,1.14h0a1.74,1.74,0,0,1,1.61-1.27,1.14,1.14,0,0,1,.3,0v1a1.59,1.59,0,0,0-.36,0,1.48,1.48,0,0,0-1.42,1.36,3,3,0,0,0,0,.49v3.09h-1v-4Z" transform="translate(-1759.09 -750.98)"/><path class="cls-2" d="M1915.95,756.35h0c0.14-.2.35-0.46,0.52-0.66l1.7-2h1.27l-2.24,2.39,2.55,3.42h-1.28l-2-2.78-0.54.6v2.18h-1V751h1v5.37Z" transform="translate(-1759.09 -750.98)"/><path class="cls-2" d="M1920.39,758.41a2.76,2.76,0,0,0,1.39.42,0.94,0.94,0,0,0,1.13-.86c0-.5-0.3-0.78-1.08-1.07a1.86,1.86,0,0,1-1.54-1.64,1.79,1.79,0,0,1,2-1.7,2.89,2.89,0,0,1,1.43.36l-0.26.77a2.26,2.26,0,0,0-1.19-.34,0.85,0.85,0,0,0-1,.79c0,0.48.35,0.7,1.1,1a1.86,1.86,0,0,1,1.52,1.75c0,1-.79,1.74-2.17,1.74a3.31,3.31,0,0,1-1.63-.4Z" transform="translate(-1759.09 -750.98)"/><path class="cls-2" d="M1926.56,752v1.67h1.51v0.8h-1.51v3.13c0,0.72.2,1.13,0.79,1.13a2.36,2.36,0,0,0,.61-0.07l0,0.79a2.58,2.58,0,0,1-.94.14,1.46,1.46,0,0,1-1.14-.44,2.15,2.15,0,0,1-.41-1.51v-3.17h-0.9v-0.8h0.9V752.3Z" transform="translate(-1759.09 -750.98)"/><path class="cls-2" d="M1929.75,753.69l1.27,3.43c0.13,0.38.28,0.84,0.37,1.19h0c0.11-.35.23-0.79,0.37-1.21l1.15-3.41h1.12l-1.58,4.14c-0.75,2-1.27,3-2,3.63a2.85,2.85,0,0,1-1.3.68l-0.26-.89a2.8,2.8,0,0,0,.92-0.52,3.2,3.2,0,0,0,.89-1.18,0.76,0.76,0,0,0,.08-0.25,0.93,0.93,0,0,0-.07-0.28l-2.15-5.35h1.15Z" transform="translate(-1759.09 -750.98)"/><path class="cls-2" d="M1935,751h1.05v8.52H1935V751Z" transform="translate(-1759.09 -750.98)"/><path class="cls-2" d="M1938.44,756.78a1.86,1.86,0,0,0,2,2,3.82,3.82,0,0,0,1.61-.3l0.18,0.76a4.7,4.7,0,0,1-1.93.36,2.7,2.7,0,0,1-2.85-2.93c0-1.75,1-3.13,2.72-3.13a2.46,2.46,0,0,1,2.4,2.73,4,4,0,0,1,0,.49h-4.08Zm3.09-.76a1.5,1.5,0,0,0-1.46-1.71,1.75,1.75,0,0,0-1.62,1.71h3.08Z" transform="translate(-1759.09 -750.98)"/><path class="cls-2" d="M1943.46,758.87a0.71,0.71,0,0,1,.72-0.76A0.76,0.76,0,1,1,1943.46,758.87Z" transform="translate(-1759.09 -750.98)"/><path class="cls-2" d="M1950.34,759.28a3.89,3.89,0,0,1-1.67.34,2.76,2.76,0,0,1-2.89-3,3,3,0,0,1,3.12-3.08,3.53,3.53,0,0,1,1.46.3l-0.24.82a2.46,2.46,0,0,0-1.22-.28,2.19,2.19,0,0,0,0,4.37,3,3,0,0,0,1.29-.29Z" transform="translate(-1759.09 -750.98)"/><path class="cls-2" d="M1956.76,756.54a2.84,2.84,0,0,1-2.89,3.08,2.76,2.76,0,0,1-2.78-3,2.83,2.83,0,0,1,2.88-3.08A2.75,2.75,0,0,1,1956.76,756.54Zm-4.61.06a1.81,1.81,0,1,0,3.53,0c0-1-.49-2.23-1.74-2.23S1952.15,755.5,1952.15,756.6Z" transform="translate(-1759.09 -750.98)"/><path class="cls-2" d="M1958.09,755.26c0-.6,0-1.09,0-1.57H1959l0,0.94h0a2,2,0,0,1,1.82-1.07,1.72,1.72,0,0,1,1.64,1.16h0a2.38,2.38,0,0,1,.65-0.76,2,2,0,0,1,1.28-.41c0.77,0,1.91.5,1.91,2.52v3.42h-1v-3.29c0-1.12-.41-1.79-1.26-1.79a1.37,1.37,0,0,0-1.25,1,1.74,1.74,0,0,0-.08.53v3.59h-1V756a1.33,1.33,0,0,0-1.21-1.6,1.57,1.57,0,0,0-1.39,1.57v3.5h-1v-4.23Z" transform="translate(-1759.09 -750.98)"/></svg>