<svg id="Layer_1" data-name="Layer 1" xmlns="http://www.w3.org/2000/svg" viewBox="0 0 55.72 55.72"><defs><style>.cls-1{fill:#518cca;}.cls-2{fill:none;stroke:#fff;stroke-linecap:round;stroke-linejoin:round;stroke-width:1.5px;}</style></defs><title>organizer-icon</title><circle class="cls-1" cx="27.86" cy="27.86" r="27.86"/><g id="Outline_Icons" data-name="Outline Icons"><path class="cls-2" d="M1230.77,588.06h1.44a1.56,1.56,0,0,1,1.56,1.55V613.7a1.55,1.55,0,0,1-1.56,1.55H1212a1.55,1.55,0,0,1-1.55-1.55V589.61a1.56,1.56,0,0,1,1.55-1.55h1.44" transform="translate(-1194.27 -573.84)"/><path class="cls-2" d="M1225.77,588.06a1.28,1.28,0,0,1-1.21-.85,2.59,2.59,0,0,0-4.89,0,1.28,1.28,0,0,1-1.21.85h-1.52a1.3,1.3,0,0,0-1.3,1.3h0a1.3,1.3,0,0,0,1.3,1.3h10.36a1.3,1.3,0,0,0,1.3-1.3h0a1.3,1.3,0,0,0-1.3-1.3h-1.52Z" transform="translate(-1194.27 -573.84)"/><polyline class="cls-2" points="36.91 16.81 36.91 38.82 18.78 38.82 18.78 16.81"/><line class="cls-2" x1="26.4" y1="21.99" x2="33.03" y2="21.99"/><line class="cls-2" x1="26.4" y1="25.87" x2="33.03" y2="25.87"/><line class="cls-2" x1="26.4" y1="29.76" x2="33.03" y2="29.76"/><line class="cls-2" x1="26.4" y1="33.64" x2="33.03" y2="33.64"/><line class="cls-2" x1="22.02" y1="25.87" x2="22.66" y2="25.87"/><line class="cls-2" x1="22.02" y1="33.64" x2="22.66" y2="33.64"/></g><polyline class="cls-2" points="23.98 28.28 22.43 30.26 21.63 29.46"/><polyline class="cls-2" points="23.98 21.01 22.43 22.99 21.63 22.2"/></svg>