<svg id="Layer_1" data-name="Layer 1" xmlns="http://www.w3.org/2000/svg" viewBox="0 0 69.86 15.9"><defs><style>.cls-1{fill:#424143;}</style></defs><title>organizer-text</title><path class="cls-1" d="M1199.72,642.67c0,4-2.44,6.14-5.42,6.14s-5.24-2.39-5.24-5.92c0-3.7,2.3-6.13,5.42-6.13S1199.72,639.21,1199.72,642.67Zm-9.05.19c0,2.49,1.35,4.72,3.72,4.72s3.74-2.2,3.74-4.85c0-2.32-1.21-4.74-3.72-4.74S1190.67,640.3,1190.67,642.86Z" transform="translate(-1189.06 -636.77)"/><path class="cls-1" d="M1201.62,642.86c0-1,0-1.83-.07-2.61h1.33l0.05,1.64H1203a2.51,2.51,0,0,1,2.32-1.83,1.63,1.63,0,0,1,.43.05v1.44a2.27,2.27,0,0,0-.52-0.05,2.14,2.14,0,0,0-2,2,4.23,4.23,0,0,0-.07.71v4.46h-1.51v-5.76Z" transform="translate(-1189.06 -636.77)"/><path class="cls-1" d="M1214.36,640.25c0,0.61-.07,1.28-0.07,2.3v4.86c0,1.92-.38,3.1-1.19,3.82a4.44,4.44,0,0,1-3,1,5.41,5.41,0,0,1-2.79-.69l0.38-1.16a4.72,4.72,0,0,0,2.46.66c1.56,0,2.7-.81,2.7-2.92v-0.93h0a3,3,0,0,1-2.66,1.4c-2.08,0-3.56-1.77-3.56-4.08,0-2.84,1.85-4.45,3.77-4.45a2.79,2.79,0,0,1,2.61,1.45h0l0.07-1.26h1.33Zm-1.57,3.31a2.23,2.23,0,0,0-2.21-2.3c-1.45,0-2.49,1.23-2.49,3.17,0,1.64.83,3,2.47,3a2.22,2.22,0,0,0,2.11-1.56,2.67,2.67,0,0,0,.12-0.81v-1.51Z" transform="translate(-1189.06 -636.77)"/><path class="cls-1" d="M1221.46,648.62l-0.12-1.06h-0.05a3.12,3.12,0,0,1-2.56,1.25,2.39,2.39,0,0,1-2.56-2.41c0-2,1.8-3.13,5-3.11v-0.17a1.73,1.73,0,0,0-1.9-1.94,4.17,4.17,0,0,0-2.18.62l-0.35-1a5.2,5.2,0,0,1,2.75-.74c2.56,0,3.18,1.75,3.18,3.43v3.13a11.62,11.62,0,0,0,.14,2h-1.38Zm-0.22-4.27c-1.66,0-3.55.26-3.55,1.89a1.35,1.35,0,0,0,1.44,1.45,2.08,2.08,0,0,0,2-1.4,1.57,1.57,0,0,0,.09-0.48v-1.45Z" transform="translate(-1189.06 -636.77)"/><path class="cls-1" d="M1225.16,642.52c0-.87,0-1.57-0.07-2.27h1.35l0.09,1.38h0a3.08,3.08,0,0,1,2.77-1.57c1.16,0,3,.69,3,3.56v5h-1.52V643.8c0-1.35-.5-2.47-1.94-2.47a2.23,2.23,0,0,0-2.14,2.27v5h-1.52v-6.11Z" transform="translate(-1189.06 -636.77)"/><path class="cls-1" d="M1236.46,637.9a0.94,0.94,0,0,1-1.89,0,0.93,0.93,0,0,1,1-1A0.9,0.9,0,0,1,1236.46,637.9Zm-1.7,10.73v-8.37h1.52v8.38h-1.52Z" transform="translate(-1189.06 -636.77)"/><path class="cls-1" d="M1237.87,647.74l3.79-4.93c0.36-.45.71-0.85,1.09-1.3v0h-4.53v-1.23h6.38l0,1-3.74,4.86c-0.35.47-.69,0.88-1.07,1.31v0h4.9v1.21h-6.8v-0.88Z" transform="translate(-1189.06 -636.77)"/><path class="cls-1" d="M1247,644.71a2.68,2.68,0,0,0,2.87,2.91,5.5,5.5,0,0,0,2.32-.43l0.26,1.09a6.79,6.79,0,0,1-2.79.52,3.89,3.89,0,0,1-4.12-4.22c0-2.53,1.49-4.52,3.93-4.52,2.73,0,3.46,2.41,3.46,3.95a5.66,5.66,0,0,1-.05.71H1247Zm4.46-1.09a2.17,2.17,0,0,0-2.11-2.47,2.52,2.52,0,0,0-2.34,2.47h4.45Z" transform="translate(-1189.06 -636.77)"/><path class="cls-1" d="M1254.78,642.86c0-1,0-1.83-.07-2.61H1256l0.05,1.64h0.07a2.51,2.51,0,0,1,2.32-1.83,1.63,1.63,0,0,1,.43.05v1.44a2.27,2.27,0,0,0-.52-0.05,2.14,2.14,0,0,0-2,2,4.23,4.23,0,0,0-.07.71v4.46h-1.51v-5.76Z" transform="translate(-1189.06 -636.77)"/></svg>