<svg id="Layer_1" data-name="Layer 1" xmlns="http://www.w3.org/2000/svg" viewBox="0 0 46.5 46.5"><defs><style>.cls-1{fill:#edaa00;}.cls-2{fill:none;stroke:#fff;stroke-linecap:round;stroke-linejoin:round;stroke-width:1.2px;}</style></defs><title>original-icon</title><circle class="cls-1" cx="23.25" cy="23.25" r="23.25"/><path class="cls-2" d="M1228.65,704.45h1.11a3.34,3.34,0,1,1,0,6.69h-1.11" transform="translate(-1198.87 -680.6)"/><path class="cls-2" d="M1228.52,691.14c1.15,1.75-.55,2.72-1,3.66a1.72,1.72,0,0,0,1,2.37C1231.79,698.54,1232.75,692.17,1228.52,691.14Z" transform="translate(-1198.87 -680.6)"/><line class="cls-2" x1="26.44" y1="21.62" x2="29.34" y2="16.39"/><line class="cls-2" x1="30.49" y1="16.77" x2="28.67" y2="21.62"/><polyline class="cls-2" points="16.69 21.54 14.73 17.91 14.18 14.57 16.96 16.24 20.03 21.54"/><line class="cls-2" x1="14.73" y1="18.27" x2="16.96" y2="16.6"/><polyline class="cls-2" points="25.32 21.6 25.32 10.11 20.86 10.11 20.86 21.6"/><line class="cls-2" x1="25.32" y1="12.7" x2="23.09" y2="12.7"/><line class="cls-2" x1="25.32" y1="14.93" x2="24.21" y2="14.93"/><line class="cls-2" x1="25.32" y1="17.16" x2="23.09" y2="17.16"/><line class="cls-2" x1="25.32" y1="19.39" x2="24.21" y2="19.39"/><path class="cls-2" d="M1223.09,702.21h5.47v8.69c0,4-3.3,5.52-7.3,5.52h0c-4,0-7.47-1.88-7.47-5.88v-8.33h9.29" transform="translate(-1198.87 -680.6)"/></svg>