<svg id="Layer_1" data-name="Layer 1" xmlns="http://www.w3.org/2000/svg" viewBox="0 0 55.44 15.9"><defs><style>.cls-1{fill:#424143;}</style></defs><title>original-text</title><path class="cls-1" d="M1206.31,738.65c0,4-2.44,6.14-5.42,6.14s-5.24-2.39-5.24-5.92c0-3.7,2.3-6.13,5.42-6.13S1206.31,735.19,1206.31,738.65Zm-9,.19c0,2.49,1.35,4.72,3.72,4.72s3.74-2.2,3.74-4.85c0-2.32-1.21-4.74-3.72-4.74S1197.26,736.28,1197.26,738.84Z" transform="translate(-1195.65 -732.32)"/><path class="cls-1" d="M1208.22,738.84c0-1,0-1.83-.07-2.61h1.33l0.05,1.64h0.07a2.51,2.51,0,0,1,2.32-1.83,1.65,1.65,0,0,1,.43.05v1.44a2.3,2.3,0,0,0-.52-0.05,2.13,2.13,0,0,0-2,2,4.22,4.22,0,0,0-.07.71v4.46h-1.51v-5.76Z" transform="translate(-1195.65 -732.32)"/><path class="cls-1" d="M1215.64,733.88a0.94,0.94,0,0,1-1.89,0,0.93,0.93,0,0,1,1-1A0.9,0.9,0,0,1,1215.64,733.88Zm-1.7,10.73v-8.37h1.52v8.38h-1.52Z" transform="translate(-1195.65 -732.32)"/><path class="cls-1" d="M1225.21,736.23c0,0.61-.07,1.28-0.07,2.3v4.86c0,1.92-.38,3.1-1.19,3.82a4.44,4.44,0,0,1-3,1,5.4,5.4,0,0,1-2.79-.69l0.38-1.16a4.73,4.73,0,0,0,2.46.66c1.56,0,2.7-.81,2.7-2.92v-0.93h0a3,3,0,0,1-2.67,1.4c-2.08,0-3.56-1.76-3.56-4.08,0-2.84,1.85-4.45,3.77-4.45a2.79,2.79,0,0,1,2.61,1.45h0l0.07-1.26h1.33Zm-1.57,3.31a2.14,2.14,0,0,0-.09-0.69,2.19,2.19,0,0,0-2.13-1.61c-1.46,0-2.49,1.23-2.49,3.17,0,1.64.83,3,2.47,3a2.23,2.23,0,0,0,2.11-1.56,2.67,2.67,0,0,0,.12-0.81v-1.51Z" transform="translate(-1195.65 -732.32)"/><path class="cls-1" d="M1229.26,733.88a0.94,0.94,0,0,1-1.88,0,0.93,0.93,0,0,1,1-1A0.9,0.9,0,0,1,1229.26,733.88Zm-1.7,10.73v-8.37h1.52v8.38h-1.52Z" transform="translate(-1195.65 -732.32)"/><path class="cls-1" d="M1231.62,738.5c0-.87,0-1.57-0.07-2.27h1.35l0.09,1.38h0a3.08,3.08,0,0,1,2.77-1.57c1.16,0,3,.69,3,3.56v5h-1.52v-4.83c0-1.35-.5-2.47-1.94-2.47a2.16,2.16,0,0,0-2,1.56,2.21,2.21,0,0,0-.1.71v5h-1.52V738.5Z" transform="translate(-1195.65 -732.32)"/><path class="cls-1" d="M1245.86,744.61l-0.12-1.06h-0.05a3.12,3.12,0,0,1-2.56,1.25,2.39,2.39,0,0,1-2.56-2.41c0-2,1.8-3.13,5-3.11V739.1a1.73,1.73,0,0,0-1.9-1.94,4.17,4.17,0,0,0-2.18.62l-0.35-1a5.21,5.21,0,0,1,2.75-.74c2.56,0,3.18,1.75,3.18,3.43v3.13a11.82,11.82,0,0,0,.14,2h-1.38Zm-0.22-4.27c-1.66,0-3.55.26-3.55,1.89a1.35,1.35,0,0,0,1.44,1.45,2.08,2.08,0,0,0,2-1.4,1.62,1.62,0,0,0,.09-0.48v-1.45Z" transform="translate(-1195.65 -732.32)"/><path class="cls-1" d="M1249.57,732.32h1.52v12.29h-1.52V732.32Z" transform="translate(-1195.65 -732.32)"/></svg>