<svg id="Layer_1" data-name="Layer 1" xmlns="http://www.w3.org/2000/svg" viewBox="0 0 85.71 20.84"><defs><style>.cls-1,.cls-3{fill:#939598;}.cls-2{opacity:0.5;}.cls-3{opacity:0.75;}</style></defs><title>workstyle</title><path class="cls-1" d="M1435,758.71l-2.75-9.62-2.75,9.62H1427l-2.42-11.34h1.86l1.89,9.41,2.75-9.41h2.38l2.75,9.41,1.89-9.41h1.86l-2.42,11.34H1435Z" transform="translate(-1424.56 -742.45)"/><path class="cls-1" d="M1445.67,758.94c-3.31,0-4.61-1.89-4.61-4.26v-3.28c0-2.38,1.3-4.26,4.61-4.26s4.61,1.89,4.61,4.26v3.28C1450.29,757.05,1449,758.94,1445.67,758.94Zm0-10.11c-1.77,0-2.66.84-2.66,2.49v3.42c0,1.65.88,2.49,2.66,2.49s2.66-.84,2.66-2.49v-3.42C1448.33,749.67,1447.44,748.83,1445.67,748.83Z" transform="translate(-1424.56 -742.45)"/><path class="cls-1" d="M1458,748.93a24.89,24.89,0,0,0-3.24,2v7.82h-2V747.36h1.7l0.12,1.58a14.47,14.47,0,0,1,3.12-1.82Z" transform="translate(-1424.56 -742.45)"/><path class="cls-1" d="M1459.45,758.71v-16l2-.28v16.25h-2Zm8.72-11.34-4.06,5.61,4.24,5.73H1466l-4.15-5.73,4-5.61h2.26Z" transform="translate(-1424.56 -742.45)"/><g class="cls-2"><path class="cls-3" d="M1473.24,758.94a9.68,9.68,0,0,1-3.33-.58l0.23-1.09a11.14,11.14,0,0,0,3,.47c2.1,0,2.52-.4,2.52-1.84,0-1.63,0-1.79-2.63-2.4-2.84-.68-3.08-1.37-3.08-3.45,0-1.89.91-2.91,3.7-2.91a12.8,12.8,0,0,1,3.22.4l-0.14,1.14a18.07,18.07,0,0,0-3.17-.33c-2,0-2.26.51-2.26,1.75,0,1.56.09,1.72,2.19,2.26,3.33,0.84,3.52,1.37,3.52,3.49S1476.27,758.94,1473.24,758.94Z" transform="translate(-1424.56 -742.45)"/><path class="cls-3" d="M1485.66,758.5a7,7,0,0,1-2.38.44c-1.79,0-2.56-.65-2.56-2.45v-8h-2.19v-1.16h2.19v-2.68l1.35-.19v2.86h3.47l-0.14,1.16h-3.33v7.82c0,1,.14,1.42,1.3,1.42a7.08,7.08,0,0,0,2-.33Z" transform="translate(-1424.56 -742.45)"/><path class="cls-3" d="M1492.28,758.71l-1.68,4.59h-1.33l1.7-4.59h-0.77l-3.84-11.34h1.37l3.5,10.39,3.52-10.39h1.37Z" transform="translate(-1424.56 -742.45)"/><path class="cls-3" d="M1497.76,758.71v-16l1.35-.19v16.16h-1.35Z" transform="translate(-1424.56 -742.45)"/><path class="cls-3" d="M1506.22,757.75a14.39,14.39,0,0,0,3.59-.54l0.23,1.09a12.54,12.54,0,0,1-3.91.63c-3.19,0-4.22-1.65-4.22-4.12v-3.56c0-2.33,1-4.12,4.24-4.12s4.12,1.79,4.12,4.12v2.19h-7v1.42C1503.26,756.89,1504,757.75,1506.22,757.75Zm-3-5.52h5.68v-1c0-1.91-.68-2.91-2.8-2.91s-2.89,1-2.89,2.91v1Z" transform="translate(-1424.56 -742.45)"/></g></svg>